
<svg xmlns="http://www.w3.org/2000/svg" xmlns:xlink="http://www.w3.org/1999/xlink" width="32px" height="32px" viewBox="0 0 32 32" version="1.1">
<defs>
<linearGradient id="linear0" gradientUnits="userSpaceOnUse" x1="198.300247" y1="66.203491" x2="196.276016" y2="320.847565" gradientTransform="matrix(0.0833333,0,0,0.0833333,0,0)">
<stop offset="0" style="stop-color:rgb(8.627451%,47.058824%,94.117647%);stop-opacity:1;"/>
<stop offset="1" style="stop-color:rgb(5.490196%,39.215687%,80.784315%);stop-opacity:1;"/>
</linearGradient>
<filter id="alpha" filterUnits="objectBoundingBox" x="0%" y="0%" width="100%" height="100%">
  <feColorMatrix type="matrix" in="SourceGraphic" values="0 0 0 0 1 0 0 0 0 1 0 0 0 0 1 0 0 0 1 0"/>
</filter>
<mask id="mask0">
  <g filter="url(#alpha)">
<rect x="0" y="0" width="32" height="32" style="fill:rgb(0%,0%,0%);fill-opacity:0.6;stroke:none;"/>
  </g>
</mask>
<linearGradient id="linear1" gradientUnits="userSpaceOnUse" x1="173.893509" y1="92.745766" x2="173.496323" y2="100.881363" >
<stop offset="0" style="stop-color:rgb(100%,100%,100%);stop-opacity:1;"/>
<stop offset="1" style="stop-color:rgb(100%,100%,100%);stop-opacity:0;"/>
</linearGradient>
<clipPath id="clip1">
  <rect x="0" y="0" width="32" height="32"/>
</clipPath>
<g id="surface5" clip-path="url(#clip1)">
<path style="fill:none;stroke-width:7.5;stroke-linecap:butt;stroke-linejoin:miter;stroke:url(#linear1);stroke-miterlimit:4;" d="M 44.0625 67.125 C 38.34375 67.125 33.75 72.1875 33.75 78.46875 L 33.75 308.203125 C 33.75 312.984375 37.265625 316.875 41.625 316.875 L 339.375 316.875 C 343.734375 316.875 347.25 312.984375 347.25 308.203125 L 347.25 108.421875 C 347.25 98.953125 340.3125 91.359375 331.734375 91.359375 L 172.125 91.359375 C 167.90625 91.359375 166.21875 90.796875 163.5 87.984375 L 147.515625 70.546875 C 147.46875 70.453125 147.421875 70.40625 147.328125 70.359375 L 147.328125 70.3125 C 145.453125 68.34375 142.96875 67.125 140.15625 67.125 Z M 44.0625 67.125 " transform="matrix(0.0833333,0,0,0.0833333,0,0)"/>
</g>
</defs>
<g id="surface1">
<path style=" stroke:none;fill-rule:evenodd;fill:rgb(0%,0%,0%);fill-opacity:0.588235;" d="M 4.648438 5.90625 C 4.203125 5.90625 3.847656 6.339844 3.847656 6.878906 L 3.847656 26.597656 C 3.847656 27.011719 4.121094 27.34375 4.460938 27.34375 L 27.609375 27.34375 C 27.949219 27.34375 28.222656 27.011719 28.222656 26.597656 L 28.222656 9.449219 C 28.222656 8.640625 27.683594 7.984375 27.015625 7.984375 L 14.605469 7.984375 C 14.277344 7.984375 14.148438 7.9375 13.9375 7.699219 L 12.691406 6.199219 C 12.6875 6.191406 12.683594 6.1875 12.679688 6.183594 L 12.675781 6.179688 C 12.53125 6.011719 12.335938 5.90625 12.121094 5.90625 Z M 4.648438 5.90625 "/>
<path style=" stroke:none;fill-rule:evenodd;fill:url(#linear0);" d="M 3.503906 5.214844 C 3.019531 5.214844 2.625 5.648438 2.625 6.1875 L 2.625 25.90625 C 2.625 26.316406 2.925781 26.648438 3.296875 26.648438 L 28.703125 26.648438 C 29.074219 26.648438 29.375 26.316406 29.375 25.90625 L 29.375 8.757812 C 29.375 7.945312 28.785156 7.292969 28.050781 7.292969 L 14.433594 7.292969 C 14.074219 7.292969 13.929688 7.246094 13.699219 7.003906 L 12.332031 5.503906 C 12.328125 5.5 12.324219 5.496094 12.316406 5.488281 C 12.15625 5.316406 11.941406 5.214844 11.703125 5.214844 Z M 3.503906 5.214844 "/>
<use xlink:href="#surface5" mask="url(#mask0)"/>
<path style=" stroke:none;fill-rule:nonzero;fill:rgb(0%,0%,0%);fill-opacity:0.588235;" d="M 4.941406 7.066406 L 11.800781 7.066406 C 12.128906 7.066406 12.398438 7.332031 12.398438 7.660156 L 12.398438 9.222656 C 12.398438 9.550781 12.128906 9.816406 11.800781 9.816406 L 4.941406 9.816406 C 4.613281 9.816406 4.347656 9.550781 4.347656 9.222656 L 4.347656 7.660156 C 4.347656 7.332031 4.613281 7.066406 4.941406 7.066406 Z M 4.941406 7.066406 "/>
<path style=" stroke:none;fill-rule:nonzero;fill:rgb(100%,100%,100%);fill-opacity:1;" d="M 4.515625 6.585938 L 11.375 6.585938 C 11.703125 6.585938 11.96875 6.851562 11.96875 7.179688 L 11.96875 8.742188 C 11.96875 9.070312 11.703125 9.335938 11.375 9.335938 L 4.515625 9.335938 C 4.1875 9.335938 3.921875 9.070312 3.921875 8.742188 L 3.921875 7.179688 C 3.921875 6.851562 4.1875 6.585938 4.515625 6.585938 Z M 4.515625 6.585938 "/>
<path style=" stroke:none;fill-rule:nonzero;fill:rgb(100%,100%,100%);fill-opacity:1;" d="M 16 13.4375 C 13.414062 13.4375 11.3125 15.539062 11.3125 18.125 C 11.3125 20.710938 13.414062 22.8125 16 22.8125 C 18.585938 22.8125 20.6875 20.710938 20.6875 18.125 C 20.6875 15.539062 18.585938 13.4375 16 13.4375 Z M 16 14.25 C 17.082031 14.25 17.976562 14.617188 18.742188 15.382812 C 19.507812 16.148438 19.875 17.042969 19.875 18.125 C 19.875 18.15625 19.871094 18.1875 19.871094 18.222656 L 18.128906 18.222656 L 17.257812 15.332031 C 17.25 15.304688 17.238281 15.277344 17.222656 15.253906 C 17.214844 15.246094 17.210938 15.238281 17.203125 15.230469 C 17.195312 15.222656 17.191406 15.214844 17.183594 15.207031 C 17.167969 15.191406 17.152344 15.179688 17.136719 15.167969 C 17.113281 15.152344 17.085938 15.140625 17.054688 15.132812 C 17.027344 15.125 16.996094 15.121094 16.96875 15.121094 C 16.957031 15.121094 16.945312 15.121094 16.9375 15.125 C 16.917969 15.125 16.898438 15.128906 16.878906 15.136719 C 16.859375 15.144531 16.839844 15.152344 16.824219 15.160156 C 16.816406 15.164062 16.808594 15.171875 16.800781 15.175781 C 16.792969 15.183594 16.785156 15.1875 16.777344 15.195312 C 16.769531 15.203125 16.761719 15.210938 16.753906 15.214844 C 16.726562 15.246094 16.707031 15.28125 16.691406 15.316406 C 16.6875 15.328125 16.6875 15.335938 16.683594 15.347656 C 16.683594 15.351562 16.679688 15.359375 16.679688 15.363281 L 16.15625 18.070312 L 15.527344 15.351562 C 15.523438 15.34375 15.523438 15.332031 15.519531 15.324219 C 15.515625 15.316406 15.511719 15.304688 15.507812 15.296875 C 15.503906 15.285156 15.5 15.277344 15.496094 15.269531 C 15.488281 15.261719 15.484375 15.253906 15.476562 15.246094 C 15.464844 15.226562 15.453125 15.214844 15.4375 15.199219 C 15.410156 15.171875 15.375 15.152344 15.335938 15.136719 C 15.316406 15.132812 15.296875 15.128906 15.277344 15.125 C 15.257812 15.121094 15.238281 15.121094 15.21875 15.121094 C 15.199219 15.121094 15.179688 15.125 15.160156 15.128906 C 15.132812 15.136719 15.109375 15.148438 15.085938 15.160156 C 15.058594 15.175781 15.03125 15.199219 15.011719 15.222656 C 15.003906 15.230469 14.996094 15.238281 14.992188 15.246094 C 14.984375 15.257812 14.980469 15.265625 14.976562 15.273438 C 14.972656 15.277344 14.972656 15.277344 14.972656 15.28125 C 14.964844 15.296875 14.957031 15.3125 14.953125 15.328125 C 14.949219 15.335938 14.949219 15.339844 14.945312 15.347656 C 14.945312 15.351562 14.945312 15.355469 14.945312 15.355469 C 14.945312 15.355469 14.945312 15.359375 14.941406 15.359375 L 14.039062 19.628906 L 13.6875 18.433594 C 13.683594 18.414062 13.675781 18.398438 13.664062 18.378906 C 13.660156 18.371094 13.65625 18.363281 13.652344 18.355469 C 13.644531 18.347656 13.640625 18.335938 13.632812 18.328125 C 13.625 18.324219 13.621094 18.316406 13.613281 18.308594 C 13.589844 18.285156 13.566406 18.269531 13.539062 18.253906 C 13.496094 18.230469 13.449219 18.21875 13.402344 18.21875 L 12.128906 18.21875 C 12.128906 18.1875 12.125 18.15625 12.125 18.125 C 12.125 17.042969 12.492188 16.148438 13.257812 15.382812 C 14.023438 14.617188 14.917969 14.25 16 14.25 Z M 17.035156 16.664062 L 17.621094 18.605469 C 17.632812 18.652344 17.660156 18.699219 17.695312 18.734375 C 17.730469 18.769531 17.777344 18.792969 17.824219 18.808594 C 17.832031 18.808594 17.84375 18.8125 17.851562 18.8125 C 17.863281 18.816406 17.871094 18.816406 17.882812 18.816406 C 17.890625 18.816406 17.898438 18.820312 17.90625 18.820312 L 19.820312 18.820312 C 19.6875 19.597656 19.335938 20.269531 18.742188 20.867188 C 17.976562 21.632812 17.082031 22 16 22 C 14.917969 22 14.023438 21.632812 13.257812 20.867188 C 12.664062 20.269531 12.3125 19.601562 12.179688 18.820312 L 13.179688 18.820312 L 13.800781 20.933594 C 13.816406 20.980469 13.839844 21.023438 13.875 21.058594 C 13.890625 21.074219 13.90625 21.085938 13.921875 21.097656 C 13.941406 21.109375 13.957031 21.117188 13.976562 21.125 C 13.984375 21.128906 13.996094 21.132812 14.003906 21.132812 C 14.015625 21.136719 14.023438 21.140625 14.035156 21.140625 C 14.054688 21.144531 14.074219 21.144531 14.09375 21.144531 C 14.105469 21.144531 14.117188 21.144531 14.128906 21.144531 C 14.144531 21.140625 14.164062 21.136719 14.179688 21.132812 C 14.1875 21.128906 14.191406 21.125 14.199219 21.125 C 14.210938 21.121094 14.222656 21.113281 14.234375 21.105469 C 14.253906 21.097656 14.269531 21.085938 14.285156 21.074219 C 14.292969 21.066406 14.300781 21.058594 14.304688 21.050781 C 14.34375 21.011719 14.367188 20.960938 14.378906 20.910156 L 15.25 16.804688 L 15.886719 19.578125 C 15.914062 19.691406 16.007812 19.78125 16.121094 19.804688 C 16.238281 19.828125 16.355469 19.78125 16.425781 19.683594 C 16.433594 19.667969 16.445312 19.648438 16.453125 19.632812 C 16.457031 19.621094 16.460938 19.613281 16.464844 19.601562 C 16.464844 19.59375 16.46875 19.585938 16.472656 19.574219 C 16.472656 19.570312 16.472656 19.570312 16.472656 19.566406 Z M 17.035156 16.664062 "/>
</g>
</svg>
