
<svg xmlns="http://www.w3.org/2000/svg" xmlns:xlink="http://www.w3.org/1999/xlink" width="48px" height="48px" viewBox="0 0 48 48" version="1.1">
<defs>
<linearGradient id="linear0" gradientUnits="userSpaceOnUse" x1="198.300247" y1="66.203491" x2="196.276016" y2="320.847565" gradientTransform="matrix(0.125,0,0,0.125,0,0)">
<stop offset="0" style="stop-color:rgb(8.627451%,47.058824%,94.117647%);stop-opacity:1;"/>
<stop offset="1" style="stop-color:rgb(5.490196%,39.215687%,80.784315%);stop-opacity:1;"/>
</linearGradient>
<filter id="alpha" filterUnits="objectBoundingBox" x="0%" y="0%" width="100%" height="100%">
  <feColorMatrix type="matrix" in="SourceGraphic" values="0 0 0 0 1 0 0 0 0 1 0 0 0 0 1 0 0 0 1 0"/>
</filter>
<mask id="mask0">
  <g filter="url(#alpha)">
<rect x="0" y="0" width="48" height="48" style="fill:rgb(0%,0%,0%);fill-opacity:0.6;stroke:none;"/>
  </g>
</mask>
<linearGradient id="linear1" gradientUnits="userSpaceOnUse" x1="173.893509" y1="92.745766" x2="173.496323" y2="100.881363" >
<stop offset="0" style="stop-color:rgb(100%,100%,100%);stop-opacity:1;"/>
<stop offset="1" style="stop-color:rgb(100%,100%,100%);stop-opacity:0;"/>
</linearGradient>
<clipPath id="clip1">
  <rect x="0" y="0" width="48" height="48"/>
</clipPath>
<g id="surface5" clip-path="url(#clip1)">
<path style="fill:none;stroke-width:7.5;stroke-linecap:butt;stroke-linejoin:miter;stroke:url(#linear1);stroke-miterlimit:4;" d="M 44.0625 67.125 C 38.375 67.125 33.78125 72.1875 33.78125 78.46875 L 33.78125 308.1875 C 33.78125 313 37.28125 316.875 41.65625 316.875 L 339.34375 316.875 C 343.71875 316.875 347.21875 313 347.21875 308.1875 L 347.21875 108.40625 C 347.21875 98.96875 340.3125 91.34375 331.71875 91.34375 L 172.15625 91.34375 C 167.90625 91.34375 166.21875 90.8125 163.53125 88 L 147.5 70.53125 C 147.46875 70.46875 147.40625 70.40625 147.34375 70.34375 L 147.3125 70.3125 C 145.46875 68.34375 142.9375 67.125 140.15625 67.125 Z M 44.0625 67.125 " transform="matrix(0.125,0,0,0.125,0,0)"/>
</g>
</defs>
<g id="surface1">
<path style=" stroke:none;fill-rule:evenodd;fill:rgb(0%,0%,0%);fill-opacity:0.588235;" d="M 6.972656 8.859375 C 6.304688 8.859375 5.769531 9.511719 5.769531 10.320312 L 5.769531 39.898438 C 5.769531 40.515625 6.179688 41.015625 6.6875 41.015625 L 41.414062 41.015625 C 41.921875 41.015625 42.332031 40.515625 42.332031 39.898438 L 42.332031 14.175781 C 42.332031 12.957031 41.523438 11.980469 40.523438 11.980469 L 21.910156 11.980469 C 21.417969 11.980469 21.21875 11.90625 20.902344 11.546875 L 19.035156 9.296875 C 19.03125 9.289062 19.023438 9.28125 19.019531 9.273438 L 19.011719 9.269531 C 18.796875 9.015625 18.503906 8.859375 18.179688 8.859375 Z M 6.972656 8.859375 "/>
<path style=" stroke:none;fill-rule:evenodd;fill:url(#linear0);" d="M 5.257812 7.820312 C 4.527344 7.820312 3.941406 8.472656 3.941406 9.28125 L 3.941406 38.859375 C 3.941406 39.476562 4.390625 39.976562 4.949219 39.976562 L 43.050781 39.976562 C 43.609375 39.976562 44.058594 39.476562 44.058594 38.859375 L 44.058594 13.136719 C 44.058594 11.917969 43.175781 10.941406 42.074219 10.941406 L 21.652344 10.941406 C 21.109375 10.941406 20.894531 10.867188 20.546875 10.507812 L 18.496094 8.257812 C 18.492188 8.25 18.484375 8.242188 18.476562 8.234375 L 18.472656 8.230469 C 18.234375 7.976562 17.914062 7.820312 17.558594 7.820312 Z M 5.257812 7.820312 "/>
<use xlink:href="#surface5" mask="url(#mask0)"/>
<path style=" stroke:none;fill-rule:nonzero;fill:rgb(0%,0%,0%);fill-opacity:0.588235;" d="M 7.414062 10.597656 L 17.703125 10.597656 C 18.195312 10.597656 18.59375 10.996094 18.59375 11.488281 L 18.59375 13.832031 C 18.59375 14.324219 18.195312 14.722656 17.703125 14.722656 L 7.414062 14.722656 C 6.921875 14.722656 6.523438 14.324219 6.523438 13.832031 L 6.523438 11.488281 C 6.523438 10.996094 6.921875 10.597656 7.414062 10.597656 Z M 7.414062 10.597656 "/>
<path style=" stroke:none;fill-rule:nonzero;fill:rgb(100%,100%,100%);fill-opacity:1;" d="M 6.773438 9.878906 L 17.0625 9.878906 C 17.554688 9.878906 17.953125 10.277344 17.953125 10.769531 L 17.953125 13.113281 C 17.953125 13.605469 17.554688 14.003906 17.0625 14.003906 L 6.773438 14.003906 C 6.28125 14.003906 5.882812 13.605469 5.882812 13.113281 L 5.882812 10.769531 C 5.882812 10.277344 6.28125 9.878906 6.773438 9.878906 Z M 6.773438 9.878906 "/>
<path style="fill:none;stroke-width:3.19125;stroke-linecap:butt;stroke-linejoin:miter;stroke:rgb(100%,100%,100%);stroke-opacity:1;stroke-miterlimit:4;" d="M 190.25 252.90625 C 184.5 251.3125 179.8125 247.625 177.1875 242.375 C 176 239.9375 174.46875 233.75 174.875 233.34375 C 174.96875 233.25 177.1875 235.34375 178.4375 236.1875 C 179.6875 237.03125 180.78125 237.8125 180.78125 237.8125 C 180.9375 237.9375 182.8125 239.28125 185.3125 241.15625 C 190.65625 245.09375 192.1875 245.5 195.375 245.53125 C 199.75 245.5625 203.375 243.65625 205.6875 240.125 C 207.78125 236.96875 208.40625 232.9375 207.34375 229.5 C 206.21875 225.78125 204.5625 224.03125 199.03125 220.46875 C 196.9375 219.15625 194.78125 217.90625 194.25 217.59375 C 193.78125 217.34375 190.71875 215.875 189.53125 215.0625 C 188.84375 214.59375 187.9375 214 188.03125 213.96875 C 188.65625 213.625 189.90625 213.625 191.8125 213.03125 L 192.96875 212.65625 L 195.96875 207.96875 C 197.625 205.40625 199.3125 202.6875 199.71875 201.875 C 200.59375 200.1875 201.6875 198.375 201.84375 198.1875 C 201.96875 198.15625 202.15625 199.6875 202.25 200.6875 C 202.65625 205.21875 205.125 211.09375 208.3125 215.09375 C 212.625 220.5625 219.8125 224.6875 226.375 225.46875 C 227.21875 225.5625 228.03125 225.53125 228.03125 225.65625 C 228.03125 225.9375 225.8125 227.46875 225.09375 227.90625 C 224.8125 228.0625 222.46875 229.53125 219.9375 231.3125 L 215.34375 234.5625 L 214.875 236.90625 C 213.46875 244.28125 208.46875 250.09375 201.46875 252.5 C 198.46875 253.53125 193.25 253.71875 190.25 252.90625 Z M 190.25 252.90625 " transform="matrix(0.125,0,0,0.125,0,0)"/>
<path style="fill:none;stroke-width:3.19125;stroke-linecap:butt;stroke-linejoin:miter;stroke:rgb(100%,100%,100%);stroke-opacity:1;stroke-miterlimit:4;" d="M 146 222.8125 C 136.78125 221.1875 130.21875 213.59375 129.1875 204.4375 C 128.0625 194.46875 133.96875 185.65625 143.59375 182.59375 C 146.25 181.75 151.4375 181.6875 154.1875 182.4375 C 157.78125 183.4375 161.1875 185.5625 163.78125 188.28125 C 165.3125 189.875 166.34375 191.75 167.5 193.5625 C 168.78125 195.5625 170 201.71875 169.6875 202.03125 C 169.59375 202.125 167.75 199.9375 166.625 199.0625 C 165.59375 198.25 164.5625 197.34375 164.375 197.25 C 164.21875 197.15625 162.1875 195.625 159.71875 193.90625 C 154.53125 190.3125 152.59375 189.75 149.5 189.75 C 146.125 189.71875 143.375 190.78125 141.09375 192.96875 C 136.53125 197.3125 135.71875 204 139.125 209.25 C 140.15625 210.78125 141.8125 212.40625 143.125 213.09375 C 145 214.09375 157 221.28125 157 221.59375 C 157.03125 221.96875 155.15625 222.59375 152.84375 222.875 C 150.375 223.15625 147.4375 223.0625 146 222.8125 Z M 146 222.8125 " transform="matrix(0.125,0,0,0.125,0,0)"/>
<path style=" stroke:none;fill-rule:nonzero;fill:rgb(100%,100%,100%);fill-opacity:1;" d="M 28.699219 21.367188 C 28.164062 21.363281 27.832031 21.421875 27.398438 21.59375 C 26.203125 22.070312 25.34375 23.230469 25.265625 24.476562 C 25.257812 24.621094 25.253906 24.703125 25.230469 24.773438 C 25.246094 24.769531 25.269531 24.960938 25.28125 25.085938 C 25.332031 25.652344 25.640625 26.386719 26.039062 26.886719 C 26.578125 27.570312 27.476562 28.085938 28.296875 28.183594 C 28.394531 28.195312 28.492188 28.191406 28.503906 28.207031 C 28.570312 28.183594 28.671875 28.171875 28.886719 28.160156 C 29.703125 28.117188 30.464844 27.773438 31.0625 27.179688 C 32.082031 26.167969 32.355469 24.625 31.746094 23.324219 C 31.3125 22.394531 30.503906 21.726562 29.5 21.460938 C 29.21875 21.386719 29.089844 21.371094 28.699219 21.367188 Z M 28.703125 22.359375 C 29.152344 22.359375 29.195312 22.367188 29.460938 22.46875 C 30.046875 22.695312 30.476562 23.085938 30.742188 23.632812 C 30.941406 24.039062 31.007812 24.359375 30.984375 24.804688 C 30.933594 25.789062 30.308594 26.609375 29.382812 26.910156 C 29.035156 27.023438 28.539062 27.050781 28.195312 26.972656 C 27.695312 26.859375 27.171875 26.523438 26.871094 26.121094 C 26.515625 25.648438 26.363281 25.152344 26.390625 24.5625 C 26.433594 23.597656 27.046875 22.769531 27.949219 22.453125 C 28.207031 22.363281 28.269531 22.355469 28.703125 22.359375 Z M 18.6875 23.71875 C 18.265625 23.714844 17.921875 23.847656 17.636719 24.121094 C 17.066406 24.664062 16.964844 25.5 17.390625 26.15625 C 17.519531 26.347656 17.726562 26.550781 17.890625 26.636719 C 18.125 26.761719 19.625 27.660156 19.625 27.699219 C 19.625 27.703125 19.625 27.703125 19.625 27.707031 L 19.640625 27.699219 L 20.058594 27.976562 C 20.292969 28.125 20.789062 28.453125 21.167969 28.707031 L 21.851562 29.164062 L 21.855469 29.179688 C 21.855469 29.171875 21.855469 29.167969 21.859375 29.167969 C 21.871094 29.15625 22.148438 29.417969 22.304688 29.523438 C 22.457031 29.628906 22.597656 29.726562 22.597656 29.726562 C 22.617188 29.742188 22.851562 29.910156 23.164062 30.144531 C 23.832031 30.636719 24.023438 30.6875 24.421875 30.691406 C 24.96875 30.695312 25.421875 30.457031 25.710938 30.015625 C 25.972656 29.621094 26.050781 29.117188 25.917969 28.6875 C 25.777344 28.222656 25.574219 28.003906 24.878906 27.558594 C 24.617188 27.394531 24.347656 27.238281 24.28125 27.199219 C 24.222656 27.167969 23.839844 26.984375 23.691406 26.882812 C 23.609375 26.828125 23.496094 26.753906 23.503906 26.746094 C 23.394531 26.703125 23.0625 26.492188 22.34375 26.015625 L 21.210938 25.257812 L 21.210938 25.253906 C 21.199219 25.265625 20.96875 24.992188 20.828125 24.882812 C 20.699219 24.78125 20.570312 24.671875 20.546875 24.65625 C 20.527344 24.644531 20.273438 24.453125 19.964844 24.238281 C 19.316406 23.789062 19.074219 23.71875 18.6875 23.71875 Z M 21.105469 24.640625 C 21.128906 24.71875 21.148438 24.800781 21.164062 24.875 C 21.148438 24.796875 21.132812 24.71875 21.105469 24.640625 Z M 24.808594 25.496094 C 24.773438 25.558594 24.746094 25.601562 24.703125 25.667969 C 24.742188 25.605469 24.777344 25.550781 24.808594 25.496094 Z M 21.890625 29.472656 C 21.921875 29.679688 21.980469 29.882812 22.058594 30.070312 C 21.992188 29.882812 21.929688 29.65625 21.890625 29.472656 Z M 21.890625 29.472656 "/>
</g>
</svg>
