
<svg xmlns="http://www.w3.org/2000/svg" xmlns:xlink="http://www.w3.org/1999/xlink" width="64px" height="64px" viewBox="0 0 64 64" version="1.1">
<defs>
<linearGradient id="linear0" gradientUnits="userSpaceOnUse" x1="198.300247" y1="66.203491" x2="196.276016" y2="320.847565" gradientTransform="matrix(0.166667,0,0,0.166667,0,0)">
<stop offset="0" style="stop-color:rgb(8.627451%,47.058824%,94.117647%);stop-opacity:1;"/>
<stop offset="1" style="stop-color:rgb(5.490196%,39.215687%,80.784315%);stop-opacity:1;"/>
</linearGradient>
<filter id="alpha" filterUnits="objectBoundingBox" x="0%" y="0%" width="100%" height="100%">
  <feColorMatrix type="matrix" in="SourceGraphic" values="0 0 0 0 1 0 0 0 0 1 0 0 0 0 1 0 0 0 1 0"/>
</filter>
<mask id="mask0">
  <g filter="url(#alpha)">
<rect x="0" y="0" width="64" height="64" style="fill:rgb(0%,0%,0%);fill-opacity:0.6;stroke:none;"/>
  </g>
</mask>
<linearGradient id="linear1" gradientUnits="userSpaceOnUse" x1="173.893509" y1="92.745766" x2="173.496323" y2="100.881363" >
<stop offset="0" style="stop-color:rgb(100%,100%,100%);stop-opacity:1;"/>
<stop offset="1" style="stop-color:rgb(100%,100%,100%);stop-opacity:0;"/>
</linearGradient>
<clipPath id="clip1">
  <rect x="0" y="0" width="64" height="64"/>
</clipPath>
<g id="surface5" clip-path="url(#clip1)">
<path style="fill:none;stroke-width:7.5;stroke-linecap:butt;stroke-linejoin:miter;stroke:url(#linear1);stroke-miterlimit:4;" d="M 44.0625 67.125 C 38.367188 67.125 33.773438 72.1875 33.773438 78.46875 L 33.773438 308.203125 C 33.773438 312.984375 37.289062 316.875 41.648438 316.875 L 339.351562 316.875 C 343.710938 316.875 347.226562 312.984375 347.226562 308.203125 L 347.226562 108.421875 C 347.226562 98.953125 340.3125 91.359375 331.734375 91.359375 L 172.148438 91.359375 C 167.90625 91.359375 166.242188 90.796875 163.523438 87.984375 L 147.515625 70.523438 C 147.445312 70.453125 147.398438 70.40625 147.351562 70.335938 L 147.304688 70.3125 C 145.453125 68.34375 142.945312 67.125 140.15625 67.125 Z M 44.0625 67.125 " transform="matrix(0.166667,0,0,0.166667,0,0)"/>
</g>
</defs>
<g id="surface1">
<path style=" stroke:none;fill-rule:evenodd;fill:rgb(0%,0%,0%);fill-opacity:0.588235;" d="M 9.296875 11.8125 C 8.410156 11.8125 7.695312 12.679688 7.695312 13.761719 L 7.695312 53.195312 C 7.695312 54.023438 8.238281 54.6875 8.917969 54.6875 L 55.214844 54.6875 C 55.894531 54.6875 56.441406 54.023438 56.441406 53.195312 L 56.441406 18.902344 C 56.441406 17.277344 55.367188 15.972656 54.03125 15.972656 L 29.214844 15.972656 C 28.554688 15.972656 28.292969 15.875 27.871094 15.394531 L 25.382812 12.394531 C 25.375 12.386719 25.363281 12.375 25.355469 12.363281 L 25.351562 12.359375 C 25.0625 12.023438 24.671875 11.8125 24.238281 11.8125 Z M 9.296875 11.8125 "/>
<path style=" stroke:none;fill-rule:evenodd;fill:url(#linear0);" d="M 7.011719 10.429688 C 6.039062 10.429688 5.253906 11.296875 5.253906 12.375 L 5.253906 51.8125 C 5.253906 52.636719 5.851562 53.300781 6.597656 53.300781 L 57.402344 53.300781 C 58.148438 53.300781 58.746094 52.636719 58.746094 51.8125 L 58.746094 17.515625 C 58.746094 15.890625 57.566406 14.585938 56.101562 14.585938 L 28.867188 14.585938 C 28.144531 14.585938 27.859375 14.492188 27.394531 14.007812 L 24.664062 11.011719 C 24.65625 11 24.644531 10.988281 24.636719 10.980469 L 24.628906 10.972656 C 24.3125 10.636719 23.886719 10.429688 23.410156 10.429688 Z M 7.011719 10.429688 "/>
<use xlink:href="#surface5" mask="url(#mask0)"/>
<path style=" stroke:none;fill-rule:nonzero;fill:rgb(0%,0%,0%);fill-opacity:0.588235;" d="M 9.886719 14.128906 L 23.605469 14.128906 C 24.261719 14.128906 24.792969 14.664062 24.792969 15.320312 L 24.792969 18.445312 C 24.792969 19.101562 24.261719 19.632812 23.605469 19.632812 L 9.886719 19.632812 C 9.230469 19.632812 8.699219 19.101562 8.699219 18.445312 L 8.699219 15.320312 C 8.699219 14.664062 9.230469 14.128906 9.886719 14.128906 Z M 9.886719 14.128906 "/>
<path style=" stroke:none;fill-rule:nonzero;fill:rgb(100%,100%,100%);fill-opacity:1;" d="M 9.03125 13.171875 L 22.75 13.171875 C 23.40625 13.171875 23.9375 13.703125 23.9375 14.359375 L 23.9375 17.484375 C 23.9375 18.140625 23.40625 18.671875 22.75 18.671875 L 9.03125 18.671875 C 8.375 18.671875 7.839844 18.140625 7.839844 17.484375 L 7.839844 14.359375 C 7.839844 13.703125 8.375 13.171875 9.03125 13.171875 Z M 9.03125 13.171875 "/>
<path style=" stroke:none;fill-rule:nonzero;fill:rgb(100%,100%,100%);fill-opacity:1;" d="M 30.96875 29.765625 C 29.386719 29.769531 28.113281 31.050781 28.117188 32.632812 C 28.121094 33.285156 28.339844 33.882812 28.707031 34.363281 C 29.496094 33.441406 30.667969 32.855469 31.976562 32.851562 C 32.613281 32.847656 33.222656 32.988281 33.769531 33.238281 C 33.8125 33.035156 33.835938 32.828125 33.835938 32.613281 C 33.832031 31.035156 32.550781 29.761719 30.96875 29.765625 Z M 27.238281 31.097656 C 26.414062 31.101562 25.753906 31.769531 25.757812 32.59375 C 25.757812 32.859375 25.828125 33.113281 25.949219 33.328125 C 26.445312 33.046875 27.019531 32.882812 27.628906 32.878906 C 27.691406 32.878906 27.746094 32.878906 27.804688 32.878906 C 27.796875 32.796875 27.792969 32.710938 27.792969 32.628906 C 27.792969 32.167969 27.890625 31.730469 28.0625 31.335938 C 27.828125 31.179688 27.542969 31.09375 27.238281 31.09375 Z M 34.292969 32.101562 C 34.234375 32.105469 34.175781 32.105469 34.113281 32.125 C 34.140625 32.285156 34.160156 32.453125 34.160156 32.621094 C 34.164062 32.886719 34.128906 33.144531 34.066406 33.390625 C 34.789062 33.789062 35.390625 34.382812 35.789062 35.105469 C 36.195312 34.890625 36.652344 34.753906 37.136719 34.71875 C 37.007812 33.257812 35.792969 32.105469 34.292969 32.113281 Z M 31.976562 33.175781 C 29.761719 33.179688 27.980469 34.976562 27.984375 37.1875 C 27.992188 39.402344 29.789062 41.183594 32 41.179688 C 34.214844 41.171875 35.996094 39.378906 35.992188 37.164062 C 35.984375 34.953125 34.1875 33.167969 31.976562 33.175781 Z M 27.632812 33.207031 C 25.914062 33.214844 24.53125 34.605469 24.535156 36.324219 C 24.539062 37.332031 25.023438 38.226562 25.769531 38.789062 C 26.082031 38.183594 26.714844 37.769531 27.445312 37.765625 C 27.53125 37.765625 27.617188 37.785156 27.703125 37.789062 C 27.675781 37.59375 27.660156 37.394531 27.660156 37.195312 C 27.660156 36.230469 27.96875 35.339844 28.5 34.617188 C 28.179688 34.21875 27.949219 33.742188 27.851562 33.21875 C 27.777344 33.21875 27.703125 33.199219 27.632812 33.199219 Z M 37.367188 35.027344 C 36.847656 35.03125 36.359375 35.164062 35.929688 35.390625 C 36.175781 35.933594 36.3125 36.535156 36.316406 37.167969 C 36.320312 38.351562 35.847656 39.429688 35.074219 40.214844 C 35.644531 40.84375 36.46875 41.234375 37.386719 41.234375 C 39.105469 41.226562 40.488281 39.835938 40.484375 38.117188 C 40.480469 36.402344 39.085938 35.023438 37.367188 35.027344 Z M 24.230469 35.476562 C 22.648438 35.480469 21.371094 36.757812 21.375 38.339844 C 21.378906 39.917969 22.667969 41.199219 24.246094 41.195312 C 24.851562 41.191406 25.40625 41.003906 25.867188 40.683594 C 25.675781 40.390625 25.5625 40.035156 25.5625 39.660156 C 25.558594 39.464844 25.589844 39.277344 25.644531 39.097656 C 24.777344 38.476562 24.214844 37.464844 24.210938 36.324219 C 24.210938 36.03125 24.246094 35.75 24.316406 35.480469 C 24.285156 35.480469 24.257812 35.480469 24.230469 35.484375 Z M 41.050781 37.882812 C 40.964844 37.882812 40.882812 37.902344 40.804688 37.902344 C 40.808594 37.976562 40.808594 38.042969 40.808594 38.117188 C 40.8125 39.027344 40.457031 39.855469 39.875 40.472656 C 40.164062 40.804688 40.585938 41.015625 41.058594 41.015625 C 41.925781 41.011719 42.628906 40.3125 42.625 39.445312 C 42.621094 38.578125 41.917969 37.878906 41.050781 37.882812 Z M 27.445312 38.089844 C 26.578125 38.09375 25.882812 38.792969 25.886719 39.660156 C 25.886719 40.527344 26.585938 41.226562 27.453125 41.222656 C 28.117188 41.222656 28.679688 40.804688 28.910156 40.222656 C 28.347656 39.65625 27.945312 38.929688 27.765625 38.125 C 27.660156 38.101562 27.554688 38.089844 27.445312 38.089844 Z M 27.445312 38.089844 "/>
</g>
</svg>
