
<svg xmlns="http://www.w3.org/2000/svg" xmlns:xlink="http://www.w3.org/1999/xlink" width="32px" height="32px" viewBox="0 0 32 32" version="1.1">
<defs>
<linearGradient id="linear0" gradientUnits="userSpaceOnUse" x1="198.300247" y1="66.203491" x2="196.276016" y2="320.847565" gradientTransform="matrix(0.0833333,0,0,0.0833333,0,0)">
<stop offset="0" style="stop-color:rgb(8.627451%,47.058824%,94.117647%);stop-opacity:1;"/>
<stop offset="1" style="stop-color:rgb(5.490196%,39.215687%,80.784315%);stop-opacity:1;"/>
</linearGradient>
<filter id="alpha" filterUnits="objectBoundingBox" x="0%" y="0%" width="100%" height="100%">
  <feColorMatrix type="matrix" in="SourceGraphic" values="0 0 0 0 1 0 0 0 0 1 0 0 0 0 1 0 0 0 1 0"/>
</filter>
<mask id="mask0">
  <g filter="url(#alpha)">
<rect x="0" y="0" width="32" height="32" style="fill:rgb(0%,0%,0%);fill-opacity:0.6;stroke:none;"/>
  </g>
</mask>
<linearGradient id="linear1" gradientUnits="userSpaceOnUse" x1="173.893509" y1="92.745766" x2="173.496323" y2="100.881363" >
<stop offset="0" style="stop-color:rgb(100%,100%,100%);stop-opacity:1;"/>
<stop offset="1" style="stop-color:rgb(100%,100%,100%);stop-opacity:0;"/>
</linearGradient>
<clipPath id="clip1">
  <rect x="0" y="0" width="32" height="32"/>
</clipPath>
<g id="surface5" clip-path="url(#clip1)">
<path style="fill:none;stroke-width:7.5;stroke-linecap:butt;stroke-linejoin:miter;stroke:url(#linear1);stroke-miterlimit:4;" d="M 44.0625 67.125 C 38.34375 67.125 33.75 72.1875 33.75 78.46875 L 33.75 308.203125 C 33.75 312.984375 37.265625 316.875 41.625 316.875 L 339.375 316.875 C 343.734375 316.875 347.25 312.984375 347.25 308.203125 L 347.25 108.421875 C 347.25 98.953125 340.3125 91.359375 331.734375 91.359375 L 172.125 91.359375 C 167.90625 91.359375 166.21875 90.796875 163.5 87.984375 L 147.515625 70.546875 C 147.46875 70.453125 147.421875 70.40625 147.328125 70.359375 L 147.328125 70.3125 C 145.453125 68.34375 142.96875 67.125 140.15625 67.125 Z M 44.0625 67.125 " transform="matrix(0.0833333,0,0,0.0833333,0,0)"/>
</g>
</defs>
<g id="surface1">
<path style=" stroke:none;fill-rule:evenodd;fill:rgb(0%,0%,0%);fill-opacity:0.588235;" d="M 4.648438 5.90625 C 4.203125 5.90625 3.847656 6.339844 3.847656 6.878906 L 3.847656 26.597656 C 3.847656 27.011719 4.121094 27.34375 4.460938 27.34375 L 27.609375 27.34375 C 27.949219 27.34375 28.222656 27.011719 28.222656 26.597656 L 28.222656 9.449219 C 28.222656 8.640625 27.683594 7.984375 27.015625 7.984375 L 14.605469 7.984375 C 14.277344 7.984375 14.148438 7.9375 13.9375 7.699219 L 12.691406 6.199219 C 12.6875 6.191406 12.683594 6.1875 12.679688 6.183594 L 12.675781 6.179688 C 12.53125 6.011719 12.335938 5.90625 12.121094 5.90625 Z M 4.648438 5.90625 "/>
<path style=" stroke:none;fill-rule:evenodd;fill:url(#linear0);" d="M 3.503906 5.214844 C 3.019531 5.214844 2.625 5.648438 2.625 6.1875 L 2.625 25.90625 C 2.625 26.316406 2.925781 26.648438 3.296875 26.648438 L 28.703125 26.648438 C 29.074219 26.648438 29.375 26.316406 29.375 25.90625 L 29.375 8.757812 C 29.375 7.945312 28.785156 7.292969 28.050781 7.292969 L 14.433594 7.292969 C 14.074219 7.292969 13.929688 7.246094 13.699219 7.003906 L 12.332031 5.503906 C 12.328125 5.5 12.324219 5.496094 12.316406 5.488281 C 12.15625 5.316406 11.941406 5.214844 11.703125 5.214844 Z M 3.503906 5.214844 "/>
<use xlink:href="#surface5" mask="url(#mask0)"/>
<path style=" stroke:none;fill-rule:nonzero;fill:rgb(0%,0%,0%);fill-opacity:0.588235;" d="M 4.941406 7.066406 L 11.800781 7.066406 C 12.128906 7.066406 12.398438 7.332031 12.398438 7.660156 L 12.398438 9.222656 C 12.398438 9.550781 12.128906 9.816406 11.800781 9.816406 L 4.941406 9.816406 C 4.613281 9.816406 4.347656 9.550781 4.347656 9.222656 L 4.347656 7.660156 C 4.347656 7.332031 4.613281 7.066406 4.941406 7.066406 Z M 4.941406 7.066406 "/>
<path style=" stroke:none;fill-rule:nonzero;fill:rgb(100%,100%,100%);fill-opacity:1;" d="M 4.515625 6.585938 L 11.375 6.585938 C 11.703125 6.585938 11.96875 6.851562 11.96875 7.179688 L 11.96875 8.742188 C 11.96875 9.070312 11.703125 9.335938 11.375 9.335938 L 4.515625 9.335938 C 4.1875 9.335938 3.921875 9.070312 3.921875 8.742188 L 3.921875 7.179688 C 3.921875 6.851562 4.1875 6.585938 4.515625 6.585938 Z M 4.515625 6.585938 "/>
<path style=" stroke:none;fill-rule:nonzero;fill:rgb(100%,100%,100%);fill-opacity:1;" d="M 20.503906 21.019531 L 18.640625 18.890625 C 19.164062 18.230469 19.457031 17.472656 19.511719 16.617188 C 19.546875 16.0625 19.476562 15.527344 19.292969 15.007812 C 19.109375 14.488281 18.847656 14.03125 18.507812 13.640625 C 18.164062 13.25 17.746094 12.929688 17.253906 12.683594 C 16.761719 12.433594 16.238281 12.292969 15.683594 12.257812 C 15.128906 12.21875 14.59375 12.292969 14.070312 12.476562 C 13.550781 12.65625 13.097656 12.917969 12.707031 13.261719 C 12.316406 13.605469 11.996094 14.023438 11.75 14.515625 C 11.5 15.007812 11.359375 15.53125 11.320312 16.085938 C 11.285156 16.640625 11.359375 17.175781 11.539062 17.695312 C 11.722656 18.214844 11.984375 18.671875 12.328125 19.0625 C 12.671875 19.453125 13.085938 19.773438 13.578125 20.019531 C 14.070312 20.269531 14.59375 20.410156 15.148438 20.445312 C 16.003906 20.503906 16.792969 20.3125 17.519531 19.875 L 19.382812 21.996094 C 19.511719 22.152344 19.683594 22.238281 19.890625 22.25 C 20.09375 22.265625 20.273438 22.203125 20.429688 22.066406 C 20.585938 21.925781 20.671875 21.757812 20.6875 21.554688 C 20.699219 21.351562 20.640625 21.171875 20.503906 21.019531 Z M 17.136719 18.3125 C 16.59375 18.789062 15.964844 19.003906 15.246094 18.957031 C 14.527344 18.910156 13.933594 18.617188 13.457031 18.070312 C 12.980469 17.527344 12.765625 16.898438 12.8125 16.179688 C 12.859375 15.464844 13.152344 14.867188 13.695312 14.390625 C 14.238281 13.914062 14.871094 13.699219 15.585938 13.746094 C 16.304688 13.792969 16.902344 14.085938 17.378906 14.628906 C 17.855469 15.171875 18.070312 15.804688 18.023438 16.519531 C 17.976562 17.238281 17.679688 17.835938 17.136719 18.3125 Z M 17.136719 18.3125 "/>
</g>
</svg>
