<?xml version="1.0" encoding="UTF-8" standalone="no"?>
<svg
   xmlns:dc="http://purl.org/dc/elements/1.1/"
   xmlns:cc="http://creativecommons.org/ns#"
   xmlns:rdf="http://www.w3.org/1999/02/22-rdf-syntax-ns#"
   xmlns:svg="http://www.w3.org/2000/svg"
   xmlns="http://www.w3.org/2000/svg"
   xmlns:xlink="http://www.w3.org/1999/xlink"
   xmlns:sodipodi="http://sodipodi.sourceforge.net/DTD/sodipodi-0.dtd"
   xmlns:inkscape="http://www.inkscape.org/namespaces/inkscape"
   width="512"
   height="512"
   version="1.1"
   viewBox="0 0 384 384"
   id="svg79"
   sodipodi:docname="multimedia-audio-player.svg"
   inkscape:version="0.92.4 5da689c313, 2019-01-14">
  <metadata
     id="metadata83">
    <rdf:RDF>
      <cc:Work
         rdf:about="">
        <dc:format>image/svg+xml</dc:format>
        <dc:type
           rdf:resource="http://purl.org/dc/dcmitype/StillImage" />
      </cc:Work>
    </rdf:RDF>
  </metadata>
  <sodipodi:namedview
     pagecolor="#ffffff"
     bordercolor="#666666"
     borderopacity="1"
     objecttolerance="10"
     gridtolerance="10"
     guidetolerance="10"
     inkscape:pageopacity="0"
     inkscape:pageshadow="2"
     inkscape:window-width="1366"
     inkscape:window-height="710"
     id="namedview81"
     showgrid="false"
     inkscape:zoom="0.65537891"
     inkscape:cx="237.2673"
     inkscape:cy="354.15258"
     inkscape:window-x="0"
     inkscape:window-y="25"
     inkscape:window-maximized="1"
     inkscape:current-layer="g77" />
  <defs
     id="defs5">
    <linearGradient
       inkscape:collect="always"
       id="linearGradient932">
      <stop
         style="stop-color:#000000;stop-opacity:1;"
         offset="0"
         id="stop928" />
      <stop
         style="stop-color:#000000;stop-opacity:0;"
         offset="1"
         id="stop930" />
    </linearGradient>
    <linearGradient
       inkscape:collect="always"
       id="linearGradient875">
      <stop
         style="stop-color:#ffffff;stop-opacity:1;"
         offset="0"
         id="stop871" />
      <stop
         style="stop-color:#ffffff;stop-opacity:0;"
         offset="1"
         id="stop873" />
    </linearGradient>
    <linearGradient
       id="linearGradient835"
       inkscape:collect="always">
      <stop
         id="stop831"
         offset="0"
         style="stop-color:#f0f0f0;stop-opacity:1" />
      <stop
         id="stop833"
         offset="1"
         style="stop-color:#dcdcdc;stop-opacity:1" />
    </linearGradient>
    <linearGradient
       inkscape:collect="always"
       id="linearGradient894">
      <stop
         style="stop-color:#ff2577;stop-opacity:1"
         offset="0"
         id="stop890" />
      <stop
         style="stop-color:#742fff;stop-opacity:1"
         offset="1"
         id="stop892" />
    </linearGradient>
    <clipPath
       id="f">
      <rect
         width="384"
         height="384"
         id="rect2" />
    </clipPath>
    <linearGradient
       inkscape:collect="always"
       xlink:href="#linearGradient894"
       id="linearGradient829"
       x1="209.48517"
       y1="101.73524"
       x2="113.29597"
       y2="269.62015"
       gradientUnits="userSpaceOnUse" />
    <linearGradient
       inkscape:collect="always"
       xlink:href="#linearGradient835"
       id="linearGradient845"
       x1="72.370956"
       y1="4.1436791"
       x2="70.340088"
       y2="125.31866"
       gradientUnits="userSpaceOnUse"
       gradientTransform="matrix(2.317012,0,0,2.317012,-2.9256071,45.937127)" />
    <linearGradient
       inkscape:collect="always"
       xlink:href="#linearGradient875"
       id="linearGradient877"
       x1="162.53477"
       y1="55.987164"
       x2="163.14429"
       y2="98.389732"
       gradientUnits="userSpaceOnUse" />
    <linearGradient
       inkscape:collect="always"
       xlink:href="#linearGradient932"
       id="linearGradient934"
       x1="170.01042"
       y1="340.12094"
       x2="167.90974"
       y2="272.09396"
       gradientUnits="userSpaceOnUse" />
  </defs>
  <g
     id="g77"
     transform="matrix(1.2017919,0,0,1.2017919,-3.1782153,-38.742543)"
     style="fill-rule:evenodd">
    <circle
       style="opacity:1;fill:none;fill-opacity:1;fill-rule:nonzero;stroke:url(#linearGradient934);stroke-width:6.11066675;stroke-linejoin:round;stroke-miterlimit:4;stroke-dasharray:none;stroke-opacity:0.58823532;paint-order:fill markers stroke"
       id="path837-6-5"
       cx="162.40601"
       cy="198.23944"
       r="143.60068" />
    <circle
       style="opacity:1;fill:url(#linearGradient845);fill-opacity:1;fill-rule:nonzero;stroke:none;stroke-width:14.45973301;stroke-linejoin:round;stroke-miterlimit:4;stroke-dasharray:none;stroke-opacity:1;paint-order:fill markers stroke"
       id="path837"
       cx="162.40601"
       cy="191.99875"
       r="146.65601" />
    <path
       d="m 163.14429,108.32403 -0.53292,60.80584 -0.52777,60.80055 -4.4756,-1.45399 c -1.69704,-0.54845 -4.76025,-1.23144 -7.82319,-1.77996 -2.39562,-0.59502 -4.85337,-0.9003 -7.32131,-0.91582 -16.82075,0 -30.45988,13.39541 -30.45988,29.9168 0.005,16.5214 13.63913,29.91151 30.45988,29.91151 0.77612,0 1.5471,-0.031 2.32317,-0.0931 7.67325,-0.34666 19.34538,-4.80674 23.12307,-13.42189 3.2648,-4.86887 5.00331,-10.57076 5.01377,-16.39689 -0.005,-0.58985 -0.0258,-1.17453 -0.0621,-1.76433 l 1.29352,-44.65798 c 0,-30.12873 0.80199,-54.15251 1.82646,-54.78301 2.39045,-1.47981 17.46846,15.69884 22.75616,25.92719 2.913,5.62943 4.52222,13.659 5.4069,27.03453 1.17971,17.73206 1.43836,18.61687 3.80815,13.01287 4.53256,-10.69486 5.96058,-23.4807 3.99438,-35.70651 -2.36462,-14.66832 -6.89188,-23.7178 -18.8235,-37.60065 -10.44134,-12.15402 -14.54911,-19.17982 -18.02082,-30.82678 -1.91957,-6.4418 -3.32176,-8.00956 -7.17137,-8.00956 z"
       id="path69"
       inkscape:connector-curvature="0"
       style="opacity:1;stroke-width:1.32457292;fill:#ffffff;fill-opacity:1" />
    <path
       d="m 163.14429,98.389734 -0.53292,60.805846 -0.52777,60.80054 -4.4756,-1.45398 c -1.69704,-0.54845 -4.76025,-1.23144 -7.82319,-1.77996 -2.39562,-0.59503 -4.85337,-0.9003 -7.32131,-0.91583 -16.82075,0 -30.45988,13.39541 -30.45988,29.91681 0.005,16.5214 13.63913,29.9115 30.45988,29.9115 0.77612,0 1.5471,-0.031 2.32317,-0.0931 7.67325,-0.34667 19.34538,-4.80675 23.12307,-13.4219 3.2648,-4.86887 5.00331,-10.57076 5.01377,-16.39689 -0.005,-0.58985 -0.0258,-1.17452 -0.0621,-1.76433 l 1.29352,-44.65798 c 0,-30.12873 0.80199,-54.15251 1.82646,-54.78301 2.39045,-1.47981 17.46846,15.69884 22.75616,25.92719 2.913,5.62944 4.52222,13.659 5.4069,27.03454 1.17971,17.73205 1.43836,18.61687 3.80815,13.01287 4.53256,-10.69487 5.96058,-23.48071 3.99438,-35.70652 -2.36462,-14.66832 -6.89188,-23.7178 -18.8235,-37.60065 -10.44134,-12.15401 -14.54911,-19.17981 -18.02082,-30.82678 -1.91957,-6.441797 -3.32176,-8.009561 -7.17137,-8.009561 z"
       id="path71"
       inkscape:connector-curvature="0"
       style="fill:url(#linearGradient829);stroke-width:1.32457292;fill-opacity:1" />
    <circle
       style="opacity:1;fill:none;fill-opacity:1;fill-rule:nonzero;stroke:url(#linearGradient877);stroke-width:6.11066675;stroke-linejoin:round;stroke-miterlimit:4;stroke-dasharray:none;stroke-opacity:1;paint-order:fill markers stroke"
       id="path837-6"
       cx="162.40601"
       cy="191.99875"
       r="143.60068" />
  </g>
</svg>
