
<svg xmlns="http://www.w3.org/2000/svg" xmlns:xlink="http://www.w3.org/1999/xlink" width="32px" height="32px" viewBox="0 0 32 32" version="1.1">
<defs>
<linearGradient id="linear0" gradientUnits="userSpaceOnUse" x1="198.300247" y1="66.203491" x2="196.276016" y2="320.847565" gradientTransform="matrix(0.0833333,0,0,0.0833333,0,-0.000000283579)">
<stop offset="0" style="stop-color:rgb(8.627451%,47.058824%,94.117647%);stop-opacity:1;"/>
<stop offset="1" style="stop-color:rgb(5.490196%,39.215687%,80.784315%);stop-opacity:1;"/>
</linearGradient>
<filter id="alpha" filterUnits="objectBoundingBox" x="0%" y="0%" width="100%" height="100%">
  <feColorMatrix type="matrix" in="SourceGraphic" values="0 0 0 0 1 0 0 0 0 1 0 0 0 0 1 0 0 0 1 0"/>
</filter>
<mask id="mask0">
  <g filter="url(#alpha)">
<rect x="0" y="0" width="32" height="32" style="fill:rgb(0%,0%,0%);fill-opacity:0.6;stroke:none;"/>
  </g>
</mask>
<linearGradient id="linear1" gradientUnits="userSpaceOnUse" x1="173.893509" y1="92.745766" x2="173.496323" y2="100.881363" gradientTransform="matrix(1,0,0,1,0,-0.00000359323)">
<stop offset="0" style="stop-color:rgb(100%,100%,100%);stop-opacity:1;"/>
<stop offset="1" style="stop-color:rgb(100%,100%,100%);stop-opacity:0;"/>
</linearGradient>
<clipPath id="clip1">
  <rect x="0" y="0" width="32" height="32"/>
</clipPath>
<g id="surface5" clip-path="url(#clip1)">
<path style="fill:none;stroke-width:7.5;stroke-linecap:butt;stroke-linejoin:miter;stroke:url(#linear1);stroke-miterlimit:4;" d="M 44.0625 183.984375 C 38.34375 183.984375 33.75 186.703125 33.75 190.078125 L 33.75 313.546875 C 33.75 316.125 37.265625 318.234375 41.625 318.234375 L 339.375 318.234375 C 343.734375 318.234375 347.25 316.125 347.25 313.546875 L 347.25 206.15625 C 347.25 201.09375 340.3125 197.015625 331.734375 197.015625 L 172.125 197.015625 C 167.90625 197.015625 166.21875 196.6875 163.5 195.1875 L 147.515625 185.8125 C 147.46875 185.765625 147.421875 185.71875 147.328125 185.71875 L 147.328125 185.671875 C 145.453125 184.640625 142.96875 183.984375 140.15625 183.984375 Z M 44.0625 183.984375 " transform="matrix(0.0833333,0,0,0.0833333,0,0)"/>
</g>
</defs>
<g id="surface1">
<path style=" stroke:none;fill-rule:evenodd;fill:rgb(0%,0%,0%);fill-opacity:0.588235;" d="M 4.648438 5.90625 C 4.203125 5.90625 3.847656 6.339844 3.847656 6.878906 L 3.847656 26.597656 C 3.847656 27.011719 4.121094 27.34375 4.460938 27.34375 L 27.609375 27.34375 C 27.949219 27.34375 28.222656 27.011719 28.222656 26.597656 L 28.222656 9.449219 C 28.222656 8.640625 27.683594 7.984375 27.015625 7.984375 L 14.605469 7.984375 C 14.277344 7.984375 14.148438 7.9375 13.9375 7.699219 L 12.691406 6.199219 C 12.6875 6.191406 12.683594 6.1875 12.679688 6.183594 L 12.675781 6.179688 C 12.53125 6.011719 12.335938 5.90625 12.121094 5.90625 Z M 4.648438 5.90625 "/>
<path style=" stroke:none;fill-rule:nonzero;fill:rgb(100%,78.039217%,18.039216%);fill-opacity:1;" d="M 3.503906 15.128906 C 3.535156 15.226562 3.597656 15.320312 3.695312 15.382812 L 18.972656 25.539062 C 19.191406 25.683594 19.484375 25.625 19.632812 25.410156 L 25.113281 14.460938 C 25.261719 14.246094 25.207031 13.957031 24.988281 13.8125 L 12.648438 2.269531 C 12.429688 2.125 12.136719 2.183594 11.992188 2.398438 L 3.566406 14.734375 C 3.484375 14.851562 3.46875 15 3.503906 15.128906 Z M 3.503906 15.128906 "/>
<path style=" stroke:none;fill-rule:nonzero;fill:rgb(100%,100%,100%);fill-opacity:1;" d="M 22.011719 4.347656 C 21.910156 4.332031 21.800781 4.351562 21.703125 4.410156 L 5.996094 13.894531 C 5.773438 14.027344 5.699219 14.320312 5.832031 14.542969 L 13.390625 24.175781 C 13.523438 24.398438 13.808594 24.472656 14.03125 24.335938 L 29.738281 18.105469 C 29.960938 17.96875 30.035156 17.679688 29.902344 17.453125 L 22.34375 4.574219 C 22.269531 4.445312 22.144531 4.367188 22.011719 4.347656 Z M 22.011719 4.347656 "/>
<path style=" stroke:none;fill-rule:evenodd;fill:url(#linear0);" d="M 3.503906 12.484375 C 3.019531 12.484375 2.625 12.769531 2.625 13.125 L 2.625 26.160156 C 2.625 26.429688 2.925781 26.648438 3.296875 26.648438 L 28.703125 26.648438 C 29.074219 26.648438 29.375 26.429688 29.375 26.160156 L 29.375 14.824219 C 29.375 14.289062 28.785156 13.855469 28.050781 13.855469 L 14.433594 13.855469 C 14.074219 13.855469 13.929688 13.824219 13.699219 13.667969 L 12.332031 12.675781 C 12.328125 12.671875 12.324219 12.667969 12.316406 12.664062 C 12.15625 12.550781 11.941406 12.484375 11.703125 12.484375 Z M 3.503906 12.484375 "/>
<use xlink:href="#surface5" mask="url(#mask0)"/>
<path style=" stroke:none;fill-rule:nonzero;fill:rgb(0%,0%,0%);fill-opacity:0.588235;" d="M 4.941406 13.621094 L 11.800781 13.621094 C 12.128906 13.621094 12.398438 13.886719 12.398438 14.214844 L 12.398438 14.507812 C 12.398438 14.835938 12.128906 15.101562 11.800781 15.101562 L 4.941406 15.101562 C 4.613281 15.101562 4.347656 14.835938 4.347656 14.507812 L 4.347656 14.214844 C 4.347656 13.886719 4.613281 13.621094 4.941406 13.621094 Z M 4.941406 13.621094 "/>
<path style=" stroke:none;fill-rule:nonzero;fill:rgb(100%,100%,100%);fill-opacity:1;" d="M 4.515625 13.363281 L 11.375 13.363281 C 11.703125 13.363281 11.96875 13.628906 11.96875 13.957031 L 11.96875 14.25 C 11.96875 14.578125 11.703125 14.84375 11.375 14.84375 L 4.515625 14.84375 C 4.1875 14.84375 3.921875 14.578125 3.921875 14.25 L 3.921875 13.957031 C 3.921875 13.628906 4.1875 13.363281 4.515625 13.363281 Z M 4.515625 13.363281 "/>
</g>
</svg>
