
<svg xmlns="http://www.w3.org/2000/svg" xmlns:xlink="http://www.w3.org/1999/xlink" width="24px" height="24px" viewBox="0 0 24 24" version="1.1">
<defs>
<filter id="alpha" filterUnits="objectBoundingBox" x="0%" y="0%" width="100%" height="100%">
  <feColorMatrix type="matrix" in="SourceGraphic" values="0 0 0 0 1 0 0 0 0 1 0 0 0 0 1 0 0 0 1 0"/>
</filter>
<mask id="mask0">
  <g filter="url(#alpha)">
<rect x="0" y="0" width="24" height="24" style="fill:rgb(0%,0%,0%);fill-opacity:0.9;stroke:none;"/>
  </g>
</mask>
<linearGradient id="linear0" gradientUnits="userSpaceOnUse" x1="17.426399" y1="136" x2="238.573593" y2="136" gradientTransform="matrix(0.00954861,0,0,0.0100446,-0.0972222,-0.241071)">
<stop offset="0" style="stop-color:rgb(83.92157%,83.92157%,83.92157%);stop-opacity:1;"/>
<stop offset="1" style="stop-color:rgb(91.764706%,91.764706%,91.764706%);stop-opacity:1;"/>
</linearGradient>
<clipPath id="clip1">
  <rect x="0" y="0" width="24" height="24"/>
</clipPath>
<g id="surface5" clip-path="url(#clip1)">
<path style=" stroke:none;fill-rule:evenodd;fill:url(#linear0);" d="M 3.898438 21.152344 C 3.984375 22.183594 4.816406 23.015625 5.753906 23.015625 L 18.246094 23.015625 C 19.179688 23.015625 20.015625 22.179688 20.101562 21.152344 L 21.585938 3.457031 C 22.261719 3.457031 22.785156 2.796875 22.785156 2.109375 C 22.785156 1.414062 22.214844 0.984375 21.585938 0.984375 L 2.414062 0.984375 C 1.789062 0.984375 1.214844 1.417969 1.214844 2.109375 C 1.214844 2.800781 1.785156 3.457031 2.414062 3.457031 Z M 3.898438 21.152344 "/>
</g>
<mask id="mask1">
  <g filter="url(#alpha)">
<rect x="0" y="0" width="24" height="24" style="fill:rgb(0%,0%,0%);fill-opacity:0.8;stroke:none;"/>
  </g>
</mask>
<linearGradient id="linear1" gradientUnits="userSpaceOnUse" x1="130.78624" y1="46.669899" x2="130.750259" y2="66.303192" >
<stop offset="0" style="stop-color:rgb(100%,100%,100%);stop-opacity:1;"/>
<stop offset="1" style="stop-color:rgb(100%,100%,100%);stop-opacity:0;"/>
</linearGradient>
<clipPath id="clip2">
  <rect x="0" y="0" width="24" height="24"/>
</clipPath>
<g id="surface8" clip-path="url(#clip2)">
<path style="fill:none;stroke-width:4.148185;stroke-linecap:round;stroke-linejoin:round;stroke:url(#linear1);stroke-miterlimit:4;" d="M 55.200231 214.941474 C 55.972456 223.724662 63.448998 230.839725 71.873271 230.839725 L 184.126709 230.839725 C 192.515881 230.839725 200.027525 223.724662 200.79975 214.941474 L 214.138182 64.061283 C 220.210679 64.061283 224.914231 58.444128 224.914231 52.554626 C 224.914231 46.665124 219.789465 42.98844 214.138182 42.98844 L 41.861799 42.98844 C 36.245617 42.98844 31.08575 46.699167 31.08575 52.554626 C 31.08575 58.478171 36.210516 64.061283 41.861799 64.061283 Z M 55.200231 214.941474 " transform="matrix(0.111286,0,0,0.114743,-2.244552,-3.709982)"/>
</g>
<mask id="mask2">
  <g filter="url(#alpha)">
<rect x="0" y="0" width="24" height="24" style="fill:rgb(0%,0%,0%);fill-opacity:0.4;stroke:none;"/>
  </g>
</mask>
<linearGradient id="linear2" gradientUnits="userSpaceOnUse" x1="124.486107" y1="231.858475" x2="124.729118" y2="211.177521" >
<stop offset="0" style="stop-color:rgb(0%,0%,0%);stop-opacity:1;"/>
<stop offset="1" style="stop-color:rgb(0%,0%,0%);stop-opacity:0;"/>
</linearGradient>
<clipPath id="clip3">
  <rect x="0" y="0" width="24" height="24"/>
</clipPath>
<g id="surface11" clip-path="url(#clip3)">
<path style="fill:none;stroke-width:4.148185;stroke-linecap:round;stroke-linejoin:round;stroke:url(#linear2);stroke-miterlimit:4;" d="M 55.200231 214.941474 C 55.972456 223.724662 63.448998 230.839725 71.873271 230.839725 L 184.126709 230.839725 C 192.515881 230.839725 200.027525 223.724662 200.79975 214.941474 L 214.138182 64.061283 C 220.210679 64.061283 224.914231 58.444128 224.914231 52.554626 C 224.914231 46.665124 219.789465 42.98844 214.138182 42.98844 L 41.861799 42.98844 C 36.245617 42.98844 31.08575 46.699167 31.08575 52.554626 C 31.08575 58.478171 36.210516 64.061283 41.861799 64.061283 Z M 55.200231 214.941474 " transform="matrix(0.111286,0,0,0.114743,-2.244552,-3.709982)"/>
</g>
</defs>
<g id="surface1">
<use xlink:href="#surface5" mask="url(#mask0)"/>
<path style=" stroke:none;fill-rule:evenodd;fill:rgb(100%,100%,100%);fill-opacity:1;" d="M 11.960938 9.902344 C 10.816406 7.316406 9.617188 9.398438 9.617188 9.398438 L 8.707031 11.167969 L 10.582031 12.371094 Z M 16.011719 9.109375 L 15 9.738281 L 14.632812 9.019531 C 14.632812 9.019531 14.34375 8.273438 12.933594 8.351562 C 12.933594 8.351562 11.1875 8.40625 11.003906 8.367188 C 11.003906 8.367188 11.5 8.476562 11.746094 8.898438 L 12.863281 11.066406 L 12.046875 11.570312 L 14.785156 11.636719 Z M 9.300781 15.363281 C 7.886719 17.773438 10.128906 17.820312 10.128906 17.820312 L 11.980469 17.753906 L 11.941406 15.371094 Z M 6.582031 11.972656 L 7.59375 12.59375 L 7.226562 13.3125 C 7.226562 13.3125 6.796875 13.972656 7.589844 15.25 C 7.589844 15.25 8.542969 16.863281 8.605469 17.054688 C 8.605469 17.054688 8.433594 16.535156 8.632812 16.082031 L 9.738281 13.910156 L 10.558594 14.410156 L 9.183594 11.808594 Z M 15.121094 15 C 17.730469 15.179688 16.671875 13.007812 16.671875 13.007812 L 15.71875 11.269531 L 13.84375 12.46875 Z M 12.355469 16.84375 L 13.753906 14.261719 L 13.753906 15.292969 L 16.023438 15.292969 C 16.480469 15.261719 16.808594 14.84375 16.808594 14.84375 C 16.6875 14.996094 15.867188 16.695312 15.867188 16.695312 C 15.238281 18.082031 14.503906 17.988281 14.503906 17.988281 L 13.753906 17.988281 L 13.753906 19.261719 Z M 12.355469 16.84375 "/>
<path style=" stroke:none;fill-rule:evenodd;fill:rgb(0%,49.019608%,79.607844%);fill-opacity:1;" d="M 11.960938 9.671875 C 10.816406 7.085938 9.617188 9.167969 9.617188 9.167969 L 8.707031 10.941406 L 10.582031 12.140625 Z M 16.011719 8.878906 L 15 9.507812 L 14.632812 8.789062 C 14.632812 8.789062 14.34375 8.042969 12.933594 8.121094 C 12.933594 8.121094 11.1875 8.175781 11.003906 8.136719 C 11.003906 8.136719 11.5 8.246094 11.746094 8.667969 L 12.863281 10.835938 L 12.046875 11.339844 L 14.785156 11.40625 Z M 9.300781 15.132812 C 7.886719 17.542969 10.128906 17.589844 10.128906 17.589844 L 11.980469 17.523438 L 11.941406 15.140625 Z M 6.582031 11.742188 L 7.59375 12.363281 L 7.226562 13.082031 C 7.226562 13.082031 6.796875 13.742188 7.589844 15.023438 C 7.589844 15.023438 8.542969 16.636719 8.605469 16.824219 C 8.605469 16.824219 8.433594 16.304688 8.632812 15.855469 L 9.738281 13.679688 L 10.558594 14.179688 L 9.183594 11.582031 Z M 15.121094 14.769531 C 17.730469 14.953125 16.671875 12.78125 16.671875 12.78125 L 15.71875 11.039062 L 13.84375 12.238281 Z M 12.355469 16.617188 L 13.753906 14.03125 L 13.753906 15.0625 L 16.023438 15.0625 C 16.480469 15.035156 16.808594 14.613281 16.808594 14.613281 C 16.6875 14.765625 15.867188 16.464844 15.867188 16.464844 C 15.238281 17.851562 14.503906 17.757812 14.503906 17.757812 L 13.753906 17.757812 L 13.753906 19.03125 Z M 12.355469 16.617188 "/>
<path style=" stroke:none;fill-rule:evenodd;fill:rgb(0%,32.156864%,52.156866%);fill-opacity:1;" d="M 16.550781 15.082031 C 16.671875 14.84375 16.769531 14.660156 16.808594 14.613281 C 16.808594 14.613281 16.480469 15.035156 16.023438 15.0625 L 13.753906 15.0625 L 13.753906 14.03125 L 12.355469 16.617188 L 12.417969 16.726562 L 13.753906 14.261719 L 13.753906 15.292969 L 16.023438 15.292969 C 16.230469 15.277344 16.414062 15.183594 16.550781 15.082031 Z M 16.550781 15.082031 "/>
<path style=" stroke:none;fill-rule:evenodd;fill:rgb(0%,32.156864%,52.156866%);fill-opacity:1;" d="M 16.882812 13.792969 C 16.921875 13.289062 16.671875 12.78125 16.671875 12.78125 L 15.71875 11.039062 L 13.84375 12.238281 L 13.929688 12.410156 L 15.71875 11.269531 L 16.671875 13.007812 C 16.671875 13.007812 16.851562 13.375 16.882812 13.792969 Z M 16.882812 13.792969 "/>
<path style=" stroke:none;fill-rule:evenodd;fill:rgb(0%,32.156864%,52.156866%);fill-opacity:1;" d="M 8.839844 16.601562 C 8.804688 16.253906 8.921875 15.777344 9.300781 15.132812 L 11.941406 15.140625 L 11.980469 17.523438 L 11.976562 17.523438 L 11.941406 15.371094 L 9.300781 15.363281 C 9 15.875 8.863281 16.28125 8.839844 16.601562 Z M 8.839844 16.601562 "/>
<path style=" stroke:none;fill-rule:evenodd;fill:rgb(0%,32.156864%,52.156866%);fill-opacity:1;" d="M 12.402344 11.347656 L 12.863281 11.066406 L 12.773438 10.890625 L 12.046875 11.339844 Z M 12.402344 11.347656 "/>
<path style=" stroke:none;fill-rule:evenodd;fill:rgb(0%,32.156864%,52.156866%);fill-opacity:1;" d="M 7.226562 13.082031 C 7.226562 13.082031 7.085938 13.300781 7.113281 13.730469 C 7.136719 13.453125 7.226562 13.3125 7.226562 13.3125 L 7.59375 12.59375 L 7.605469 12.355469 Z M 7.226562 13.082031 "/>
<path style=" stroke:none;fill-rule:evenodd;fill:rgb(0%,32.156864%,52.156866%);fill-opacity:1;" d="M 8.796875 10.996094 L 8.707031 10.941406 L 9.617188 9.167969 C 9.617188 9.167969 10.816406 7.085938 11.960938 9.671875 L 11.902344 9.773438 C 10.777344 7.386719 9.617188 9.398438 9.617188 9.398438 Z M 8.796875 10.996094 "/>
<path style=" stroke:none;fill-rule:evenodd;fill:rgb(0%,32.156864%,52.156866%);fill-opacity:1;" d="M 9.183594 11.582031 L 10.558594 14.179688 L 10.378906 14.070312 L 9.183594 11.808594 L 6.921875 11.953125 L 6.582031 11.742188 Z M 9.183594 11.582031 "/>
<path style=" stroke:none;fill-rule:evenodd;fill:rgb(0%,33.333334%,53.725493%);fill-opacity:1;" d="M 11.496094 8.378906 C 11.257812 8.195312 11.003906 8.136719 11.003906 8.136719 C 11.1875 8.175781 12.933594 8.121094 12.933594 8.121094 C 14.34375 8.042969 14.632812 8.789062 14.632812 8.789062 L 15 9.507812 L 16.011719 8.878906 L 15.851562 9.207031 L 15 9.738281 L 14.632812 9.019531 C 14.632812 9.019531 14.34375 8.273438 12.933594 8.351562 C 12.933594 8.351562 12.070312 8.378906 11.496094 8.378906 Z M 11.496094 8.378906 "/>
<use xlink:href="#surface8" mask="url(#mask1)"/>
<use xlink:href="#surface11" mask="url(#mask2)"/>
</g>
</svg>
