
<svg xmlns="http://www.w3.org/2000/svg" xmlns:xlink="http://www.w3.org/1999/xlink" width="32px" height="32px" viewBox="0 0 32 32" version="1.1">
<defs>
<linearGradient id="linear0" gradientUnits="userSpaceOnUse" x1="198.300247" y1="66.203491" x2="196.276016" y2="320.847565" gradientTransform="matrix(0.0833333,0,0,0.0833333,0,0)">
<stop offset="0" style="stop-color:rgb(8.627451%,47.058824%,94.117647%);stop-opacity:1;"/>
<stop offset="1" style="stop-color:rgb(5.490196%,39.215687%,80.784315%);stop-opacity:1;"/>
</linearGradient>
<filter id="alpha" filterUnits="objectBoundingBox" x="0%" y="0%" width="100%" height="100%">
  <feColorMatrix type="matrix" in="SourceGraphic" values="0 0 0 0 1 0 0 0 0 1 0 0 0 0 1 0 0 0 1 0"/>
</filter>
<mask id="mask0">
  <g filter="url(#alpha)">
<rect x="0" y="0" width="32" height="32" style="fill:rgb(0%,0%,0%);fill-opacity:0.6;stroke:none;"/>
  </g>
</mask>
<linearGradient id="linear1" gradientUnits="userSpaceOnUse" x1="173.893509" y1="92.745766" x2="173.496323" y2="100.881363" >
<stop offset="0" style="stop-color:rgb(100%,100%,100%);stop-opacity:1;"/>
<stop offset="1" style="stop-color:rgb(100%,100%,100%);stop-opacity:0;"/>
</linearGradient>
<clipPath id="clip1">
  <rect x="0" y="0" width="32" height="32"/>
</clipPath>
<g id="surface5" clip-path="url(#clip1)">
<path style="fill:none;stroke-width:7.5;stroke-linecap:butt;stroke-linejoin:miter;stroke:url(#linear1);stroke-miterlimit:4;" d="M 44.0625 67.125 C 38.34375 67.125 33.75 72.1875 33.75 78.46875 L 33.75 308.203125 C 33.75 312.984375 37.265625 316.875 41.625 316.875 L 339.375 316.875 C 343.734375 316.875 347.25 312.984375 347.25 308.203125 L 347.25 108.421875 C 347.25 98.953125 340.3125 91.359375 331.734375 91.359375 L 172.125 91.359375 C 167.90625 91.359375 166.21875 90.796875 163.5 87.984375 L 147.515625 70.546875 C 147.46875 70.453125 147.421875 70.40625 147.328125 70.359375 L 147.328125 70.3125 C 145.453125 68.34375 142.96875 67.125 140.15625 67.125 Z M 44.0625 67.125 " transform="matrix(0.0833333,0,0,0.0833333,0,0)"/>
</g>
</defs>
<g id="surface1">
<path style=" stroke:none;fill-rule:evenodd;fill:rgb(0%,0%,0%);fill-opacity:0.588235;" d="M 4.648438 5.90625 C 4.203125 5.90625 3.847656 6.339844 3.847656 6.878906 L 3.847656 26.597656 C 3.847656 27.011719 4.121094 27.34375 4.460938 27.34375 L 27.609375 27.34375 C 27.949219 27.34375 28.222656 27.011719 28.222656 26.597656 L 28.222656 9.449219 C 28.222656 8.640625 27.683594 7.984375 27.015625 7.984375 L 14.605469 7.984375 C 14.277344 7.984375 14.148438 7.9375 13.9375 7.699219 L 12.691406 6.199219 C 12.6875 6.191406 12.683594 6.1875 12.679688 6.183594 L 12.675781 6.179688 C 12.53125 6.011719 12.335938 5.90625 12.121094 5.90625 Z M 4.648438 5.90625 "/>
<path style=" stroke:none;fill-rule:evenodd;fill:url(#linear0);" d="M 3.503906 5.214844 C 3.019531 5.214844 2.625 5.648438 2.625 6.1875 L 2.625 25.90625 C 2.625 26.316406 2.925781 26.648438 3.296875 26.648438 L 28.703125 26.648438 C 29.074219 26.648438 29.375 26.316406 29.375 25.90625 L 29.375 8.757812 C 29.375 7.945312 28.785156 7.292969 28.050781 7.292969 L 14.433594 7.292969 C 14.074219 7.292969 13.929688 7.246094 13.699219 7.003906 L 12.332031 5.503906 C 12.328125 5.5 12.324219 5.496094 12.316406 5.488281 C 12.15625 5.316406 11.941406 5.214844 11.703125 5.214844 Z M 3.503906 5.214844 "/>
<use xlink:href="#surface5" mask="url(#mask0)"/>
<path style=" stroke:none;fill-rule:nonzero;fill:rgb(0%,0%,0%);fill-opacity:0.588235;" d="M 4.941406 7.066406 L 11.800781 7.066406 C 12.128906 7.066406 12.398438 7.332031 12.398438 7.660156 L 12.398438 9.222656 C 12.398438 9.550781 12.128906 9.816406 11.800781 9.816406 L 4.941406 9.816406 C 4.613281 9.816406 4.347656 9.550781 4.347656 9.222656 L 4.347656 7.660156 C 4.347656 7.332031 4.613281 7.066406 4.941406 7.066406 Z M 4.941406 7.066406 "/>
<path style=" stroke:none;fill-rule:nonzero;fill:rgb(100%,100%,100%);fill-opacity:1;" d="M 4.515625 6.585938 L 11.375 6.585938 C 11.703125 6.585938 11.96875 6.851562 11.96875 7.179688 L 11.96875 8.742188 C 11.96875 9.070312 11.703125 9.335938 11.375 9.335938 L 4.515625 9.335938 C 4.1875 9.335938 3.921875 9.070312 3.921875 8.742188 L 3.921875 7.179688 C 3.921875 6.851562 4.1875 6.585938 4.515625 6.585938 Z M 4.515625 6.585938 "/>
<path style="fill-rule:nonzero;fill:rgb(100%,100%,100%);fill-opacity:1;stroke-width:19.455528;stroke-linecap:butt;stroke-linejoin:miter;stroke:rgb(100%,100%,100%);stroke-opacity:1;stroke-miterlimit:4;" d="M 587.533136 186.86971 C 555.433095 111.65849 500.442039 56.959421 424.664892 24.613337 C 386.776318 8.308807 347.045938 0.156542 305.473753 0.156542 C 263.901568 0.156542 224.697418 8.308807 186.808845 24.613337 C 111.557927 56.959421 56.303757 111.65849 24.203715 186.86971 C 7.890579 224.738296 -0.00287381 264.18474 -0.00287381 305.734995 C -0.00287381 347.285249 7.890579 386.994669 24.203715 424.863255 C 56.303757 500.074475 111.557927 555.03652 186.808845 587.382604 C 224.697418 603.687134 263.901568 611.8394 305.473753 611.8394 C 347.045938 611.8394 386.776318 603.687134 424.664892 587.382604 C 500.442039 555.03652 555.433095 500.074475 587.533136 424.863255 C 603.846272 386.994669 612.00284 347.285249 612.00284 305.734995 C 612.00284 264.18474 603.846272 224.738296 587.533136 186.86971 Z M 538.856844 440.904809 C 514.650255 481.929111 481.760868 514.801147 440.451798 538.994966 C 399.142727 562.925809 354.150046 575.022719 305.473753 575.022719 C 269.16387 575.022719 234.169562 567.922359 201.01706 553.721639 C 167.864558 539.257943 139.448127 520.32365 115.504653 496.392807 C 91.56118 472.461964 72.353778 443.534572 58.145562 410.399559 C 43.937347 377.264546 37.096355 342.025723 37.096355 305.734995 C 37.096355 257.08438 49.199649 212.115434 72.880008 171.091132 C 96.823482 129.803854 129.975984 97.194794 171.021939 73.000975 C 212.067894 49.070133 257.060575 36.973223 305.473753 36.973223 C 354.150046 36.973223 399.142727 49.070133 440.451798 73.000975 C 481.760868 97.194794 514.650255 130.066831 538.856844 171.091132 C 562.800317 212.37841 574.903612 257.08438 574.903612 305.734995 C 574.903612 354.122632 562.800317 399.354555 538.856844 440.904809 Z M 538.856844 440.904809 " transform="matrix(0.0148462,0,0,0.014854,11.457074,12.829706)"/>
<path style="fill-rule:nonzero;fill:rgb(100%,100%,100%);fill-opacity:1;stroke-width:19.455528;stroke-linecap:butt;stroke-linejoin:miter;stroke:rgb(100%,100%,100%);stroke-opacity:1;stroke-miterlimit:4;" d="M 324.94427 303.105232 L 324.94427 129.540878 C 324.94427 119.284803 315.735242 110.869561 305.473753 110.869561 C 295.738495 110.869561 287.055696 119.284803 287.055696 129.540878 L 287.055696 305.734995 C 287.055696 305.997971 287.845042 307.312852 287.845042 308.364757 C 287.055696 314.413212 288.897502 319.409762 292.844228 323.354406 L 392.827965 423.548374 C 399.668958 430.122781 411.772252 430.122781 418.613245 423.548374 C 426.243582 415.659085 425.717352 404.614081 418.613245 397.250744 Z M 324.94427 303.105232 " transform="matrix(0.0148462,0,0,0.014854,11.457074,12.829706)"/>
</g>
</svg>
