
<svg xmlns="http://www.w3.org/2000/svg" xmlns:xlink="http://www.w3.org/1999/xlink" width="64px" height="64px" viewBox="0 0 64 64" version="1.1">
<defs>
<linearGradient id="linear0" gradientUnits="userSpaceOnUse" x1="198.300247" y1="66.203491" x2="196.276016" y2="320.847565" gradientTransform="matrix(0.166667,0,0,0.166667,0,0)">
<stop offset="0" style="stop-color:rgb(8.627451%,47.058824%,94.117647%);stop-opacity:1;"/>
<stop offset="1" style="stop-color:rgb(5.490196%,39.215687%,80.784315%);stop-opacity:1;"/>
</linearGradient>
<filter id="alpha" filterUnits="objectBoundingBox" x="0%" y="0%" width="100%" height="100%">
  <feColorMatrix type="matrix" in="SourceGraphic" values="0 0 0 0 1 0 0 0 0 1 0 0 0 0 1 0 0 0 1 0"/>
</filter>
<mask id="mask0">
  <g filter="url(#alpha)">
<rect x="0" y="0" width="64" height="64" style="fill:rgb(0%,0%,0%);fill-opacity:0.6;stroke:none;"/>
  </g>
</mask>
<linearGradient id="linear1" gradientUnits="userSpaceOnUse" x1="173.893509" y1="92.745766" x2="173.496323" y2="100.881363" >
<stop offset="0" style="stop-color:rgb(100%,100%,100%);stop-opacity:1;"/>
<stop offset="1" style="stop-color:rgb(100%,100%,100%);stop-opacity:0;"/>
</linearGradient>
<clipPath id="clip1">
  <rect x="0" y="0" width="64" height="64"/>
</clipPath>
<g id="surface5" clip-path="url(#clip1)">
<path style="fill:none;stroke-width:7.5;stroke-linecap:butt;stroke-linejoin:miter;stroke:url(#linear1);stroke-miterlimit:4;" d="M 44.0625 67.125 C 38.367188 67.125 33.773438 72.1875 33.773438 78.46875 L 33.773438 308.203125 C 33.773438 312.984375 37.289062 316.875 41.648438 316.875 L 339.351562 316.875 C 343.710938 316.875 347.226562 312.984375 347.226562 308.203125 L 347.226562 108.421875 C 347.226562 98.953125 340.3125 91.359375 331.734375 91.359375 L 172.148438 91.359375 C 167.90625 91.359375 166.242188 90.796875 163.523438 87.984375 L 147.515625 70.523438 C 147.445312 70.453125 147.398438 70.40625 147.351562 70.335938 L 147.304688 70.3125 C 145.453125 68.34375 142.945312 67.125 140.15625 67.125 Z M 44.0625 67.125 " transform="matrix(0.166667,0,0,0.166667,0,0)"/>
</g>
</defs>
<g id="surface1">
<path style=" stroke:none;fill-rule:evenodd;fill:rgb(0%,0%,0%);fill-opacity:0.588235;" d="M 9.296875 11.8125 C 8.410156 11.8125 7.695312 12.679688 7.695312 13.761719 L 7.695312 53.195312 C 7.695312 54.023438 8.238281 54.6875 8.917969 54.6875 L 55.214844 54.6875 C 55.894531 54.6875 56.441406 54.023438 56.441406 53.195312 L 56.441406 18.902344 C 56.441406 17.277344 55.367188 15.972656 54.03125 15.972656 L 29.214844 15.972656 C 28.554688 15.972656 28.292969 15.875 27.871094 15.394531 L 25.382812 12.394531 C 25.375 12.386719 25.363281 12.375 25.355469 12.363281 L 25.351562 12.359375 C 25.0625 12.023438 24.671875 11.8125 24.238281 11.8125 Z M 9.296875 11.8125 "/>
<path style=" stroke:none;fill-rule:evenodd;fill:url(#linear0);" d="M 7.011719 10.429688 C 6.039062 10.429688 5.253906 11.296875 5.253906 12.375 L 5.253906 51.8125 C 5.253906 52.636719 5.851562 53.300781 6.597656 53.300781 L 57.402344 53.300781 C 58.148438 53.300781 58.746094 52.636719 58.746094 51.8125 L 58.746094 17.515625 C 58.746094 15.890625 57.566406 14.585938 56.101562 14.585938 L 28.867188 14.585938 C 28.144531 14.585938 27.859375 14.492188 27.394531 14.007812 L 24.664062 11.011719 C 24.65625 11 24.644531 10.988281 24.636719 10.980469 L 24.628906 10.972656 C 24.3125 10.636719 23.886719 10.429688 23.410156 10.429688 Z M 7.011719 10.429688 "/>
<use xlink:href="#surface5" mask="url(#mask0)"/>
<path style=" stroke:none;fill-rule:nonzero;fill:rgb(0%,0%,0%);fill-opacity:0.588235;" d="M 9.886719 14.128906 L 23.605469 14.128906 C 24.261719 14.128906 24.792969 14.664062 24.792969 15.320312 L 24.792969 18.445312 C 24.792969 19.101562 24.261719 19.632812 23.605469 19.632812 L 9.886719 19.632812 C 9.230469 19.632812 8.699219 19.101562 8.699219 18.445312 L 8.699219 15.320312 C 8.699219 14.664062 9.230469 14.128906 9.886719 14.128906 Z M 9.886719 14.128906 "/>
<path style=" stroke:none;fill-rule:nonzero;fill:rgb(100%,100%,100%);fill-opacity:1;" d="M 9.03125 13.171875 L 22.75 13.171875 C 23.40625 13.171875 23.9375 13.703125 23.9375 14.359375 L 23.9375 17.484375 C 23.9375 18.140625 23.40625 18.671875 22.75 18.671875 L 9.03125 18.671875 C 8.375 18.671875 7.839844 18.140625 7.839844 17.484375 L 7.839844 14.359375 C 7.839844 13.703125 8.375 13.171875 9.03125 13.171875 Z M 9.03125 13.171875 "/>
<path style=" stroke:none;fill-rule:nonzero;fill:rgb(100%,100%,100%);fill-opacity:1;" d="M 26.761719 41.390625 C 23.308594 41.390625 20.511719 38.59375 20.511719 35.140625 C 20.511719 31.6875 23.308594 28.890625 26.761719 28.890625 L 38.695312 28.890625 C 41.203125 28.890625 43.238281 30.925781 43.238281 33.4375 C 43.238281 35.945312 41.203125 37.980469 38.695312 37.980469 L 29.035156 37.980469 C 27.464844 37.980469 26.195312 36.710938 26.195312 35.140625 C 26.195312 33.570312 27.464844 32.300781 29.035156 32.300781 L 37.558594 32.300781 L 37.558594 34.003906 L 29.035156 34.003906 C 28.40625 34.003906 27.898438 34.511719 27.898438 35.140625 C 27.898438 35.769531 28.40625 36.277344 29.035156 36.277344 L 38.695312 36.277344 C 40.261719 36.277344 41.535156 35.003906 41.535156 33.4375 C 41.535156 31.867188 40.261719 30.59375 38.695312 30.59375 L 26.761719 30.59375 C 24.25 30.59375 22.214844 32.628906 22.214844 35.140625 C 22.214844 37.652344 24.25 39.6875 26.761719 39.6875 L 37.558594 39.6875 L 37.558594 41.390625 Z M 26.761719 41.390625 "/>
</g>
</svg>
