
<svg xmlns="http://www.w3.org/2000/svg" xmlns:xlink="http://www.w3.org/1999/xlink" width="32px" height="32px" viewBox="0 0 32 32" version="1.1">
<defs>
<linearGradient id="linear0" gradientUnits="userSpaceOnUse" x1="198.300247" y1="66.203491" x2="196.276016" y2="320.847565" gradientTransform="matrix(0.0833333,0,0,0.0833333,0,0)">
<stop offset="0" style="stop-color:rgb(8.627451%,47.058824%,94.117647%);stop-opacity:1;"/>
<stop offset="1" style="stop-color:rgb(5.490196%,39.215687%,80.784315%);stop-opacity:1;"/>
</linearGradient>
<filter id="alpha" filterUnits="objectBoundingBox" x="0%" y="0%" width="100%" height="100%">
  <feColorMatrix type="matrix" in="SourceGraphic" values="0 0 0 0 1 0 0 0 0 1 0 0 0 0 1 0 0 0 1 0"/>
</filter>
<mask id="mask0">
  <g filter="url(#alpha)">
<rect x="0" y="0" width="32" height="32" style="fill:rgb(0%,0%,0%);fill-opacity:0.6;stroke:none;"/>
  </g>
</mask>
<linearGradient id="linear1" gradientUnits="userSpaceOnUse" x1="173.893509" y1="92.745766" x2="173.496323" y2="100.881363" >
<stop offset="0" style="stop-color:rgb(100%,100%,100%);stop-opacity:1;"/>
<stop offset="1" style="stop-color:rgb(100%,100%,100%);stop-opacity:0;"/>
</linearGradient>
<clipPath id="clip1">
  <rect x="0" y="0" width="32" height="32"/>
</clipPath>
<g id="surface5" clip-path="url(#clip1)">
<path style="fill:none;stroke-width:7.5;stroke-linecap:butt;stroke-linejoin:miter;stroke:url(#linear1);stroke-miterlimit:4;" d="M 44.0625 67.125 C 38.34375 67.125 33.75 72.1875 33.75 78.46875 L 33.75 308.203125 C 33.75 312.984375 37.265625 316.875 41.625 316.875 L 339.375 316.875 C 343.734375 316.875 347.25 312.984375 347.25 308.203125 L 347.25 108.421875 C 347.25 98.953125 340.3125 91.359375 331.734375 91.359375 L 172.125 91.359375 C 167.90625 91.359375 166.21875 90.796875 163.5 87.984375 L 147.515625 70.546875 C 147.46875 70.453125 147.421875 70.40625 147.328125 70.359375 L 147.328125 70.3125 C 145.453125 68.34375 142.96875 67.125 140.15625 67.125 Z M 44.0625 67.125 " transform="matrix(0.0833333,0,0,0.0833333,0,0)"/>
</g>
</defs>
<g id="surface1">
<path style=" stroke:none;fill-rule:evenodd;fill:rgb(0%,0%,0%);fill-opacity:0.588235;" d="M 4.648438 5.90625 C 4.203125 5.90625 3.847656 6.339844 3.847656 6.878906 L 3.847656 26.597656 C 3.847656 27.011719 4.121094 27.34375 4.460938 27.34375 L 27.609375 27.34375 C 27.949219 27.34375 28.222656 27.011719 28.222656 26.597656 L 28.222656 9.449219 C 28.222656 8.640625 27.683594 7.984375 27.015625 7.984375 L 14.605469 7.984375 C 14.277344 7.984375 14.148438 7.9375 13.9375 7.699219 L 12.691406 6.199219 C 12.6875 6.191406 12.683594 6.1875 12.679688 6.183594 L 12.675781 6.179688 C 12.53125 6.011719 12.335938 5.90625 12.121094 5.90625 Z M 4.648438 5.90625 "/>
<path style=" stroke:none;fill-rule:evenodd;fill:url(#linear0);" d="M 3.503906 5.214844 C 3.019531 5.214844 2.625 5.648438 2.625 6.1875 L 2.625 25.90625 C 2.625 26.316406 2.925781 26.648438 3.296875 26.648438 L 28.703125 26.648438 C 29.074219 26.648438 29.375 26.316406 29.375 25.90625 L 29.375 8.757812 C 29.375 7.945312 28.785156 7.292969 28.050781 7.292969 L 14.433594 7.292969 C 14.074219 7.292969 13.929688 7.246094 13.699219 7.003906 L 12.332031 5.503906 C 12.328125 5.5 12.324219 5.496094 12.316406 5.488281 C 12.15625 5.316406 11.941406 5.214844 11.703125 5.214844 Z M 3.503906 5.214844 "/>
<use xlink:href="#surface5" mask="url(#mask0)"/>
<path style=" stroke:none;fill-rule:nonzero;fill:rgb(0%,0%,0%);fill-opacity:0.588235;" d="M 4.941406 7.066406 L 11.800781 7.066406 C 12.128906 7.066406 12.398438 7.332031 12.398438 7.660156 L 12.398438 9.222656 C 12.398438 9.550781 12.128906 9.816406 11.800781 9.816406 L 4.941406 9.816406 C 4.613281 9.816406 4.347656 9.550781 4.347656 9.222656 L 4.347656 7.660156 C 4.347656 7.332031 4.613281 7.066406 4.941406 7.066406 Z M 4.941406 7.066406 "/>
<path style=" stroke:none;fill-rule:nonzero;fill:rgb(100%,100%,100%);fill-opacity:1;" d="M 4.515625 6.585938 L 11.375 6.585938 C 11.703125 6.585938 11.96875 6.851562 11.96875 7.179688 L 11.96875 8.742188 C 11.96875 9.070312 11.703125 9.335938 11.375 9.335938 L 4.515625 9.335938 C 4.1875 9.335938 3.921875 9.070312 3.921875 8.742188 L 3.921875 7.179688 C 3.921875 6.851562 4.1875 6.585938 4.515625 6.585938 Z M 4.515625 6.585938 "/>
<path style=" stroke:none;fill-rule:nonzero;fill:rgb(100%,100%,100%);fill-opacity:1;" d="M 15.9375 12.839844 C 14.199219 12.839844 12.6875 13.785156 11.878906 15.183594 L 13.09375 15.183594 C 13.769531 14.367188 14.792969 13.847656 15.9375 13.847656 C 17.972656 13.847656 19.621094 15.496094 19.621094 17.527344 C 19.621094 19.5625 17.972656 21.210938 15.9375 21.210938 C 13.902344 21.210938 12.253906 19.5625 12.253906 17.527344 C 12.253906 17.414062 12.265625 17.304688 12.277344 17.195312 L 11.261719 17.195312 C 11.253906 17.304688 11.25 17.417969 11.25 17.527344 C 11.25 20.117188 13.351562 22.214844 15.9375 22.214844 C 18.527344 22.214844 20.625 20.117188 20.625 17.527344 C 20.625 14.941406 18.527344 12.839844 15.9375 12.839844 Z M 15.9375 12.839844 "/>
<path style=" stroke:none;fill-rule:nonzero;fill:rgb(100%,100%,100%);fill-opacity:1;" d="M 11.25 12.839844 L 11.25 16.1875 L 14.597656 16.1875 Z M 11.25 12.839844 "/>
<path style=" stroke:none;fill-rule:nonzero;fill:rgb(100%,100%,100%);fill-opacity:1;" d="M 15.875 14.496094 C 15.84375 14.5 15.816406 14.507812 15.789062 14.515625 C 15.476562 14.585938 15.257812 14.867188 15.265625 15.183594 L 15.265625 17.652344 C 15.265625 17.675781 15.265625 17.695312 15.265625 17.71875 C 15.226562 17.890625 15.257812 18.070312 15.351562 18.21875 C 15.355469 18.226562 15.363281 18.234375 15.371094 18.238281 C 15.378906 18.253906 15.386719 18.269531 15.394531 18.28125 C 15.398438 18.289062 15.40625 18.296875 15.414062 18.300781 C 15.421875 18.308594 15.429688 18.316406 15.433594 18.324219 C 15.441406 18.332031 15.449219 18.335938 15.457031 18.34375 C 15.460938 18.351562 15.46875 18.359375 15.476562 18.363281 C 15.492188 18.371094 15.503906 18.378906 15.519531 18.386719 C 15.527344 18.390625 15.53125 18.398438 15.539062 18.40625 C 15.546875 18.414062 15.554688 18.421875 15.5625 18.425781 C 15.574219 18.433594 15.589844 18.441406 15.601562 18.449219 C 15.628906 18.464844 15.65625 18.476562 15.6875 18.488281 L 17.339844 19.453125 C 17.550781 19.589844 17.820312 19.601562 18.042969 19.480469 C 18.261719 19.355469 18.394531 19.121094 18.390625 18.871094 C 18.382812 18.617188 18.234375 18.390625 18.007812 18.28125 L 16.605469 17.464844 L 16.605469 15.183594 C 16.613281 14.992188 16.539062 14.804688 16.398438 14.671875 C 16.257812 14.539062 16.066406 14.472656 15.875 14.492188 Z M 15.875 14.496094 "/>
</g>
</svg>
