
<svg xmlns="http://www.w3.org/2000/svg" xmlns:xlink="http://www.w3.org/1999/xlink" width="32px" height="32px" viewBox="0 0 32 32" version="1.1">
<defs>
<linearGradient id="linear0" gradientUnits="userSpaceOnUse" x1="198.300247" y1="66.203491" x2="196.276016" y2="320.847565" gradientTransform="matrix(0.0833333,0,0,0.0833333,0,0)">
<stop offset="0" style="stop-color:rgb(8.627451%,47.058824%,94.117647%);stop-opacity:1;"/>
<stop offset="1" style="stop-color:rgb(5.490196%,39.215687%,80.784315%);stop-opacity:1;"/>
</linearGradient>
<filter id="alpha" filterUnits="objectBoundingBox" x="0%" y="0%" width="100%" height="100%">
  <feColorMatrix type="matrix" in="SourceGraphic" values="0 0 0 0 1 0 0 0 0 1 0 0 0 0 1 0 0 0 1 0"/>
</filter>
<mask id="mask0">
  <g filter="url(#alpha)">
<rect x="0" y="0" width="32" height="32" style="fill:rgb(0%,0%,0%);fill-opacity:0.6;stroke:none;"/>
  </g>
</mask>
<linearGradient id="linear1" gradientUnits="userSpaceOnUse" x1="173.893509" y1="92.745766" x2="173.496323" y2="100.881363" >
<stop offset="0" style="stop-color:rgb(100%,100%,100%);stop-opacity:1;"/>
<stop offset="1" style="stop-color:rgb(100%,100%,100%);stop-opacity:0;"/>
</linearGradient>
<clipPath id="clip1">
  <rect x="0" y="0" width="32" height="32"/>
</clipPath>
<g id="surface5" clip-path="url(#clip1)">
<path style="fill:none;stroke-width:7.5;stroke-linecap:butt;stroke-linejoin:miter;stroke:url(#linear1);stroke-miterlimit:4;" d="M 44.0625 67.125 C 38.34375 67.125 33.75 72.1875 33.75 78.46875 L 33.75 308.203125 C 33.75 312.984375 37.265625 316.875 41.625 316.875 L 339.375 316.875 C 343.734375 316.875 347.25 312.984375 347.25 308.203125 L 347.25 108.421875 C 347.25 98.953125 340.3125 91.359375 331.734375 91.359375 L 172.125 91.359375 C 167.90625 91.359375 166.21875 90.796875 163.5 87.984375 L 147.515625 70.546875 C 147.46875 70.453125 147.421875 70.40625 147.328125 70.359375 L 147.328125 70.3125 C 145.453125 68.34375 142.96875 67.125 140.15625 67.125 Z M 44.0625 67.125 " transform="matrix(0.0833333,0,0,0.0833333,0,0)"/>
</g>
</defs>
<g id="surface1">
<path style=" stroke:none;fill-rule:evenodd;fill:rgb(0%,0%,0%);fill-opacity:0.588235;" d="M 4.648438 5.90625 C 4.203125 5.90625 3.847656 6.339844 3.847656 6.878906 L 3.847656 26.597656 C 3.847656 27.011719 4.121094 27.34375 4.460938 27.34375 L 27.609375 27.34375 C 27.949219 27.34375 28.222656 27.011719 28.222656 26.597656 L 28.222656 9.449219 C 28.222656 8.640625 27.683594 7.984375 27.015625 7.984375 L 14.605469 7.984375 C 14.277344 7.984375 14.148438 7.9375 13.9375 7.699219 L 12.691406 6.199219 C 12.6875 6.191406 12.683594 6.1875 12.679688 6.183594 L 12.675781 6.179688 C 12.53125 6.011719 12.335938 5.90625 12.121094 5.90625 Z M 4.648438 5.90625 "/>
<path style=" stroke:none;fill-rule:evenodd;fill:url(#linear0);" d="M 3.503906 5.214844 C 3.019531 5.214844 2.625 5.648438 2.625 6.1875 L 2.625 25.90625 C 2.625 26.316406 2.925781 26.648438 3.296875 26.648438 L 28.703125 26.648438 C 29.074219 26.648438 29.375 26.316406 29.375 25.90625 L 29.375 8.757812 C 29.375 7.945312 28.785156 7.292969 28.050781 7.292969 L 14.433594 7.292969 C 14.074219 7.292969 13.929688 7.246094 13.699219 7.003906 L 12.332031 5.503906 C 12.328125 5.5 12.324219 5.496094 12.316406 5.488281 C 12.15625 5.316406 11.941406 5.214844 11.703125 5.214844 Z M 3.503906 5.214844 "/>
<use xlink:href="#surface5" mask="url(#mask0)"/>
<path style=" stroke:none;fill-rule:nonzero;fill:rgb(0%,0%,0%);fill-opacity:0.588235;" d="M 4.941406 7.066406 L 11.800781 7.066406 C 12.128906 7.066406 12.398438 7.332031 12.398438 7.660156 L 12.398438 9.222656 C 12.398438 9.550781 12.128906 9.816406 11.800781 9.816406 L 4.941406 9.816406 C 4.613281 9.816406 4.347656 9.550781 4.347656 9.222656 L 4.347656 7.660156 C 4.347656 7.332031 4.613281 7.066406 4.941406 7.066406 Z M 4.941406 7.066406 "/>
<path style=" stroke:none;fill-rule:nonzero;fill:rgb(100%,100%,100%);fill-opacity:1;" d="M 4.515625 6.585938 L 11.375 6.585938 C 11.703125 6.585938 11.96875 6.851562 11.96875 7.179688 L 11.96875 8.742188 C 11.96875 9.070312 11.703125 9.335938 11.375 9.335938 L 4.515625 9.335938 C 4.1875 9.335938 3.921875 9.070312 3.921875 8.742188 L 3.921875 7.179688 C 3.921875 6.851562 4.1875 6.585938 4.515625 6.585938 Z M 4.515625 6.585938 "/>
<path style="fill:none;stroke-width:3.19125;stroke-linecap:butt;stroke-linejoin:miter;stroke:rgb(100%,100%,100%);stroke-opacity:1;stroke-miterlimit:4;" d="M 190.265625 252.890625 C 184.5 251.296875 179.8125 247.640625 177.1875 242.34375 C 176.015625 239.953125 174.46875 233.765625 174.890625 233.34375 C 174.984375 233.25 177.1875 235.3125 178.40625 236.15625 C 179.671875 237 180.796875 237.84375 180.796875 237.84375 C 180.9375 237.9375 182.8125 239.296875 185.34375 241.125 C 190.6875 245.109375 192.1875 245.53125 195.375 245.53125 C 199.734375 245.578125 203.390625 243.65625 205.6875 240.140625 C 207.75 236.953125 208.40625 232.921875 207.328125 229.5 C 206.203125 225.796875 204.5625 224.015625 199.03125 220.5 C 196.96875 219.140625 194.8125 217.921875 194.25 217.59375 C 193.78125 217.359375 190.6875 215.859375 189.5625 215.0625 C 188.859375 214.59375 187.921875 213.984375 188.015625 213.9375 C 188.671875 213.609375 189.9375 213.609375 191.8125 213.046875 L 192.984375 212.671875 L 195.984375 207.984375 C 197.625 205.40625 199.3125 202.6875 199.734375 201.890625 C 200.625 200.203125 201.65625 198.375 201.84375 198.1875 C 201.984375 198.1875 202.171875 199.6875 202.265625 200.71875 C 202.6875 205.21875 205.125 211.125 208.3125 215.109375 C 212.625 220.546875 219.84375 224.671875 226.359375 225.46875 C 227.25 225.5625 228.046875 225.5625 228.046875 225.65625 C 228.046875 225.9375 225.796875 227.484375 225.09375 227.90625 C 224.8125 228.046875 222.46875 229.546875 219.9375 231.328125 L 215.34375 234.5625 L 214.875 236.90625 C 213.46875 244.3125 208.453125 250.125 201.46875 252.515625 C 198.46875 253.546875 193.265625 253.734375 190.265625 252.890625 Z M 190.265625 252.890625 " transform="matrix(0.0833333,0,0,0.0833333,0,0)"/>
<path style="fill:none;stroke-width:3.19125;stroke-linecap:butt;stroke-linejoin:miter;stroke:rgb(100%,100%,100%);stroke-opacity:1;stroke-miterlimit:4;" d="M 145.96875 222.796875 C 136.78125 221.203125 130.21875 213.609375 129.1875 204.421875 C 128.0625 194.484375 133.96875 185.671875 143.625 182.578125 C 146.25 181.78125 151.453125 181.6875 154.171875 182.4375 C 157.78125 183.46875 161.203125 185.53125 163.78125 188.296875 C 165.28125 189.890625 166.359375 191.765625 167.484375 193.546875 C 168.796875 195.5625 169.96875 201.75 169.6875 202.03125 C 169.59375 202.125 167.765625 199.921875 166.640625 199.078125 C 165.609375 198.234375 164.578125 197.34375 164.390625 197.25 C 164.203125 197.15625 162.1875 195.609375 159.75 193.921875 C 154.546875 190.3125 152.578125 189.75 149.484375 189.75 C 146.15625 189.75 143.34375 190.78125 141.09375 192.9375 C 136.5 197.296875 135.703125 204 139.125 209.25 C 140.15625 210.796875 141.796875 212.390625 143.15625 213.09375 C 144.984375 214.078125 156.984375 221.296875 157.03125 221.625 C 157.03125 221.953125 155.15625 222.609375 152.859375 222.84375 C 150.375 223.171875 147.421875 223.03125 145.96875 222.796875 Z M 145.96875 222.796875 " transform="matrix(0.0833333,0,0,0.0833333,0,0)"/>
<path style=" stroke:none;fill-rule:nonzero;fill:rgb(100%,100%,100%);fill-opacity:1;" d="M 19.132812 14.246094 C 18.777344 14.242188 18.554688 14.28125 18.265625 14.394531 C 17.46875 14.714844 16.894531 15.484375 16.84375 16.316406 C 16.839844 16.414062 16.835938 16.46875 16.820312 16.515625 C 16.832031 16.515625 16.847656 16.640625 16.855469 16.726562 C 16.890625 17.101562 17.09375 17.59375 17.359375 17.925781 C 17.71875 18.378906 18.316406 18.722656 18.863281 18.789062 C 18.929688 18.796875 18.996094 18.796875 19.003906 18.804688 C 19.046875 18.789062 19.113281 18.78125 19.257812 18.773438 C 19.800781 18.746094 20.308594 18.515625 20.707031 18.121094 C 21.390625 17.445312 21.570312 16.417969 21.164062 15.550781 C 20.875 14.929688 20.335938 14.484375 19.664062 14.304688 C 19.480469 14.257812 19.394531 14.246094 19.132812 14.246094 Z M 19.136719 14.90625 C 19.433594 14.90625 19.464844 14.910156 19.640625 14.980469 C 20.03125 15.128906 20.320312 15.390625 20.496094 15.753906 C 20.628906 16.027344 20.671875 16.238281 20.65625 16.535156 C 20.621094 17.191406 20.207031 17.742188 19.589844 17.941406 C 19.355469 18.015625 19.027344 18.035156 18.796875 17.984375 C 18.464844 17.90625 18.113281 17.683594 17.914062 17.414062 C 17.679688 17.097656 17.578125 16.769531 17.59375 16.375 C 17.621094 15.734375 18.03125 15.179688 18.632812 14.96875 C 18.804688 14.910156 18.847656 14.90625 19.136719 14.90625 Z M 12.457031 15.8125 C 12.179688 15.8125 11.945312 15.898438 11.757812 16.078125 C 11.375 16.441406 11.308594 17 11.59375 17.4375 C 11.679688 17.566406 11.816406 17.699219 11.929688 17.757812 C 12.082031 17.839844 13.082031 18.441406 13.085938 18.46875 C 13.085938 18.46875 13.085938 18.46875 13.082031 18.46875 L 13.09375 18.46875 L 13.375 18.648438 C 13.527344 18.75 13.859375 18.96875 14.109375 19.136719 L 14.570312 19.441406 L 14.570312 19.453125 C 14.570312 19.449219 14.570312 19.445312 14.574219 19.445312 C 14.582031 19.4375 14.765625 19.609375 14.867188 19.679688 C 14.972656 19.75 15.066406 19.820312 15.066406 19.820312 C 15.078125 19.828125 15.234375 19.941406 15.445312 20.09375 C 15.890625 20.425781 16.015625 20.460938 16.28125 20.460938 C 16.644531 20.464844 16.949219 20.304688 17.140625 20.011719 C 17.3125 19.746094 17.367188 19.410156 17.277344 19.125 C 17.183594 18.816406 17.046875 18.667969 16.585938 18.375 C 16.414062 18.261719 16.234375 18.160156 16.1875 18.132812 C 16.148438 18.113281 15.890625 17.988281 15.796875 17.921875 C 15.738281 17.882812 15.664062 17.835938 15.667969 17.828125 C 15.59375 17.800781 15.375 17.664062 14.894531 17.34375 L 14.140625 16.839844 L 14.140625 16.835938 C 14.132812 16.84375 13.976562 16.660156 13.886719 16.589844 C 13.800781 16.519531 13.710938 16.445312 13.699219 16.4375 C 13.683594 16.429688 13.515625 16.300781 13.308594 16.160156 C 12.878906 15.859375 12.714844 15.8125 12.457031 15.8125 Z M 14.070312 16.425781 C 14.085938 16.480469 14.097656 16.535156 14.109375 16.585938 C 14.101562 16.53125 14.085938 16.476562 14.070312 16.425781 Z M 16.539062 17 C 16.515625 17.039062 16.496094 17.066406 16.46875 17.109375 C 16.496094 17.070312 16.519531 17.035156 16.539062 17 Z M 14.59375 19.648438 C 14.613281 19.789062 14.652344 19.921875 14.707031 20.046875 C 14.660156 19.921875 14.621094 19.769531 14.59375 19.648438 Z M 14.59375 19.648438 "/>
</g>
</svg>
