
<svg xmlns="http://www.w3.org/2000/svg" xmlns:xlink="http://www.w3.org/1999/xlink" width="64px" height="64px" viewBox="0 0 64 64" version="1.1">
<defs>
<filter id="alpha" filterUnits="objectBoundingBox" x="0%" y="0%" width="100%" height="100%">
  <feColorMatrix type="matrix" in="SourceGraphic" values="0 0 0 0 1 0 0 0 0 1 0 0 0 0 1 0 0 0 1 0"/>
</filter>
<mask id="mask0">
  <g filter="url(#alpha)">
<rect x="0" y="0" width="64" height="64" style="fill:rgb(0%,0%,0%);fill-opacity:0.9;stroke:none;"/>
  </g>
</mask>
<linearGradient id="linear0" gradientUnits="userSpaceOnUse" x1="17.426399" y1="136" x2="238.573593" y2="136" gradientTransform="matrix(0.025463,0,0,0.0267857,-0.259259,-0.642857)">
<stop offset="0" style="stop-color:rgb(83.92157%,83.92157%,83.92157%);stop-opacity:1;"/>
<stop offset="1" style="stop-color:rgb(91.764706%,91.764706%,91.764706%);stop-opacity:1;"/>
</linearGradient>
<clipPath id="clip1">
  <rect x="0" y="0" width="64" height="64"/>
</clipPath>
<g id="surface5" clip-path="url(#clip1)">
<path style=" stroke:none;fill-rule:evenodd;fill:url(#linear0);" d="M 10.398438 56.40625 C 10.625 59.15625 12.839844 61.375 15.34375 61.375 L 48.65625 61.375 C 51.148438 61.375 53.375 59.148438 53.601562 56.40625 L 57.5625 9.21875 C 59.363281 9.21875 60.757812 7.460938 60.757812 5.621094 C 60.757812 3.773438 59.238281 2.625 57.5625 2.625 L 6.4375 2.625 C 4.769531 2.625 3.242188 3.785156 3.242188 5.621094 C 3.242188 7.472656 4.761719 9.21875 6.4375 9.21875 Z M 10.398438 56.40625 "/>
</g>
<mask id="mask1">
  <g filter="url(#alpha)">
<rect x="0" y="0" width="64" height="64" style="fill:rgb(0%,0%,0%);fill-opacity:0.4;stroke:none;"/>
  </g>
</mask>
<clipPath id="clip2">
  <rect x="0" y="0" width="64" height="64"/>
</clipPath>
<g id="surface8" clip-path="url(#clip2)">
<path style=" stroke:none;fill-rule:evenodd;fill:rgb(65.490198%,37.64706%,18.431373%);fill-opacity:1;" d="M 11.917969 42.171875 L 12.453125 49.535156 L 12.457031 49.535156 L 12.753906 53.832031 C 12.753906 53.832031 12.753906 57.515625 15.84375 57.515625 C 16.535156 57.515625 18.859375 57.515625 21.730469 57.515625 L 22.75 57.53125 L 22.757812 57.515625 C 26.574219 57.515625 31.082031 57.515625 34 57.515625 C 34 57.515625 44.429688 57.515625 47.523438 57.515625 C 50.613281 57.515625 50.921875 53.832031 50.921875 53.832031 L 53.273438 26.5 L 51.460938 26.117188 L 53.363281 24.261719 L 46.628906 12.820312 L 34.675781 23.109375 L 36.5 17.808594 L 20.535156 9.96875 L 16.140625 22.171875 L 13.128906 20.257812 L 10.636719 25.796875 L 11.378906 35.292969 L 11.417969 35.316406 L 11.648438 38.453125 L 11.644531 38.457031 L 11.886719 42.148438 Z M 11.917969 42.171875 "/>
</g>
<mask id="mask2">
  <g filter="url(#alpha)">
<rect x="0" y="0" width="64" height="64" style="fill:rgb(0%,0%,0%);fill-opacity:0.8;stroke:none;"/>
  </g>
</mask>
<linearGradient id="linear1" gradientUnits="userSpaceOnUse" x1="130.78624" y1="46.669899" x2="130.750259" y2="66.303192" >
<stop offset="0" style="stop-color:rgb(100%,100%,100%);stop-opacity:1;"/>
<stop offset="1" style="stop-color:rgb(100%,100%,100%);stop-opacity:0;"/>
</linearGradient>
<clipPath id="clip3">
  <rect x="0" y="0" width="64" height="64"/>
</clipPath>
<g id="surface11" clip-path="url(#clip3)">
<path style="fill:none;stroke-width:4.148185;stroke-linecap:round;stroke-linejoin:round;stroke:url(#linear1);stroke-miterlimit:4;" d="M 55.209006 214.95424 C 55.972456 223.737428 63.435836 230.848236 71.873271 230.848236 L 184.126709 230.848236 C 192.524656 230.848236 200.027525 223.724662 200.790974 214.95424 L 214.138182 64.069794 C 220.206291 64.069794 224.905456 58.452639 224.905456 52.567392 C 224.905456 46.656613 219.785077 42.979929 214.138182 42.979929 L 41.861799 42.979929 C 36.241229 42.979929 31.094525 46.694912 31.094525 52.567392 C 31.094525 58.490937 36.214903 64.069794 41.861799 64.069794 Z M 55.209006 214.95424 " transform="matrix(0.296762,0,0,0.305982,-5.985471,-9.893285)"/>
</g>
<mask id="mask3">
  <g filter="url(#alpha)">
<rect x="0" y="0" width="64" height="64" style="fill:rgb(0%,0%,0%);fill-opacity:0.4;stroke:none;"/>
  </g>
</mask>
<linearGradient id="linear2" gradientUnits="userSpaceOnUse" x1="124.486107" y1="231.858475" x2="124.729118" y2="211.177521" >
<stop offset="0" style="stop-color:rgb(0%,0%,0%);stop-opacity:1;"/>
<stop offset="1" style="stop-color:rgb(0%,0%,0%);stop-opacity:0;"/>
</linearGradient>
<clipPath id="clip4">
  <rect x="0" y="0" width="64" height="64"/>
</clipPath>
<g id="surface14" clip-path="url(#clip4)">
<path style="fill:none;stroke-width:4.148185;stroke-linecap:round;stroke-linejoin:round;stroke:url(#linear2);stroke-miterlimit:4;" d="M 55.209006 214.95424 C 55.972456 223.737428 63.435836 230.848236 71.873271 230.848236 L 184.126709 230.848236 C 192.524656 230.848236 200.027525 223.724662 200.790974 214.95424 L 214.138182 64.069794 C 220.206291 64.069794 224.905456 58.452639 224.905456 52.567392 C 224.905456 46.656613 219.785077 42.979929 214.138182 42.979929 L 41.861799 42.979929 C 36.241229 42.979929 31.094525 46.694912 31.094525 52.567392 C 31.094525 58.490937 36.214903 64.069794 41.861799 64.069794 Z M 55.209006 214.95424 " transform="matrix(0.296762,0,0,0.305982,-5.985471,-9.893285)"/>
</g>
</defs>
<g id="surface1">
<use xlink:href="#surface5" mask="url(#mask0)"/>
<use xlink:href="#surface8" mask="url(#mask1)"/>
<path style=" stroke:none;fill-rule:evenodd;fill:rgb(100%,100%,100%);fill-opacity:1;" d="M 31.890625 26.402344 C 28.847656 19.507812 25.648438 25.058594 25.648438 25.058594 L 23.21875 29.785156 L 28.214844 32.988281 Z M 42.695312 24.289062 L 40.003906 25.964844 L 39.015625 24.050781 C 39.015625 24.050781 38.253906 22.0625 34.492188 22.269531 C 34.492188 22.269531 29.832031 22.414062 29.34375 22.316406 C 29.34375 22.316406 30.667969 22.601562 31.324219 23.726562 L 34.300781 29.507812 L 32.125 30.855469 L 39.425781 31.027344 Z M 24.804688 40.964844 C 21.027344 47.398438 27.015625 47.519531 27.015625 47.519531 L 31.945312 47.339844 L 31.84375 40.988281 Z M 17.550781 31.929688 L 20.253906 33.582031 L 19.273438 35.5 C 19.273438 35.5 18.121094 37.253906 20.242188 40.667969 C 20.242188 40.667969 22.78125 44.972656 22.949219 45.480469 C 22.949219 45.480469 22.484375 44.089844 23.019531 42.890625 L 25.972656 37.09375 L 28.15625 38.425781 L 24.492188 31.492188 Z M 40.328125 40 C 47.285156 40.484375 44.460938 34.691406 44.460938 34.691406 L 41.914062 30.046875 L 36.914062 33.246094 Z M 32.945312 44.921875 L 36.679688 38.03125 L 36.679688 40.777344 L 42.726562 40.777344 C 43.941406 40.703125 44.820312 39.578125 44.820312 39.578125 C 44.5 39.984375 42.316406 44.519531 42.316406 44.519531 C 40.636719 48.214844 38.679688 47.96875 38.679688 47.96875 L 36.679688 47.96875 L 36.679688 51.363281 Z M 32.945312 44.921875 "/>
<path style=" stroke:none;fill-rule:evenodd;fill:rgb(79.607844%,0%,0%);fill-opacity:1;" d="M 31.890625 25.789062 C 28.847656 18.898438 25.648438 24.449219 25.648438 24.449219 L 23.21875 29.171875 L 28.214844 32.378906 Z M 42.695312 23.679688 L 40.003906 25.351562 L 39.015625 23.441406 C 39.015625 23.441406 38.253906 21.449219 34.492188 21.65625 C 34.492188 21.65625 29.832031 21.800781 29.34375 21.703125 C 29.34375 21.703125 30.667969 21.988281 31.324219 23.113281 L 34.300781 28.894531 L 32.125 30.242188 L 39.425781 30.417969 Z M 24.804688 40.351562 C 21.027344 46.785156 27.015625 46.910156 27.015625 46.910156 L 31.945312 46.730469 L 31.84375 40.375 Z M 17.550781 31.316406 L 20.253906 32.96875 L 19.273438 34.890625 C 19.273438 34.890625 18.121094 36.644531 20.242188 40.058594 C 20.242188 40.058594 22.78125 44.363281 22.949219 44.867188 C 22.949219 44.867188 22.484375 43.480469 23.019531 42.277344 L 25.972656 36.480469 L 28.15625 37.816406 L 24.492188 30.882812 Z M 40.328125 39.390625 C 47.285156 39.871094 44.460938 34.078125 44.460938 34.078125 L 41.914062 29.4375 L 36.914062 32.632812 Z M 32.945312 44.308594 L 36.679688 37.417969 L 36.679688 40.164062 L 42.726562 40.164062 C 43.941406 40.089844 44.820312 38.964844 44.820312 38.964844 C 44.5 39.375 42.316406 43.910156 42.316406 43.910156 C 40.636719 47.605469 38.679688 47.359375 38.679688 47.359375 L 36.679688 47.359375 L 36.679688 50.753906 Z M 32.945312 44.308594 "/>
<path style=" stroke:none;fill-rule:evenodd;fill:rgb(47.058824%,0%,0%);fill-opacity:1;" d="M 44.136719 40.222656 C 44.457031 39.585938 44.722656 39.089844 44.820312 38.964844 C 44.820312 38.964844 43.941406 40.089844 42.726562 40.164062 L 36.679688 40.164062 L 36.679688 37.417969 L 32.945312 44.308594 L 33.117188 44.605469 L 36.679688 38.03125 L 36.679688 40.777344 L 42.726562 40.777344 C 43.285156 40.742188 43.773438 40.488281 44.136719 40.222656 Z M 44.136719 40.222656 "/>
<path style=" stroke:none;fill-rule:evenodd;fill:rgb(47.058824%,0%,0%);fill-opacity:1;" d="M 45.019531 36.78125 C 45.125 35.433594 44.460938 34.078125 44.460938 34.078125 L 41.914062 29.4375 L 36.914062 32.632812 L 37.148438 33.097656 L 41.914062 30.046875 L 44.460938 34.691406 C 44.460938 34.691406 44.9375 35.664062 45.019531 36.78125 Z M 45.019531 36.78125 "/>
<path style=" stroke:none;fill-rule:evenodd;fill:rgb(47.058824%,0%,0%);fill-opacity:1;" d="M 23.566406 44.277344 C 23.484375 43.339844 23.796875 42.070312 24.804688 40.351562 L 31.84375 40.375 L 31.945312 46.730469 L 31.933594 46.730469 L 31.84375 40.988281 L 24.804688 40.964844 C 24 42.332031 23.640625 43.417969 23.566406 44.277344 Z M 23.566406 44.277344 "/>
<path style=" stroke:none;fill-rule:evenodd;fill:rgb(47.058824%,0%,0%);fill-opacity:1;" d="M 33.078125 30.265625 L 34.300781 29.507812 L 34.0625 29.042969 L 32.125 30.242188 Z M 33.078125 30.265625 "/>
<path style=" stroke:none;fill-rule:evenodd;fill:rgb(47.058824%,0%,0%);fill-opacity:1;" d="M 19.273438 34.890625 C 19.273438 34.890625 18.890625 35.46875 18.972656 36.613281 C 19.027344 35.875 19.273438 35.5 19.273438 35.5 L 20.253906 33.582031 L 20.28125 32.945312 Z M 19.273438 34.890625 "/>
<path style=" stroke:none;fill-rule:evenodd;fill:rgb(47.058824%,0%,0%);fill-opacity:1;" d="M 23.457031 29.324219 L 23.21875 29.171875 L 25.648438 24.449219 C 25.648438 24.449219 28.847656 18.898438 31.890625 25.789062 L 31.738281 26.066406 C 28.742188 19.695312 25.648438 25.058594 25.648438 25.058594 Z M 23.457031 29.324219 "/>
<path style=" stroke:none;fill-rule:evenodd;fill:rgb(47.058824%,0%,0%);fill-opacity:1;" d="M 24.492188 30.882812 L 28.15625 37.816406 L 27.675781 37.523438 L 24.492188 31.492188 L 18.457031 31.871094 L 17.550781 31.316406 Z M 24.492188 30.882812 "/>
<path style=" stroke:none;fill-rule:evenodd;fill:rgb(47.058824%,0%,0%);fill-opacity:1;" d="M 30.652344 22.347656 C 30.023438 21.851562 29.34375 21.703125 29.34375 21.703125 C 29.832031 21.800781 34.492188 21.65625 34.492188 21.65625 C 38.253906 21.449219 39.015625 23.441406 39.015625 23.441406 L 40.003906 25.351562 L 42.695312 23.679688 L 42.269531 24.554688 L 40.003906 25.964844 L 39.015625 24.050781 C 39.015625 24.050781 38.253906 22.0625 34.492188 22.269531 C 34.492188 22.269531 32.1875 22.339844 30.652344 22.347656 Z M 30.652344 22.347656 "/>
<use xlink:href="#surface11" mask="url(#mask2)"/>
<use xlink:href="#surface14" mask="url(#mask3)"/>
</g>
</svg>
