
<svg xmlns="http://www.w3.org/2000/svg" xmlns:xlink="http://www.w3.org/1999/xlink" width="24px" height="24px" viewBox="0 0 24 24" version="1.1">
<defs>
<linearGradient id="linear0" gradientUnits="userSpaceOnUse" x1="198.300247" y1="66.203491" x2="196.276016" y2="320.847565" gradientTransform="matrix(0.0625,0,0,0.0625,0,-0.000000212685)">
<stop offset="0" style="stop-color:rgb(8.627451%,47.058824%,94.117647%);stop-opacity:1;"/>
<stop offset="1" style="stop-color:rgb(5.490196%,39.215687%,80.784315%);stop-opacity:1;"/>
</linearGradient>
<filter id="alpha" filterUnits="objectBoundingBox" x="0%" y="0%" width="100%" height="100%">
  <feColorMatrix type="matrix" in="SourceGraphic" values="0 0 0 0 1 0 0 0 0 1 0 0 0 0 1 0 0 0 1 0"/>
</filter>
<mask id="mask0">
  <g filter="url(#alpha)">
<rect x="0" y="0" width="24" height="24" style="fill:rgb(0%,0%,0%);fill-opacity:0.6;stroke:none;"/>
  </g>
</mask>
<linearGradient id="linear1" gradientUnits="userSpaceOnUse" x1="173.893509" y1="92.745766" x2="173.496323" y2="100.881363" gradientTransform="matrix(1,0,0,1,0,-0.00000359323)">
<stop offset="0" style="stop-color:rgb(100%,100%,100%);stop-opacity:1;"/>
<stop offset="1" style="stop-color:rgb(100%,100%,100%);stop-opacity:0;"/>
</linearGradient>
<clipPath id="clip1">
  <rect x="0" y="0" width="24" height="24"/>
</clipPath>
<g id="surface5" clip-path="url(#clip1)">
<path style="fill:none;stroke-width:7.5;stroke-linecap:butt;stroke-linejoin:miter;stroke:url(#linear1);stroke-miterlimit:4;" d="M 44.0625 184 C 38.375 184 33.75 186.6875 33.75 190.0625 L 33.75 313.5625 C 33.75 316.125 37.3125 318.25 41.625 318.25 L 339.375 318.25 C 343.6875 318.25 347.25 316.125 347.25 313.5625 L 347.25 206.1875 C 347.25 201.0625 340.3125 197 331.75 197 L 172.125 197 C 167.9375 197 166.25 196.6875 163.5 195.1875 L 147.5 185.8125 C 147.4375 185.75 147.375 185.75 147.375 185.6875 L 147.3125 185.6875 C 145.4375 184.625 142.9375 184 140.1875 184 Z M 44.0625 184 " transform="matrix(0.0625,0,0,0.0625,0,0)"/>
</g>
</defs>
<g id="surface1">
<path style=" stroke:none;fill-rule:evenodd;fill:rgb(0%,0%,0%);fill-opacity:0.588235;" d="M 3.484375 4.429688 C 3.152344 4.429688 2.886719 4.753906 2.886719 5.160156 L 2.886719 19.949219 C 2.886719 20.257812 3.089844 20.507812 3.34375 20.507812 L 20.707031 20.507812 C 20.960938 20.507812 21.164062 20.257812 21.164062 19.949219 L 21.164062 7.089844 C 21.164062 6.480469 20.761719 5.988281 20.261719 5.988281 L 10.957031 5.988281 C 10.707031 5.988281 10.609375 5.953125 10.453125 5.773438 L 9.519531 4.648438 C 9.515625 4.644531 9.511719 4.640625 9.507812 4.636719 C 9.398438 4.507812 9.253906 4.429688 9.089844 4.429688 Z M 3.484375 4.429688 "/>
<path style=" stroke:none;fill-rule:nonzero;fill:rgb(100%,78.039217%,18.039216%);fill-opacity:1;" d="M 2.628906 11.34375 C 2.652344 11.421875 2.699219 11.488281 2.769531 11.535156 L 14.230469 19.152344 C 14.394531 19.261719 14.613281 19.21875 14.722656 19.058594 L 18.835938 10.847656 C 18.945312 10.683594 18.90625 10.46875 18.742188 10.359375 L 9.488281 1.703125 C 9.324219 1.59375 9.105469 1.636719 8.992188 1.796875 L 2.675781 11.050781 C 2.613281 11.140625 2.601562 11.25 2.628906 11.34375 Z M 2.628906 11.34375 "/>
<path style=" stroke:none;fill-rule:nonzero;fill:rgb(100%,100%,100%);fill-opacity:1;" d="M 16.507812 3.261719 C 16.433594 3.25 16.351562 3.261719 16.277344 3.308594 L 4.496094 10.421875 C 4.328125 10.523438 4.273438 10.738281 4.375 10.90625 L 10.042969 18.132812 C 10.144531 18.300781 10.355469 18.355469 10.523438 18.253906 L 22.304688 13.578125 C 22.472656 13.476562 22.527344 13.261719 22.425781 13.089844 L 16.757812 3.429688 C 16.703125 3.335938 16.609375 3.277344 16.507812 3.261719 Z M 16.507812 3.261719 "/>
<path style=" stroke:none;fill-rule:evenodd;fill:url(#linear0);" d="M 2.628906 9.363281 C 2.265625 9.363281 1.96875 9.578125 1.96875 9.84375 L 1.96875 19.617188 C 1.96875 19.824219 2.195312 19.988281 2.472656 19.988281 L 21.527344 19.988281 C 21.804688 19.988281 22.03125 19.824219 22.03125 19.617188 L 22.03125 11.117188 C 22.03125 10.714844 21.585938 10.394531 21.039062 10.394531 L 10.824219 10.394531 C 10.554688 10.394531 10.445312 10.371094 10.273438 10.25 L 9.25 9.507812 C 9.246094 9.503906 9.242188 9.5 9.238281 9.5 L 9.234375 9.496094 C 9.117188 9.414062 8.957031 9.363281 8.777344 9.363281 Z M 2.628906 9.363281 "/>
<use xlink:href="#surface5" mask="url(#mask0)"/>
<path style=" stroke:none;fill-rule:nonzero;fill:rgb(0%,0%,0%);fill-opacity:0.588235;" d="M 3.707031 10.214844 L 8.851562 10.214844 C 9.097656 10.214844 9.296875 10.417969 9.296875 10.664062 L 9.296875 10.878906 C 9.296875 11.125 9.097656 11.324219 8.851562 11.324219 L 3.707031 11.324219 C 3.460938 11.324219 3.261719 11.125 3.261719 10.878906 L 3.261719 10.664062 C 3.261719 10.417969 3.460938 10.214844 3.707031 10.214844 Z M 3.707031 10.214844 "/>
<path style=" stroke:none;fill-rule:nonzero;fill:rgb(100%,100%,100%);fill-opacity:1;" d="M 3.386719 10.023438 L 8.53125 10.023438 C 8.777344 10.023438 8.976562 10.222656 8.976562 10.46875 L 8.976562 10.6875 C 8.976562 10.933594 8.777344 11.132812 8.53125 11.132812 L 3.386719 11.132812 C 3.140625 11.132812 2.941406 10.933594 2.941406 10.6875 L 2.941406 10.46875 C 2.941406 10.222656 3.140625 10.023438 3.386719 10.023438 Z M 3.386719 10.023438 "/>
</g>
</svg>
