<?xml version="1.0" encoding="UTF-8" standalone="no"?>
<svg
   xmlns:dc="http://purl.org/dc/elements/1.1/"
   xmlns:cc="http://creativecommons.org/ns#"
   xmlns:rdf="http://www.w3.org/1999/02/22-rdf-syntax-ns#"
   xmlns:svg="http://www.w3.org/2000/svg"
   xmlns="http://www.w3.org/2000/svg"
   xmlns:xlink="http://www.w3.org/1999/xlink"
   xmlns:sodipodi="http://sodipodi.sourceforge.net/DTD/sodipodi-0.dtd"
   xmlns:inkscape="http://www.inkscape.org/namespaces/inkscape"
   width="48"
   height="48"
   version="1"
   id="svg14"
   sodipodi:docname="application-audio.svg"
   inkscape:version="0.92.4 5da689c313, 2019-01-14">
  <metadata
     id="metadata20">
    <rdf:RDF>
      <cc:Work
         rdf:about="">
        <dc:format>image/svg+xml</dc:format>
        <dc:type
           rdf:resource="http://purl.org/dc/dcmitype/StillImage" />
        <dc:title />
      </cc:Work>
    </rdf:RDF>
  </metadata>
  <defs
     id="defs18">
    <linearGradient
       inkscape:collect="always"
       id="linearGradient936">
      <stop
         style="stop-color:#ffffff;stop-opacity:1;"
         offset="0"
         id="stop932" />
      <stop
         style="stop-color:#ffffff;stop-opacity:0;"
         offset="1"
         id="stop934" />
    </linearGradient>
    <linearGradient
       inkscape:collect="always"
       id="linearGradient904">
      <stop
         style="stop-color:#f0f0f0;stop-opacity:1"
         offset="0"
         id="stop900" />
      <stop
         style="stop-color:#f5f5f5;stop-opacity:1"
         offset="1"
         id="stop902" />
    </linearGradient>
    <linearGradient
       inkscape:collect="always"
       xlink:href="#linearGradient904"
       id="linearGradient906"
       x1="22.408747"
       y1="43.990749"
       x2="25.878891"
       y2="5.3036175"
       gradientUnits="userSpaceOnUse" />
    <linearGradient
       inkscape:collect="always"
       xlink:href="#linearGradient936"
       id="linearGradient938"
       x1="23.796082"
       y1="4.5424023"
       x2="23.780439"
       y2="7.3395042"
       gradientUnits="userSpaceOnUse" />
  </defs>
  <sodipodi:namedview
     pagecolor="#ffffff"
     bordercolor="#666666"
     borderopacity="1"
     objecttolerance="10"
     gridtolerance="10"
     guidetolerance="10"
     inkscape:pageopacity="0"
     inkscape:pageshadow="2"
     inkscape:window-width="1366"
     inkscape:window-height="711"
     id="namedview16"
     showgrid="false"
     showguides="false"
     inkscape:guide-bbox="true"
     inkscape:zoom="6.9532167"
     inkscape:cx="25.540061"
     inkscape:cy="10.622802"
     inkscape:window-x="0"
     inkscape:window-y="25"
     inkscape:window-maximized="1"
     inkscape:current-layer="svg14">
    <sodipodi:guide
       position="40,28.705882"
       orientation="0,1"
       id="guide827"
       inkscape:locked="false" />
    <sodipodi:guide
       position="24.942769,44"
       orientation="1,0"
       id="guide829"
       inkscape:locked="false" />
  </sodipodi:namedview>
  <rect
     style="opacity:1;fill:#000000;fill-opacity:0.19607843;fill-rule:evenodd;stroke:none;stroke-width:1.2267921;stroke-linejoin:round;stroke-miterlimit:4;stroke-dasharray:none;stroke-opacity:0.19607843;paint-order:stroke fill markers"
     id="rect828-1"
     width="40"
     height="40"
     x="4"
     y="5"
     rx="2.8763666"
     ry="2.8763666" />
  <rect
     style="opacity:1;fill:url(#linearGradient906);fill-opacity:1;fill-rule:evenodd;stroke:none;stroke-width:1.2267921;stroke-linejoin:round;stroke-miterlimit:4;stroke-dasharray:none;stroke-opacity:0.19607843;paint-order:stroke fill markers"
     id="rect828"
     width="40"
     height="40"
     x="4"
     y="4"
     rx="2.5168207"
     ry="2.5168207" />
  <path
     style="color:#4d4d4d;fill:#ffffff;fill-opacity:1;stroke:none;stroke-width:1"
     class="ColorScheme-Text"
     d="m 29.477807,17.924462 -7.377542,1.905772 c -0.554269,0.148381 -1.001448,0.738303 -1.001448,1.311584 v 9.089677 c -0.562044,-0.294023 -1.283931,-0.412862 -2.032288,-0.218597 -1.350421,0.350549 -2.195795,1.483145 -1.90632,2.529768 0.289476,1.046623 1.620333,1.630345 2.970752,1.279788 1.077356,-0.279664 1.81937,-1.069361 1.937812,-1.903784 l 0.03149,-8.590878 7.003836,-1.873975 v 6.778506 c -0.56205,-0.294024 -1.283935,-0.412865 -2.032288,-0.218598 -1.350421,0.350551 -2.197895,1.483138 -1.90842,2.529768 0.289475,1.046622 1.620336,1.630346 2.970753,1.279789 1.077358,-0.279667 1.819371,-1.069358 1.937811,-1.903785 l 0.0315,-11.18225 c 0,-0.42996 -0.266314,-0.752305 -0.625642,-0.812785 z"
     id="path4-6"
     inkscape:connector-curvature="0" />
  <path
     style="color:#4d4d4d;fill:#969696;fill-opacity:1;stroke:none;stroke-width:1"
     class="ColorScheme-Text"
     d="m 29.374358,17 -7.377542,1.905772 c -0.554269,0.148381 -1.001448,0.738303 -1.001448,1.311584 v 9.089677 c -0.562044,-0.294023 -1.283931,-0.412862 -2.032288,-0.218597 -1.350421,0.350549 -2.195795,1.483145 -1.90632,2.529768 0.289476,1.046623 1.620333,1.630345 2.970752,1.279788 1.077356,-0.279664 1.81937,-1.069361 1.937812,-1.903784 l 0.03149,-8.590878 7.003836,-1.873975 v 6.778506 c -0.56205,-0.294024 -1.283935,-0.412865 -2.032288,-0.218598 -1.350421,0.350551 -2.197895,1.483138 -1.90842,2.529768 0.289475,1.046622 1.620336,1.630346 2.970753,1.279789 1.077358,-0.279667 1.819371,-1.069358 1.937811,-1.903785 l 0.0315,-11.18225 c 0,-0.42996 -0.266314,-0.752305 -0.625642,-0.812785 z"
     id="path4"
     inkscape:connector-curvature="0" />
  <rect
     style="opacity:1;fill:none;fill-opacity:1;fill-rule:evenodd;stroke:url(#linearGradient938);stroke-width:0.97560978;stroke-linejoin:round;stroke-miterlimit:4;stroke-dasharray:none;stroke-opacity:1;paint-order:stroke fill markers"
     id="rect828-9"
     width="39.024391"
     height="39.024391"
     x="4.4878044"
     y="4.4878044"
     rx="2.4554348"
     ry="2.4554348" />
</svg>
