<?xml version="1.0" encoding="UTF-8" standalone="no"?>
<svg
   xmlns:dc="http://purl.org/dc/elements/1.1/"
   xmlns:cc="http://creativecommons.org/ns#"
   xmlns:rdf="http://www.w3.org/1999/02/22-rdf-syntax-ns#"
   xmlns:svg="http://www.w3.org/2000/svg"
   xmlns="http://www.w3.org/2000/svg"
   xmlns:sodipodi="http://sodipodi.sourceforge.net/DTD/sodipodi-0.dtd"
   xmlns:inkscape="http://www.inkscape.org/namespaces/inkscape"
   width="36pt"
   height="36pt"
   version="1.1"
   viewBox="0 0 36 36"
   id="svg16"
   sodipodi:docname="application-executable.svg"
   inkscape:version="0.92.4 5da689c313, 2019-01-14">
  <metadata
     id="metadata22">
    <rdf:RDF>
      <cc:Work
         rdf:about="">
        <dc:format>image/svg+xml</dc:format>
        <dc:type
           rdf:resource="http://purl.org/dc/dcmitype/StillImage" />
        <dc:title></dc:title>
      </cc:Work>
    </rdf:RDF>
  </metadata>
  <defs
     id="defs20" />
  <sodipodi:namedview
     pagecolor="#ffffff"
     bordercolor="#666666"
     borderopacity="1"
     objecttolerance="10"
     gridtolerance="10"
     guidetolerance="10"
     inkscape:pageopacity="0"
     inkscape:pageshadow="2"
     inkscape:window-width="1366"
     inkscape:window-height="693"
     id="namedview18"
     showgrid="false"
     inkscape:zoom="13.906433"
     inkscape:cx="29.037543"
     inkscape:cy="22.790502"
     inkscape:window-x="0"
     inkscape:window-y="0"
     inkscape:window-maximized="1"
     inkscape:current-layer="g14" />
  <g
     id="g14">
    <path
       style="fill:rgb(90.196%,90.196%,90.196%)"
       d="M 4.714844 3 C 3.855469 3 3 3.855469 3 4.714844 L 3 31.332031 C 3 32.144531 3.855469 33 4.667969 33 L 31.332031 33 C 32.144531 33 33 32.144531 33 31.332031 L 33 4.667969 C 33 3.855469 32.140625 3 31.332031 3 Z M 4.714844 3"
       id="path2" />
    <path
       style="fill:rgb(70.196%,70.196%,70.196%)"
       d="M 5.082031 3 C 4.527344 3 4.027344 3.273438 3.652344 3.652344 C 3.273438 4.027344 3 4.527344 3 5.082031 L 3 30.96875 C 3 31.507812 3.253906 32.003906 3.625 32.375 C 3.996094 32.746094 4.492188 33 5.03125 33 L 30.96875 33 C 31.507812 33 32.003906 32.746094 32.375 32.375 C 32.746094 32.003906 33 31.507812 33 30.96875 L 33 5.03125 C 33 4.492188 32.746094 3.996094 32.375 3.625 C 32.003906 3.253906 31.507812 3 30.96875 3 Z M 5.082031 3.832031 L 30.96875 3.832031 C 31.214844 3.832031 31.53125 3.980469 31.773438 4.222656 C 32.019531 4.46875 32.167969 4.785156 32.167969 5.03125 L 32.167969 30.96875 C 32.167969 31.214844 32.019531 31.53125 31.777344 31.777344 C 31.53125 32.019531 31.214844 32.167969 30.96875 32.167969 L 5.03125 32.167969 C 4.785156 32.167969 4.46875 32.019531 4.222656 31.777344 C 3.980469 31.53125 3.832031 31.214844 3.832031 30.96875 L 3.832031 5.082031 C 3.832031 4.804688 3.976562 4.472656 4.222656 4.222656 C 4.472656 3.976562 4.804688 3.832031 5.082031 3.832031 Z M 5.082031 3.832031"
       id="path4" />
    <path
       d="m 14.052513,24.663737 c -0.101103,-0.10861 -0.173463,-0.30737 -0.172404,-0.47435 3.6e-4,-0.0861 0.08905,-0.37996 0.253279,-0.84013 0.139063,-0.38937 0.254528,-0.7429 0.256837,-0.78566 0.003,-0.0566 -0.06456,-0.14002 -0.249561,-0.3079 -0.139592,-0.12672 -0.342329,-0.33471 -0.450519,-0.46232 -0.108379,-0.12778 -0.226863,-0.2449 -0.263573,-0.26035 -0.04118,-0.0174 -0.343389,0.0701 -0.78912,0.22858 -0.397309,0.14127 -0.778816,0.26088 -0.847658,0.26585 -0.141541,0.0105 -0.407593,-0.0909 -0.521449,-0.19859 -0.09045,-0.0857 -0.752571,-1.68934 -0.767143,-1.85807 -0.01439,-0.16736 0.101814,-0.41972 0.248492,-0.54023 0.06686,-0.0548 0.428531,-0.2387 0.803652,-0.40836 0.403875,-0.18279 0.693184,-0.33488 0.709305,-0.37286 0.01489,-0.0353 0.01829,-0.2009 0.007,-0.36807 -0.01079,-0.167 -0.01,-0.45682 0.002,-0.64405 0.01209,-0.18705 0.004,-0.36221 -0.01829,-0.38901 -0.02219,-0.0268 -0.343918,-0.1977 -0.714792,-0.37978 -0.431369,-0.21172 -0.715341,-0.36896 -0.7884,-0.43622 -0.138883,-0.12813 -0.242645,-0.40942 -0.208054,-0.5649 0.01379,-0.063 0.193152,-0.49835 0.398018,-0.9672 l 0.372832,-0.8524 0.150766,-0.0818 c 0.266232,-0.14428 0.357391,-0.1315 1.209676,0.16966 0.482441,0.17055 0.781124,0.26106 0.815006,0.24721 0.02948,-0.0121 0.168496,-0.14392 0.308797,-0.29282 0.140472,-0.14889 0.345338,-0.34748 0.455297,-0.44101 0.109968,-0.0935 0.210892,-0.19628 0.224545,-0.22804 0.01349,-0.0319 -0.08066,-0.35743 -0.209294,-0.72319 -0.128598,-0.36559 -0.248321,-0.723 -0.266231,-0.79401 -0.05017,-0.19983 -0.009,-0.40339 0.113516,-0.56772 0.09275,-0.12405 0.187126,-0.17268 0.93401,-0.48094 0.456885,-0.18847 0.89606,-0.34766 0.975886,-0.3537 0.185347,-0.0138 0.427632,0.0877 0.545916,0.22876 0.04987,0.0594 0.229162,0.41261 0.398727,0.78511 0.169386,0.37233 0.322281,0.69565 0.339661,0.71855 0.01849,0.024 0.189964,0.0348 0.408313,0.0257 0.207164,-0.009 0.510275,-0.005 0.673654,0.007 0.221527,0.0169 0.314475,0.007 0.365556,-0.0389 0.03748,-0.0337 0.217639,-0.3647 0.400327,-0.73559 0.351195,-0.71306 0.425153,-0.81796 0.642412,-0.91146 0.241756,-0.10382 0.344099,-0.0774 1.276019,0.33027 l 0.848877,0.37144 0.09595,0.14499 c 0.165128,0.24935 0.152715,0.35583 -0.137634,1.19168 -0.140661,0.40481 -0.261444,0.76948 -0.26854,0.81069 -0.01009,0.058 0.04378,0.12654 0.238377,0.3033 0.138353,0.12564 0.351724,0.34624 0.474096,0.49034 0.122382,0.14393 0.234839,0.26709 0.250091,0.27366 0.01529,0.006 0.357041,-0.1056 0.759656,-0.24881 0.402626,-0.14322 0.797426,-0.26568 0.877621,-0.27224 0.189255,-0.0153 0.419476,0.0832 0.554091,0.23728 0.06406,0.0731 0.231821,0.43781 0.427992,0.93031 0.337012,0.84512 0.354562,0.93294 0.240696,1.20272 -0.08036,0.19095 -0.218339,0.28004 -0.960125,0.62078 -0.403515,0.18527 -0.738899,0.34961 -0.745485,0.36523 -0.007,0.0158 -0.004,0.20888 0.006,0.42947 0.01029,0.22042 0.006,0.52156 -0.009,0.66908 -0.01879,0.18315 -0.01059,0.28537 0.02519,0.32264 0.02908,0.03 0.370343,0.21332 0.758427,0.40729 0.770141,0.38493 0.883848,0.47154 0.937428,0.71451 0.05057,0.22964 0.009,0.36825 -0.366986,1.22575 l -0.359879,0.82028 -0.155204,0.0967 c -0.276875,0.1725 -0.325998,0.16664 -1.227925,-0.14837 -0.440765,-0.15386 -0.812008,-0.27543 -0.825131,-0.2701 -0.01309,0.005 -0.12452,0.11979 -0.247432,0.25449 -0.123091,0.1347 -0.341969,0.34553 -0.486718,0.46849 -0.14455,0.12299 -0.266582,0.24491 -0.271199,0.27064 -0.005,0.0259 0.104292,0.36452 0.242115,0.75263 0.137813,0.38794 0.255757,0.78333 0.262324,0.87865 0.01379,0.20231 -0.05307,0.38209 -0.193333,0.51929 -0.123801,0.12103 -1.616199,0.73931 -1.822844,0.75512 -0.172763,0.0133 -0.434378,-0.0884 -0.55533,-0.2158 -0.04627,-0.0488 -0.230222,-0.40818 -0.408653,-0.7986 -0.17844,-0.39044 -0.347466,-0.71983 -0.37585,-0.73187 -0.02818,-0.0121 -0.220287,-0.0158 -0.426742,-0.008 -0.206465,0.007 -0.505878,0.003 -0.66512,-0.0105 -0.220117,-0.0183 -0.300112,-0.01 -0.333464,0.0364 -0.02429,0.0332 -0.201837,0.37322 -0.39482,0.75567 -0.424273,0.8414 -0.497153,0.92105 -0.863089,0.9459 -0.106071,0.007 -0.253998,-0.0465 -0.984921,-0.35778 -0.647039,-0.27561 -0.87957,-0.38724 -0.938277,-0.45024 z m 2.896996,-3.30554 c 0.810918,0.24793 1.591003,0.21332 2.377625,-0.10559 0.599505,-0.24313 1.071502,-0.60106 1.48779,-1.12798 0.260915,-0.33045 0.61018,-1.15638 0.667438,-1.57858 0.173824,-1.28114 -0.289648,-2.47532 -1.280426,-3.29932 -0.230751,-0.19184 -0.299403,-0.23 -0.813047,-0.45042 -0.492026,-0.21118 -0.598466,-0.24597 -0.865547,-0.28217 -1.333637,-0.18049 -2.655061,0.39274 -3.41013,1.47936 -0.678422,0.97624 -0.813597,2.20913 -0.364847,3.32684 0.235009,0.5853 0.638185,1.11254 1.150779,1.50494 0.146159,0.11198 0.365206,0.24331 0.685368,0.41119 0.02559,0.0133 0.189794,0.0682 0.365037,0.12175 z m -0.225625,-1.68507 c -0.724736,-0.56949 -1.002301,-1.50988 -0.69885,-2.36741 0.212132,-0.59948 0.60963,-1.01423 1.199551,-1.2517 1.074502,-0.43249 2.283638,0.0722 2.714278,1.13262 0.354742,0.87352 0.132676,1.80769 -0.572721,2.41107 -0.600905,0.51393 -1.362191,0.64473 -2.108225,0.36222 -0.253999,-0.0962 -0.372653,-0.1599 -0.534073,-0.28679 z m 1.259498,-0.42166 c 0.262144,0.0114 0.722598,-0.12512 0.93401,-0.30827 0.149347,-0.1292 0.181979,-0.17942 0.303481,-0.46604 0.129128,-0.30506 0.05037,-0.334 0.02768,-0.57108 -0.04597,-0.47862 -0.275446,-0.80873 -0.707885,-1.01849 -0.347466,-0.16842 -0.59188,-0.18333 -0.947502,-0.0577 -0.451049,0.15937 -0.755429,0.5177 -0.823721,0.96952 -0.05927,0.39132 0.03068,0.71201 0.283612,1.01177 0.235729,0.27969 0.539569,0.42362 0.930291,0.4403 z"
       id="path8-3"
       inkscape:connector-curvature="0"
       style="fill:#000000;fill-opacity:0.35294118;stroke:none;stroke-width:0.34064484;stroke-miterlimit:4;stroke-dasharray:none;stroke-opacity:0.58823529" />
  </g>
</svg>
