<?xml version="1.0" encoding="UTF-8" standalone="no"?>
<svg
   xmlns:dc="http://purl.org/dc/elements/1.1/"
   xmlns:cc="http://creativecommons.org/ns#"
   xmlns:rdf="http://www.w3.org/1999/02/22-rdf-syntax-ns#"
   xmlns:svg="http://www.w3.org/2000/svg"
   xmlns="http://www.w3.org/2000/svg"
   xmlns:sodipodi="http://sodipodi.sourceforge.net/DTD/sodipodi-0.dtd"
   xmlns:inkscape="http://www.inkscape.org/namespaces/inkscape"
   width="48"
   height="48"
   version="1"
   id="svg14"
   sodipodi:docname="application-vnd.debian.binary-package.svg"
   inkscape:version="0.92.4 5da689c313, 2019-01-14">
  <metadata
     id="metadata20">
    <rdf:RDF>
      <cc:Work
         rdf:about="">
        <dc:format>image/svg+xml</dc:format>
        <dc:type
           rdf:resource="http://purl.org/dc/dcmitype/StillImage" />
        <dc:title />
      </cc:Work>
    </rdf:RDF>
  </metadata>
  <defs
     id="defs18" />
  <sodipodi:namedview
     pagecolor="#ffffff"
     bordercolor="#666666"
     borderopacity="1"
     objecttolerance="10"
     gridtolerance="10"
     guidetolerance="10"
     inkscape:pageopacity="0"
     inkscape:pageshadow="2"
     inkscape:window-width="1366"
     inkscape:window-height="711"
     id="namedview16"
     showgrid="false"
     showguides="false"
     inkscape:guide-bbox="true"
     inkscape:zoom="9.8333333"
     inkscape:cx="15.186532"
     inkscape:cy="25.672141"
     inkscape:window-x="0"
     inkscape:window-y="25"
     inkscape:window-maximized="1"
     inkscape:current-layer="svg14">
    <sodipodi:guide
       position="40,28.705882"
       orientation="0,1"
       id="guide827"
       inkscape:locked="false" />
    <sodipodi:guide
       position="24.942769,44"
       orientation="1,0"
       id="guide829"
       inkscape:locked="false" />
  </sodipodi:namedview>
  <path
     inkscape:connector-curvature="0"
     style="fill:#fd4747;stroke-width:0.12499367"
     d="m 43.998535,24.000016 c 0,11.045312 -8.953653,19.999 -19.998968,19.999 -11.045314,0 -19.999002,-8.953688 -19.999002,-19.999 0,-11.045314 8.953688,-19.9989623 19.999002,-19.9989623 11.045315,0 19.998968,8.9536483 19.998968,19.9989623 z"
     id="path16" />
  <path
     inkscape:connector-curvature="0"
     style="opacity:0.3;stroke-width:0.12499367"
     d="m 31.675434,23.065083 c 0.02658,0.701609 -0.195651,1.042429 -0.395522,1.645412 l -0.359822,0.186651 c -0.293987,0.596646 0.03,0.378887 -0.180976,0.852969 -0.45945,0.425753 -1.391553,1.33242 -1.690272,1.415418 -0.218326,-0.0033 0.148001,-0.269001 0.195351,-0.372054 -0.613743,0.440417 -0.492647,0.661111 -1.43205,0.92917 l -0.02658,-0.06433 c -2.315785,1.138126 -5.532972,-1.117131 -5.490975,-4.193652 -0.02325,0.194651 -0.07033,0.146325 -0.120975,0.224651 -0.119651,-1.582914 0.699676,-3.17269 2.081896,-3.822533 1.35242,-0.698711 2.937363,-0.412587 3.905061,0.531213 -0.531713,-0.728009 -1.590811,-1.499411 -2.8446,-1.428183 -1.229457,0.02 -2.379283,0.836869 -2.763003,1.722539 -0.629378,0.414055 -0.703076,1.596179 -0.976998,1.812902 -0.369619,2.833868 0.694312,4.057925 2.494009,5.498243 0.282316,0.199351 0.07965,0.229351 0.116976,0.381319 -0.597614,-0.291991 -1.144959,-0.733374 -1.595177,-1.273822 0.238652,0.365222 0.496583,0.719709 0.83004,0.998498 -0.563916,-0.198651 -1.317287,-1.426685 -1.536548,-1.476415 0.971632,1.817272 3.941693,3.186824 5.497737,2.507248 -0.720172,0.02657 -1.634672,0.0165 -2.443246,-0.296991 -0.340319,-0.182651 -0.801737,-0.560546 -0.719209,-0.630844 2.122897,0.827602 4.315651,0.626444 6.152053,-0.911105 0.46775,-0.380352 0.977963,-1.026795 1.125929,-1.035595 -0.222326,0.349122 0.038,0.168001 -0.132651,0.47605 C 31.8307,25.957235 31.163231,26.42219 31.8468,25.387424 l 0.252316,0.362795 c -0.09432,-0.651346 0.774374,-1.44182 0.686011,-2.471513 0.199351,-0.314992 0.222301,0.339321 0.0098,1.063428 0.293324,-0.803674 0.07765,-0.93257 0.152976,-1.596179 0.08098,0.223001 0.188326,0.45995 0.243001,0.695277 -0.191351,-0.776805 0.195351,-1.307555 0.291654,-1.75917 -0.09465,-0.04335 -0.294989,0.343252 -0.340819,-0.573681 0.0065,-0.398422 0.106326,-0.209001 0.144651,-0.306989 -0.07465,-0.04498 -0.271002,-0.350557 -0.39062,-0.93597 0.086,-0.138325 0.231352,0.356922 0.349622,0.376922 -0.07637,-0.465313 -0.206696,-0.82077 -0.212046,-1.178154 -0.344689,-0.751909 -0.122001,0.10065 -0.401317,-0.322657 -0.36719,-1.194791 0.304322,-0.277316 0.349587,-0.819804 0.55561,0.840804 0.872502,2.144391 1.018498,2.684004 -0.111351,-0.658174 -0.290657,-1.295819 -0.51025,-1.913033 0.16935,0.07465 -0.272002,-1.353952 0.220326,-0.408182 -0.525386,-2.016528 -2.246022,-3.900663 -3.829436,-4.784901 0.193351,0.184976 0.437952,0.417485 0.350557,0.454085 -0.788039,-0.489217 -0.649381,-0.528283 -0.762142,-0.734809 -0.641076,-0.272316 -0.684073,0.02325 -1.107863,5e-4 -1.209342,-0.669906 -1.442233,-0.599113 -2.555424,-1.018495 l 0.05065,0.247651 c -0.800739,-0.278659 -0.933065,0.104976 -1.798804,5.03e-4 -0.05265,-0.04232 0.277316,-0.155351 0.54928,-0.196326 -0.774371,0.106975 -0.738239,-0.159651 -1.496043,0.03 0.186651,-0.136651 0.38425,-0.227652 0.583478,-0.343722 -0.631313,0.04 -1.50818,0.383754 -1.237726,0.07065 -1.029758,0.47995 -2.859731,1.154261 -3.886064,2.159521 l -0.03333,-0.225 c -0.470217,0.589848 -2.051161,1.761169 -2.177159,2.525748 l -0.126001,0.03 c -0.244651,0.432585 -0.403317,0.9233 -0.597143,1.368553 -0.320327,0.56981 -0.469215,0.219351 -0.42379,0.308654 -0.629841,1.333952 -0.94283,2.454015 -1.212821,3.37385 0.192326,0.300654 0.0035,1.809903 0.07698,3.017457 -0.315989,5.965559 4.008562,11.75629 8.73543,13.093075 0.692841,0.259659 1.723039,0.250001 2.599009,0.276004 -1.033631,-0.308987 -1.166927,-0.163651 -2.17466,-0.530245 -0.726506,-0.35789 -0.885202,-0.765572 -1.400285,-1.232357 l 0.203651,0.375952 c -1.008752,-0.373987 -0.586903,-0.461885 -1.407707,-0.733841 l 0.217651,-0.296322 c -0.326987,-0.02657 -0.866635,-0.575648 -1.014098,-0.880805 l -0.357884,0.0135 c -0.430165,-0.55327 -0.659154,-0.953157 -0.642559,-1.263144 l -0.11565,0.215351 c -0.131651,-0.234651 -1.582909,-2.078494 -0.829535,-1.648774 -0.140001,-0.13265 -0.325989,-0.216651 -0.527315,-0.59958 l 0.153351,-0.182976 c -0.361787,-0.486791 -0.666446,-1.110804 -0.643511,-1.318833 0.193351,0.272317 0.327656,0.323662 0.460417,0.37059 -0.91497,-2.371015 -0.966268,-0.130326 -1.659044,-2.413015 l 0.146326,-0.0135 C 15.708655,27.621866 15.64033,27.430393 15.550007,27.241932 l 0.064,-0.663541 c -0.658176,-0.793907 -0.184001,-3.380711 -0.08898,-4.799496 0.066,-0.576148 0.549783,-1.190859 0.9179,-2.153659 l -0.224001,-0.04 c 0.428687,-0.780707 2.447115,-3.136089 3.382183,-3.014961 0.453117,-0.594213 -0.08965,-0.0024 -0.178651,-0.152001 0.995065,-1.075066 1.308052,-0.759639 1.979398,-0.953 0.723606,-0.448685 -0.621548,0.175351 -0.278316,-0.171351 1.251926,-0.333487 0.886669,-0.758772 2.519348,-0.9282 0.172326,0.102651 -0.39939,0.158326 -0.54295,0.290989 1.04243,-0.533148 3.300087,-0.411587 4.7669,0.295324 1.700542,0.830505 3.612575,3.284953 3.688303,5.59447 l 0.086,0.0235 c -0.04335,0.917938 0.134326,1.979898 -0.174326,2.954963 l 0.208326,-0.461885"
     id="path18" />
  <path
     inkscape:connector-curvature="0"
     style="fill:#ffffff;stroke-width:0.12499367"
     d="m 31.675434,22.127618 c 0.02658,0.701642 -0.195651,1.042431 -0.395522,1.645409 l -0.359822,0.186651 c -0.293987,0.596646 0.03,0.378887 -0.180976,0.853007 -0.45945,0.42575 -1.391553,1.332418 -1.690272,1.415415 -0.218326,-0.0032 0.148001,-0.269001 0.195351,-0.372057 -0.613743,0.440388 -0.492647,0.661112 -1.43205,0.929135 l -0.02658,-0.06433 c -2.315808,1.138126 -5.532995,-1.117123 -5.490995,-4.193685 -0.02325,0.194651 -0.07033,0.146326 -0.120975,0.224651 -0.119651,-1.582911 0.699673,-3.172724 2.081893,-3.822565 1.35242,-0.698676 2.937361,-0.412585 3.905064,0.531215 -0.531715,-0.727974 -1.590811,-1.499413 -2.8446,-1.428185 -1.22946,0.02 -2.379286,0.836875 -2.763005,1.722542 -0.629379,0.414052 -0.703074,1.596176 -0.976998,1.812937 -0.369622,2.833833 0.694311,4.057887 2.494011,5.498207 0.282316,0.199351 0.07965,0.229351 0.116976,0.381317 -0.597606,-0.291989 -1.144954,-0.733341 -1.595172,-1.273784 0.238652,0.365219 0.496583,0.719671 0.830037,0.998463 -0.563913,-0.198652 -1.317284,-1.426683 -1.536548,-1.476416 0.971635,1.817267 3.941699,3.186822 5.497742,2.507246 -0.720171,0.02657 -1.634674,0.0165 -2.443248,-0.296992 -0.340319,-0.18265 -0.801737,-0.560513 -0.719209,-0.630845 2.122897,0.827607 4.315651,0.626445 6.152056,-0.911065 0.46775,-0.380355 0.977963,-1.026801 1.125926,-1.035601 -0.222326,0.34909 0.038,0.168001 -0.132651,0.476053 0.464818,-0.78464 -0.202651,-0.31999 0.480918,-1.354453 l 0.252316,0.362787 c -0.09432,-0.651313 0.774374,-1.441782 0.686011,-2.471478 0.199351,-0.314987 0.222326,0.339319 0.0097,1.063396 0.293322,-0.80367 0.07765,-0.932568 0.152976,-1.596146 0.08098,0.223001 0.188326,0.45992 0.243001,0.695273 -0.191351,-0.776836 0.195351,-1.307587 0.291654,-1.759169 -0.09465,-0.04335 -0.294986,0.343257 -0.340819,-0.573713 0.0065,-0.398382 0.106326,-0.209001 0.144651,-0.306987 -0.07465,-0.04497 -0.271002,-0.350589 -0.39062,-0.936002 0.086,-0.138001 0.231352,0.356919 0.349622,0.376955 -0.07627,-0.465313 -0.206596,-0.820767 -0.211946,-1.178189 -0.344689,-0.751907 -0.122001,0.10065 -0.401317,-0.322655 -0.36719,-1.194758 0.304322,-0.277316 0.349589,-0.819769 0.555608,0.84077 0.8725,2.144387 1.018496,2.683972 -0.111351,-0.658176 -0.290657,-1.295824 -0.51025,-1.913035 0.16935,0.07465 -0.272002,-1.353918 0.220326,-0.408185 -0.525383,-2.016496 -2.246022,-3.900663 -3.829436,-4.784868 0.193351,0.184976 0.437952,0.417455 0.350557,0.454087 -0.788039,-0.48925 -0.649381,-0.528315 -0.762142,-0.734844 -0.641076,-0.272316 -0.684073,0.02325 -1.107863,5e-4 -1.209419,-0.669908 -1.442313,-0.59911 -2.555506,-1.018495 l 0.05065,0.247651 c -0.800739,-0.279001 -0.933068,0.104976 -1.798802,4.65e-4 -0.05265,-0.04232 0.277316,-0.155351 0.549278,-0.196326 -0.774372,0.106976 -0.738237,-0.159651 -1.496046,0.03 0.186651,-0.136651 0.384255,-0.227651 0.583478,-0.343749 -0.631311,0.04 -1.50818,0.383784 -1.237724,0.07065 -1.029678,0.47995 -2.85965,1.154258 -3.885983,2.159524 l -0.03335,-0.224976 c -0.470218,0.58981 -2.051161,1.761169 -2.17716,2.525743 l -0.126,0.03 c -0.244652,0.432585 -0.40332,0.923303 -0.597148,1.368555 -0.320322,0.569813 -0.469215,0.219351 -0.423785,0.308652 -0.629876,1.333922 -0.942833,2.454015 -1.212824,3.373817 0.192326,0.300659 0.0035,1.809903 0.07698,3.017494 -0.315989,5.96556 4.008562,11.756253 8.735427,13.093073 0.692844,0.259659 1.723042,0.250001 2.599012,0.276001 -1.033628,-0.308986 -1.166927,-0.16365 -2.174657,-0.530245 -0.726509,-0.357892 -0.885202,-0.765579 -1.400285,-1.232359 l 0.203651,0.375952 c -1.00876,-0.373967 -0.586911,-0.461833 -1.407718,-0.733794 l 0.217652,-0.296319 c -0.326987,-0.02658 -0.866635,-0.575646 -1.014098,-0.880802 l -0.35789,0.0135 C 19.048301,33.162597 18.81931,32.76271 18.835907,32.45272 l -0.11565,0.215352 C 18.588606,32.43307 17.137348,30.589545 17.890722,31.019298 17.750721,30.886322 17.56473,30.802647 17.363407,30.419717 l 0.153351,-0.182976 c -0.361792,-0.486903 -0.666451,-1.110881 -0.643516,-1.318907 0.193351,0.272316 0.327656,0.323652 0.460417,0.370587 -0.91497,-2.371018 -0.966268,-0.130326 -1.659044,-2.413016 l 0.146326,-0.0135 c -0.112326,-0.177576 -0.180676,-0.369047 -0.270984,-0.557508 l 0.064,-0.663541 c -0.658176,-0.793904 -0.184001,-3.380715 -0.08897,-4.7995 0.066,-0.576146 0.54978,-1.190854 0.9179,-2.153659 l -0.224001,-0.04 c 0.428687,-0.780742 2.447115,-3.136089 3.382183,-3.014961 0.453117,-0.594213 -0.08965,-0.0024 -0.178651,-0.152001 0.995065,-1.075061 1.308052,-0.759639 1.979398,-0.952998 0.723606,-0.448717 -0.621548,0.175351 -0.278316,-0.171351 1.251926,-0.333489 0.886669,-0.758741 2.519348,-0.928165 0.172326,0.102651 -0.39939,0.158326 -0.54295,0.290987 1.04243,-0.53318 3.300087,-0.411582 4.7669,0.295324 1.700542,0.830537 3.612575,3.284985 3.688303,5.59447 l 0.086,0.02325 c -0.04335,0.917932 0.134326,1.979898 -0.174326,2.954963 l 0.208326,-0.461885"
     id="path20" />
  <path
     inkscape:connector-curvature="0"
     style="opacity:0.3;stroke-width:0.12499055"
     d="M 4.0065,23.531298 C 4.0033,23.687299 4,23.843293 4,24.000016 c 0,11.045082 8.953688,19.998702 19.998667,19.998702 11.04508,0 19.9987,-8.95372 19.9987,-19.998702 0,-0.156651 -0.0024,-0.312987 -0.0065,-0.468718 -0.249001,10.828524 -9.104348,19.52995 -19.993032,19.52995 -10.888719,0 -19.743711,-8.701626 -19.993067,-19.52995 z"
     id="path22" />
  <path
     inkscape:connector-curvature="0"
     style="opacity:0.3;fill:#ffffff;stroke-width:0.12499055"
     d="m 23.999567,4.0009837 c -11.045081,0 -19.998702,8.9536853 -19.998702,19.9986653 0,0.15665 0.0024,0.312991 0.0065,0.468717 0.249001,-10.828485 9.104386,-19.5299473 19.993068,-19.5299473 10.888688,0 19.743678,8.7016273 19.993067,19.5299473 C 43.9968,24.312365 44,24.156374 44,23.999649 44,12.954602 35.046282,4.0009837 24.001333,4.0009837 Z"
     id="path24" />
</svg>
