
<svg xmlns="http://www.w3.org/2000/svg" xmlns:xlink="http://www.w3.org/1999/xlink" width="48px" height="48px" viewBox="0 0 48 48" version="1.1">
<defs>
<linearGradient id="linear0" gradientUnits="userSpaceOnUse" x1="198.300247" y1="66.203491" x2="196.276016" y2="320.847565" gradientTransform="matrix(0.125,0,0,0.125,0,0)">
<stop offset="0" style="stop-color:rgb(8.627451%,47.058824%,94.117647%);stop-opacity:1;"/>
<stop offset="1" style="stop-color:rgb(5.490196%,39.215687%,80.784315%);stop-opacity:1;"/>
</linearGradient>
<filter id="alpha" filterUnits="objectBoundingBox" x="0%" y="0%" width="100%" height="100%">
  <feColorMatrix type="matrix" in="SourceGraphic" values="0 0 0 0 1 0 0 0 0 1 0 0 0 0 1 0 0 0 1 0"/>
</filter>
<mask id="mask0">
  <g filter="url(#alpha)">
<rect x="0" y="0" width="48" height="48" style="fill:rgb(0%,0%,0%);fill-opacity:0.6;stroke:none;"/>
  </g>
</mask>
<linearGradient id="linear1" gradientUnits="userSpaceOnUse" x1="173.893509" y1="92.745766" x2="173.496323" y2="100.881363" >
<stop offset="0" style="stop-color:rgb(100%,100%,100%);stop-opacity:1;"/>
<stop offset="1" style="stop-color:rgb(100%,100%,100%);stop-opacity:0;"/>
</linearGradient>
<clipPath id="clip1">
  <rect x="0" y="0" width="48" height="48"/>
</clipPath>
<g id="surface5" clip-path="url(#clip1)">
<path style="fill:none;stroke-width:7.5;stroke-linecap:butt;stroke-linejoin:miter;stroke:url(#linear1);stroke-miterlimit:4;" d="M 44.0625 67.125 C 38.375 67.125 33.78125 72.1875 33.78125 78.46875 L 33.78125 308.1875 C 33.78125 313 37.28125 316.875 41.65625 316.875 L 339.34375 316.875 C 343.71875 316.875 347.21875 313 347.21875 308.1875 L 347.21875 108.40625 C 347.21875 98.96875 340.3125 91.34375 331.71875 91.34375 L 172.15625 91.34375 C 167.90625 91.34375 166.21875 90.8125 163.53125 88 L 147.5 70.53125 C 147.46875 70.46875 147.40625 70.40625 147.34375 70.34375 L 147.3125 70.3125 C 145.46875 68.34375 142.9375 67.125 140.15625 67.125 Z M 44.0625 67.125 " transform="matrix(0.125,0,0,0.125,0,0)"/>
</g>
</defs>
<g id="surface1">
<path style=" stroke:none;fill-rule:evenodd;fill:rgb(0%,0%,0%);fill-opacity:0.588235;" d="M 6.972656 8.859375 C 6.304688 8.859375 5.769531 9.511719 5.769531 10.320312 L 5.769531 39.898438 C 5.769531 40.515625 6.179688 41.015625 6.6875 41.015625 L 41.414062 41.015625 C 41.921875 41.015625 42.332031 40.515625 42.332031 39.898438 L 42.332031 14.175781 C 42.332031 12.957031 41.523438 11.980469 40.523438 11.980469 L 21.910156 11.980469 C 21.417969 11.980469 21.21875 11.90625 20.902344 11.546875 L 19.035156 9.296875 C 19.03125 9.289062 19.023438 9.28125 19.019531 9.273438 L 19.011719 9.269531 C 18.796875 9.015625 18.503906 8.859375 18.179688 8.859375 Z M 6.972656 8.859375 "/>
<path style=" stroke:none;fill-rule:evenodd;fill:url(#linear0);" d="M 5.257812 7.820312 C 4.527344 7.820312 3.941406 8.472656 3.941406 9.28125 L 3.941406 38.859375 C 3.941406 39.476562 4.390625 39.976562 4.949219 39.976562 L 43.050781 39.976562 C 43.609375 39.976562 44.058594 39.476562 44.058594 38.859375 L 44.058594 13.136719 C 44.058594 11.917969 43.175781 10.941406 42.074219 10.941406 L 21.652344 10.941406 C 21.109375 10.941406 20.894531 10.867188 20.546875 10.507812 L 18.496094 8.257812 C 18.492188 8.25 18.484375 8.242188 18.476562 8.234375 L 18.472656 8.230469 C 18.234375 7.976562 17.914062 7.820312 17.558594 7.820312 Z M 5.257812 7.820312 "/>
<use xlink:href="#surface5" mask="url(#mask0)"/>
<path style=" stroke:none;fill-rule:nonzero;fill:rgb(0%,0%,0%);fill-opacity:0.588235;" d="M 7.414062 10.597656 L 17.703125 10.597656 C 18.195312 10.597656 18.59375 10.996094 18.59375 11.488281 L 18.59375 13.832031 C 18.59375 14.324219 18.195312 14.722656 17.703125 14.722656 L 7.414062 14.722656 C 6.921875 14.722656 6.523438 14.324219 6.523438 13.832031 L 6.523438 11.488281 C 6.523438 10.996094 6.921875 10.597656 7.414062 10.597656 Z M 7.414062 10.597656 "/>
<path style=" stroke:none;fill-rule:nonzero;fill:rgb(100%,100%,100%);fill-opacity:1;" d="M 6.773438 9.878906 L 17.0625 9.878906 C 17.554688 9.878906 17.953125 10.277344 17.953125 10.769531 L 17.953125 13.113281 C 17.953125 13.605469 17.554688 14.003906 17.0625 14.003906 L 6.773438 14.003906 C 6.28125 14.003906 5.882812 13.605469 5.882812 13.113281 L 5.882812 10.769531 C 5.882812 10.277344 6.28125 9.878906 6.773438 9.878906 Z M 6.773438 9.878906 "/>
<path style=" stroke:none;fill-rule:nonzero;fill:rgb(100%,100%,100%);fill-opacity:1;" d="M 24 20.15625 C 20.117188 20.15625 16.96875 23.304688 16.96875 27.1875 C 16.96875 31.070312 20.117188 34.21875 24 34.21875 C 27.882812 34.21875 31.03125 31.070312 31.03125 27.1875 C 31.03125 23.304688 27.882812 20.15625 24 20.15625 Z M 24 21.375 C 25.625 21.375 26.964844 21.929688 28.109375 23.078125 C 29.257812 24.222656 29.8125 25.5625 29.8125 27.1875 C 29.8125 27.234375 29.808594 27.28125 29.808594 27.332031 L 27.191406 27.332031 L 25.890625 23 C 25.875 22.957031 25.855469 22.917969 25.832031 22.878906 C 25.824219 22.867188 25.816406 22.855469 25.804688 22.84375 C 25.796875 22.832031 25.785156 22.820312 25.773438 22.8125 C 25.753906 22.789062 25.730469 22.769531 25.707031 22.753906 C 25.667969 22.730469 25.625 22.710938 25.582031 22.699219 C 25.539062 22.6875 25.496094 22.679688 25.449219 22.683594 C 25.433594 22.683594 25.421875 22.683594 25.40625 22.683594 C 25.375 22.6875 25.347656 22.695312 25.316406 22.703125 C 25.289062 22.714844 25.261719 22.726562 25.238281 22.742188 C 25.222656 22.75 25.210938 22.757812 25.199219 22.765625 C 25.1875 22.773438 25.175781 22.785156 25.164062 22.792969 C 25.152344 22.804688 25.140625 22.8125 25.132812 22.824219 C 25.089844 22.867188 25.058594 22.921875 25.039062 22.976562 C 25.035156 22.992188 25.027344 23.003906 25.027344 23.019531 C 25.023438 23.027344 25.019531 23.035156 25.019531 23.042969 L 24.230469 27.105469 L 23.289062 23.027344 C 23.289062 23.015625 23.285156 23 23.277344 22.984375 C 23.273438 22.972656 23.269531 22.957031 23.261719 22.945312 C 23.253906 22.929688 23.25 22.917969 23.242188 22.90625 C 23.234375 22.890625 23.226562 22.878906 23.21875 22.867188 C 23.199219 22.84375 23.179688 22.820312 23.15625 22.800781 C 23.113281 22.757812 23.0625 22.726562 23.003906 22.707031 C 22.976562 22.699219 22.949219 22.691406 22.917969 22.6875 C 22.886719 22.683594 22.859375 22.679688 22.828125 22.683594 C 22.796875 22.683594 22.769531 22.6875 22.738281 22.695312 C 22.703125 22.707031 22.664062 22.722656 22.628906 22.742188 C 22.585938 22.765625 22.546875 22.796875 22.515625 22.835938 C 22.503906 22.847656 22.496094 22.859375 22.488281 22.871094 C 22.480469 22.882812 22.46875 22.894531 22.464844 22.910156 C 22.460938 22.914062 22.457031 22.917969 22.457031 22.921875 C 22.445312 22.945312 22.433594 22.96875 22.425781 22.992188 C 22.425781 23 22.421875 23.011719 22.417969 23.023438 C 22.417969 23.027344 22.417969 23.03125 22.414062 23.035156 L 21.058594 29.441406 L 20.53125 27.652344 C 20.523438 27.625 20.511719 27.597656 20.5 27.570312 C 20.492188 27.554688 20.484375 27.542969 20.476562 27.53125 C 20.46875 27.519531 20.457031 27.507812 20.449219 27.496094 C 20.441406 27.484375 20.429688 27.472656 20.417969 27.460938 C 20.386719 27.429688 20.351562 27.402344 20.3125 27.382812 C 20.246094 27.347656 20.175781 27.332031 20.101562 27.332031 L 18.191406 27.332031 C 18.191406 27.28125 18.1875 27.238281 18.1875 27.1875 C 18.1875 25.5625 18.742188 24.222656 19.886719 23.078125 C 21.035156 21.929688 22.375 21.375 24 21.375 Z M 25.554688 25 L 26.429688 27.910156 C 26.453125 27.980469 26.492188 28.046875 26.542969 28.097656 C 26.597656 28.152344 26.664062 28.191406 26.738281 28.210938 C 26.75 28.214844 26.765625 28.21875 26.78125 28.222656 C 26.792969 28.222656 26.808594 28.226562 26.824219 28.226562 C 26.835938 28.226562 26.847656 28.226562 26.859375 28.226562 L 29.730469 28.226562 C 29.535156 29.398438 29.003906 30.40625 28.109375 31.296875 C 26.964844 32.445312 25.625 33 24 33 C 22.375 33 21.035156 32.445312 19.886719 31.296875 C 18.996094 30.40625 18.464844 29.398438 18.269531 28.226562 L 19.765625 28.226562 L 20.703125 31.398438 C 20.722656 31.46875 20.761719 31.535156 20.816406 31.589844 C 20.835938 31.609375 20.859375 31.628906 20.882812 31.644531 C 20.910156 31.660156 20.9375 31.675781 20.964844 31.6875 C 20.976562 31.691406 20.992188 31.695312 21.007812 31.699219 C 21.019531 31.707031 21.035156 31.707031 21.050781 31.710938 C 21.078125 31.71875 21.109375 31.71875 21.140625 31.71875 C 21.15625 31.71875 21.175781 31.71875 21.191406 31.714844 C 21.21875 31.710938 21.246094 31.707031 21.269531 31.695312 C 21.28125 31.695312 21.289062 31.691406 21.296875 31.6875 C 21.316406 31.679688 21.335938 31.671875 21.351562 31.660156 C 21.378906 31.644531 21.402344 31.628906 21.425781 31.609375 C 21.4375 31.597656 21.449219 31.589844 21.457031 31.578125 C 21.515625 31.519531 21.554688 31.445312 21.570312 31.363281 L 22.871094 25.207031 L 23.832031 29.367188 C 23.871094 29.539062 24.007812 29.671875 24.183594 29.707031 C 24.355469 29.742188 24.535156 29.667969 24.636719 29.523438 C 24.652344 29.5 24.667969 29.472656 24.679688 29.445312 C 24.6875 29.433594 24.691406 29.417969 24.695312 29.40625 C 24.699219 29.390625 24.703125 29.375 24.707031 29.363281 C 24.707031 29.359375 24.707031 29.355469 24.710938 29.351562 Z M 25.554688 25 "/>
</g>
</svg>
