
<svg xmlns="http://www.w3.org/2000/svg" xmlns:xlink="http://www.w3.org/1999/xlink" width="24px" height="24px" viewBox="0 0 24 24" version="1.1">
<defs>
<linearGradient id="linear0" gradientUnits="userSpaceOnUse" x1="198.300247" y1="66.203491" x2="196.276016" y2="320.847565" gradientTransform="matrix(0.0625,0,0,0.0625,0,0)">
<stop offset="0" style="stop-color:rgb(8.627451%,47.058824%,94.117647%);stop-opacity:1;"/>
<stop offset="1" style="stop-color:rgb(5.490196%,39.215687%,80.784315%);stop-opacity:1;"/>
</linearGradient>
<filter id="alpha" filterUnits="objectBoundingBox" x="0%" y="0%" width="100%" height="100%">
  <feColorMatrix type="matrix" in="SourceGraphic" values="0 0 0 0 1 0 0 0 0 1 0 0 0 0 1 0 0 0 1 0"/>
</filter>
<mask id="mask0">
  <g filter="url(#alpha)">
<rect x="0" y="0" width="24" height="24" style="fill:rgb(0%,0%,0%);fill-opacity:0.6;stroke:none;"/>
  </g>
</mask>
<linearGradient id="linear1" gradientUnits="userSpaceOnUse" x1="173.893509" y1="92.745766" x2="173.496323" y2="100.881363" >
<stop offset="0" style="stop-color:rgb(100%,100%,100%);stop-opacity:1;"/>
<stop offset="1" style="stop-color:rgb(100%,100%,100%);stop-opacity:0;"/>
</linearGradient>
<clipPath id="clip1">
  <rect x="0" y="0" width="24" height="24"/>
</clipPath>
<g id="surface5" clip-path="url(#clip1)">
<path style="fill:none;stroke-width:7.5;stroke-linecap:butt;stroke-linejoin:miter;stroke:url(#linear1);stroke-miterlimit:4;" d="M 44.0625 67.125 C 38.375 67.125 33.75 72.1875 33.75 78.4375 L 33.75 308.1875 C 33.75 313 37.3125 316.875 41.625 316.875 L 339.375 316.875 C 343.6875 316.875 347.25 313 347.25 308.1875 L 347.25 108.4375 C 347.25 98.9375 340.3125 91.375 331.75 91.375 L 172.125 91.375 C 167.9375 91.375 166.25 90.8125 163.5 88 L 147.5 70.5 C 147.4375 70.4375 147.375 70.375 147.375 70.375 L 147.3125 70.3125 C 145.4375 68.375 142.9375 67.125 140.1875 67.125 Z M 44.0625 67.125 " transform="matrix(0.0625,0,0,0.0625,0,0)"/>
</g>
</defs>
<g id="surface1">
<path style=" stroke:none;fill-rule:evenodd;fill:rgb(0%,0%,0%);fill-opacity:0.588235;" d="M 3.484375 4.429688 C 3.152344 4.429688 2.886719 4.753906 2.886719 5.160156 L 2.886719 19.949219 C 2.886719 20.257812 3.089844 20.507812 3.34375 20.507812 L 20.707031 20.507812 C 20.960938 20.507812 21.164062 20.257812 21.164062 19.949219 L 21.164062 7.089844 C 21.164062 6.480469 20.761719 5.988281 20.261719 5.988281 L 10.957031 5.988281 C 10.707031 5.988281 10.609375 5.953125 10.453125 5.773438 L 9.519531 4.648438 C 9.515625 4.644531 9.511719 4.640625 9.507812 4.636719 C 9.398438 4.507812 9.253906 4.429688 9.089844 4.429688 Z M 3.484375 4.429688 "/>
<path style=" stroke:none;fill-rule:evenodd;fill:url(#linear0);" d="M 2.628906 3.910156 C 2.265625 3.910156 1.96875 4.234375 1.96875 4.640625 L 1.96875 19.429688 C 1.96875 19.738281 2.195312 19.988281 2.472656 19.988281 L 21.527344 19.988281 C 21.804688 19.988281 22.03125 19.738281 22.03125 19.429688 L 22.03125 6.570312 C 22.03125 5.960938 21.585938 5.46875 21.039062 5.46875 L 10.824219 5.46875 C 10.554688 5.46875 10.445312 5.433594 10.273438 5.253906 L 9.25 4.128906 C 9.246094 4.125 9.242188 4.121094 9.238281 4.117188 L 9.234375 4.113281 C 9.117188 3.988281 8.957031 3.910156 8.777344 3.910156 Z M 2.628906 3.910156 "/>
<use xlink:href="#surface5" mask="url(#mask0)"/>
<path style=" stroke:none;fill-rule:nonzero;fill:rgb(0%,0%,0%);fill-opacity:0.588235;" d="M 3.707031 5.300781 L 8.851562 5.300781 C 9.097656 5.300781 9.296875 5.5 9.296875 5.746094 L 9.296875 6.917969 C 9.296875 7.164062 9.097656 7.363281 8.851562 7.363281 L 3.707031 7.363281 C 3.460938 7.363281 3.261719 7.164062 3.261719 6.917969 L 3.261719 5.746094 C 3.261719 5.5 3.460938 5.300781 3.707031 5.300781 Z M 3.707031 5.300781 "/>
<path style=" stroke:none;fill-rule:nonzero;fill:rgb(100%,100%,100%);fill-opacity:1;" d="M 3.386719 4.941406 L 8.53125 4.941406 C 8.777344 4.941406 8.976562 5.140625 8.976562 5.386719 L 8.976562 6.558594 C 8.976562 6.804688 8.777344 7.003906 8.53125 7.003906 L 3.386719 7.003906 C 3.140625 7.003906 2.941406 6.804688 2.941406 6.558594 L 2.941406 5.386719 C 2.941406 5.140625 3.140625 4.941406 3.386719 4.941406 Z M 3.386719 4.941406 "/>
<path style="fill-rule:nonzero;fill:rgb(100%,100%,100%);fill-opacity:1;stroke-width:19.455528;stroke-linecap:butt;stroke-linejoin:miter;stroke:rgb(100%,100%,100%);stroke-opacity:1;stroke-miterlimit:4;" d="M 587.708546 186.782051 C 555.433095 111.746149 500.354334 57.04708 424.577187 24.43802 C 386.688613 8.308807 347.045938 0.244201 305.649163 0.244201 C 263.901568 0.244201 224.609713 8.308807 186.72114 24.43802 C 111.645632 56.696445 56.566872 111.395514 23.9406 186.782051 C 7.802874 224.650638 0.0848312 264.272399 0.0848312 305.647336 C 0.0848312 347.022273 7.802874 386.994669 23.9406 424.863255 C 56.566872 500.249793 111.645632 555.299497 186.72114 587.557922 C 224.609713 603.687134 263.901568 611.751741 305.649163 611.751741 C 347.045938 611.751741 386.688613 603.687134 424.577187 587.557922 C 500.354334 554.948862 555.433095 499.899158 587.708546 424.863255 C 603.846272 386.994669 611.915135 347.022273 611.915135 305.647336 C 611.915135 264.272399 603.846272 224.650638 587.708546 186.782051 Z M 538.593728 440.992468 C 514.73796 482.01677 481.760868 514.62583 440.364092 538.819649 C 399.318137 563.013468 354.062341 574.93506 305.649163 574.93506 C 269.16387 574.93506 234.081857 567.922359 201.104765 553.546321 C 168.127673 539.170284 139.360422 520.235991 115.504653 496.392807 C 91.648885 472.549623 72.353778 443.446913 58.320973 410.487218 C 43.937347 377.176887 37.271765 342.113382 37.271765 305.647336 C 37.271765 257.259698 49.199649 212.37841 73.055418 171.003474 C 96.911187 129.979172 129.888279 97.370112 170.934234 73.176293 C 211.980189 48.982474 256.885165 37.060882 305.649163 37.060882 C 354.062341 37.060882 398.967317 48.982474 440.364092 73.176293 C 481.760868 97.370112 514.73796 129.979172 538.593728 171.003474 C 562.800317 212.37841 574.728202 257.259698 574.728202 305.647336 C 574.728202 354.034974 562.800317 399.266896 538.593728 440.992468 Z M 538.593728 440.992468 " transform="matrix(0.0111346,0,0,0.0111405,8.592805,9.622279)"/>
<path style="fill-rule:nonzero;fill:rgb(100%,100%,100%);fill-opacity:1;stroke-width:19.455528;stroke-linecap:butt;stroke-linejoin:miter;stroke:rgb(100%,100%,100%);stroke-opacity:1;stroke-miterlimit:4;" d="M 324.94427 302.842255 L 324.94427 129.628537 C 324.94427 119.46012 315.822947 111.044879 305.649163 111.044879 C 295.8262 111.044879 287.055696 119.46012 287.055696 129.628537 L 287.055696 305.647336 C 287.055696 305.997971 287.757337 307.400511 287.757337 308.452416 C 287.055696 314.413212 288.809797 319.322103 292.668818 323.529724 L 393.003375 423.460715 C 399.668958 430.122781 411.947662 430.122781 418.613245 423.460715 C 426.331287 415.746744 425.629647 404.526422 418.613245 397.513721 Z M 324.94427 302.842255 " transform="matrix(0.0111346,0,0,0.0111405,8.592805,9.622279)"/>
</g>
</svg>
