
<svg xmlns="http://www.w3.org/2000/svg" xmlns:xlink="http://www.w3.org/1999/xlink" width="48px" height="48px" viewBox="0 0 48 48" version="1.1">
<defs>
<linearGradient id="linear0" gradientUnits="userSpaceOnUse" x1="198.300247" y1="66.203491" x2="196.276016" y2="320.847565" gradientTransform="matrix(0.125,0,0,0.125,0,0)">
<stop offset="0" style="stop-color:rgb(8.627451%,47.058824%,94.117647%);stop-opacity:1;"/>
<stop offset="1" style="stop-color:rgb(5.490196%,39.215687%,80.784315%);stop-opacity:1;"/>
</linearGradient>
<filter id="alpha" filterUnits="objectBoundingBox" x="0%" y="0%" width="100%" height="100%">
  <feColorMatrix type="matrix" in="SourceGraphic" values="0 0 0 0 1 0 0 0 0 1 0 0 0 0 1 0 0 0 1 0"/>
</filter>
<mask id="mask0">
  <g filter="url(#alpha)">
<rect x="0" y="0" width="48" height="48" style="fill:rgb(0%,0%,0%);fill-opacity:0.6;stroke:none;"/>
  </g>
</mask>
<linearGradient id="linear1" gradientUnits="userSpaceOnUse" x1="173.893509" y1="92.745766" x2="173.496323" y2="100.881363" >
<stop offset="0" style="stop-color:rgb(100%,100%,100%);stop-opacity:1;"/>
<stop offset="1" style="stop-color:rgb(100%,100%,100%);stop-opacity:0;"/>
</linearGradient>
<clipPath id="clip1">
  <rect x="0" y="0" width="48" height="48"/>
</clipPath>
<g id="surface5" clip-path="url(#clip1)">
<path style="fill:none;stroke-width:7.5;stroke-linecap:butt;stroke-linejoin:miter;stroke:url(#linear1);stroke-miterlimit:4;" d="M 44.0625 67.125 C 38.375 67.125 33.78125 72.1875 33.78125 78.46875 L 33.78125 308.1875 C 33.78125 313 37.28125 316.875 41.65625 316.875 L 339.34375 316.875 C 343.71875 316.875 347.21875 313 347.21875 308.1875 L 347.21875 108.40625 C 347.21875 98.96875 340.3125 91.34375 331.71875 91.34375 L 172.15625 91.34375 C 167.90625 91.34375 166.21875 90.8125 163.53125 88 L 147.5 70.53125 C 147.46875 70.46875 147.40625 70.40625 147.34375 70.34375 L 147.3125 70.3125 C 145.46875 68.34375 142.9375 67.125 140.15625 67.125 Z M 44.0625 67.125 " transform="matrix(0.125,0,0,0.125,0,0)"/>
</g>
</defs>
<g id="surface1">
<path style=" stroke:none;fill-rule:evenodd;fill:rgb(0%,0%,0%);fill-opacity:0.588235;" d="M 6.972656 8.859375 C 6.304688 8.859375 5.769531 9.511719 5.769531 10.320312 L 5.769531 39.898438 C 5.769531 40.515625 6.179688 41.015625 6.6875 41.015625 L 41.414062 41.015625 C 41.921875 41.015625 42.332031 40.515625 42.332031 39.898438 L 42.332031 14.175781 C 42.332031 12.957031 41.523438 11.980469 40.523438 11.980469 L 21.910156 11.980469 C 21.417969 11.980469 21.21875 11.90625 20.902344 11.546875 L 19.035156 9.296875 C 19.03125 9.289062 19.023438 9.28125 19.019531 9.273438 L 19.011719 9.269531 C 18.796875 9.015625 18.503906 8.859375 18.179688 8.859375 Z M 6.972656 8.859375 "/>
<path style=" stroke:none;fill-rule:evenodd;fill:url(#linear0);" d="M 5.257812 7.820312 C 4.527344 7.820312 3.941406 8.472656 3.941406 9.28125 L 3.941406 38.859375 C 3.941406 39.476562 4.390625 39.976562 4.949219 39.976562 L 43.050781 39.976562 C 43.609375 39.976562 44.058594 39.476562 44.058594 38.859375 L 44.058594 13.136719 C 44.058594 11.917969 43.175781 10.941406 42.074219 10.941406 L 21.652344 10.941406 C 21.109375 10.941406 20.894531 10.867188 20.546875 10.507812 L 18.496094 8.257812 C 18.492188 8.25 18.484375 8.242188 18.476562 8.234375 L 18.472656 8.230469 C 18.234375 7.976562 17.914062 7.820312 17.558594 7.820312 Z M 5.257812 7.820312 "/>
<use xlink:href="#surface5" mask="url(#mask0)"/>
<path style=" stroke:none;fill-rule:nonzero;fill:rgb(0%,0%,0%);fill-opacity:0.588235;" d="M 7.414062 10.597656 L 17.703125 10.597656 C 18.195312 10.597656 18.59375 10.996094 18.59375 11.488281 L 18.59375 13.832031 C 18.59375 14.324219 18.195312 14.722656 17.703125 14.722656 L 7.414062 14.722656 C 6.921875 14.722656 6.523438 14.324219 6.523438 13.832031 L 6.523438 11.488281 C 6.523438 10.996094 6.921875 10.597656 7.414062 10.597656 Z M 7.414062 10.597656 "/>
<path style=" stroke:none;fill-rule:nonzero;fill:rgb(100%,100%,100%);fill-opacity:1;" d="M 6.773438 9.878906 L 17.0625 9.878906 C 17.554688 9.878906 17.953125 10.277344 17.953125 10.769531 L 17.953125 13.113281 C 17.953125 13.605469 17.554688 14.003906 17.0625 14.003906 L 6.773438 14.003906 C 6.28125 14.003906 5.882812 13.605469 5.882812 13.113281 L 5.882812 10.769531 C 5.882812 10.277344 6.28125 9.878906 6.773438 9.878906 Z M 6.773438 9.878906 "/>
<path style="fill-rule:nonzero;fill:rgb(100%,100%,100%);fill-opacity:1;stroke-width:19.455528;stroke-linecap:butt;stroke-linejoin:miter;stroke:rgb(100%,100%,100%);stroke-opacity:1;stroke-miterlimit:4;" d="M 587.533136 186.957369 C 555.257685 111.570832 500.529745 56.871763 424.577187 24.613337 C 386.688613 8.484125 347.045938 0.244201 305.473753 0.244201 C 264.076978 0.244201 224.609713 8.308807 186.72114 24.613337 C 111.470222 56.871763 56.391462 111.570832 24.11601 186.957369 C 7.978284 224.650638 -0.0905788 264.097081 -0.0905788 305.647336 C -0.0905788 347.19759 7.978284 386.994669 24.11601 424.863255 C 56.391462 500.074475 111.470222 555.124179 186.72114 587.382604 C 224.609713 603.687134 264.076978 611.751741 305.473753 611.751741 C 347.045938 611.751741 386.688613 603.511817 424.577187 587.382604 C 500.529745 555.124179 555.257685 500.074475 587.533136 424.863255 C 603.846272 386.994669 612.090545 347.19759 612.090545 305.647336 C 612.090545 264.097081 603.846272 224.825955 587.533136 186.957369 Z M 538.769139 440.81715 C 514.73796 482.01677 481.760868 514.801147 440.364092 538.819649 C 399.142727 562.83815 354.062341 575.110377 305.473753 575.110377 C 268.98846 575.110377 234.257267 567.922359 201.104765 553.546321 C 167.952263 539.170284 139.360422 520.235991 115.504653 496.392807 C 91.473475 472.549623 72.529188 443.622231 58.145562 410.3119 C 43.937347 377.352205 37.096355 342.113382 37.096355 305.647336 C 37.096355 257.08438 49.024239 212.203093 72.880008 171.178791 C 96.911187 129.979172 129.888279 97.194794 170.934234 73.176293 C 212.155599 48.982474 257.060575 36.885564 305.473753 36.885564 C 354.062341 36.885564 399.142727 49.157791 440.364092 73.176293 C 481.760868 97.194794 514.56255 129.979172 538.769139 171.178791 C 562.800317 212.37841 574.903612 257.08438 574.903612 305.647336 C 574.903612 354.210291 562.800317 399.442214 538.769139 440.81715 Z M 538.769139 440.81715 " transform="matrix(0.0222692,0,0,0.022281,17.185611,19.244559)"/>
<path style="fill-rule:nonzero;fill:rgb(100%,100%,100%);fill-opacity:1;stroke-width:19.455528;stroke-linecap:butt;stroke-linejoin:miter;stroke:rgb(100%,100%,100%);stroke-opacity:1;stroke-miterlimit:4;" d="M 324.94427 303.017573 L 324.94427 129.628537 C 324.94427 119.284803 315.822947 110.869561 305.473753 110.869561 C 295.8262 110.869561 287.055696 119.284803 287.055696 129.628537 L 287.055696 305.647336 C 287.055696 305.997971 287.757337 307.400511 287.757337 308.277099 C 287.055696 314.413212 288.809797 319.322103 292.844228 323.354406 L 392.827965 423.460715 C 399.493548 430.122781 411.947662 430.122781 418.613245 423.460715 C 426.331287 415.746744 425.805057 404.526422 418.613245 397.338403 Z M 324.94427 303.017573 " transform="matrix(0.0222692,0,0,0.022281,17.185611,19.244559)"/>
</g>
</svg>
