
<svg xmlns="http://www.w3.org/2000/svg" xmlns:xlink="http://www.w3.org/1999/xlink" width="48px" height="48px" viewBox="0 0 48 48" version="1.1">
<defs>
<linearGradient id="linear0" gradientUnits="userSpaceOnUse" x1="198.300247" y1="66.203491" x2="196.276016" y2="320.847565" gradientTransform="matrix(0.125,0,0,0.125,0,0)">
<stop offset="0" style="stop-color:rgb(8.627451%,47.058824%,94.117647%);stop-opacity:1;"/>
<stop offset="1" style="stop-color:rgb(5.490196%,39.215687%,80.784315%);stop-opacity:1;"/>
</linearGradient>
<filter id="alpha" filterUnits="objectBoundingBox" x="0%" y="0%" width="100%" height="100%">
  <feColorMatrix type="matrix" in="SourceGraphic" values="0 0 0 0 1 0 0 0 0 1 0 0 0 0 1 0 0 0 1 0"/>
</filter>
<mask id="mask0">
  <g filter="url(#alpha)">
<rect x="0" y="0" width="48" height="48" style="fill:rgb(0%,0%,0%);fill-opacity:0.6;stroke:none;"/>
  </g>
</mask>
<linearGradient id="linear1" gradientUnits="userSpaceOnUse" x1="173.893509" y1="92.745766" x2="173.496323" y2="100.881363" >
<stop offset="0" style="stop-color:rgb(100%,100%,100%);stop-opacity:1;"/>
<stop offset="1" style="stop-color:rgb(100%,100%,100%);stop-opacity:0;"/>
</linearGradient>
<clipPath id="clip1">
  <rect x="0" y="0" width="48" height="48"/>
</clipPath>
<g id="surface5" clip-path="url(#clip1)">
<path style="fill:none;stroke-width:7.5;stroke-linecap:butt;stroke-linejoin:miter;stroke:url(#linear1);stroke-miterlimit:4;" d="M 44.0625 67.125 C 38.375 67.125 33.78125 72.1875 33.78125 78.46875 L 33.78125 308.1875 C 33.78125 313 37.28125 316.875 41.65625 316.875 L 339.34375 316.875 C 343.71875 316.875 347.21875 313 347.21875 308.1875 L 347.21875 108.40625 C 347.21875 98.96875 340.3125 91.34375 331.71875 91.34375 L 172.15625 91.34375 C 167.90625 91.34375 166.21875 90.8125 163.53125 88 L 147.5 70.53125 C 147.46875 70.46875 147.40625 70.40625 147.34375 70.34375 L 147.3125 70.3125 C 145.46875 68.34375 142.9375 67.125 140.15625 67.125 Z M 44.0625 67.125 " transform="matrix(0.125,0,0,0.125,0,0)"/>
</g>
</defs>
<g id="surface1">
<path style=" stroke:none;fill-rule:evenodd;fill:rgb(0%,0%,0%);fill-opacity:0.588235;" d="M 6.972656 8.859375 C 6.304688 8.859375 5.769531 9.511719 5.769531 10.320312 L 5.769531 39.898438 C 5.769531 40.515625 6.179688 41.015625 6.6875 41.015625 L 41.414062 41.015625 C 41.921875 41.015625 42.332031 40.515625 42.332031 39.898438 L 42.332031 14.175781 C 42.332031 12.957031 41.523438 11.980469 40.523438 11.980469 L 21.910156 11.980469 C 21.417969 11.980469 21.21875 11.90625 20.902344 11.546875 L 19.035156 9.296875 C 19.03125 9.289062 19.023438 9.28125 19.019531 9.273438 L 19.011719 9.269531 C 18.796875 9.015625 18.503906 8.859375 18.179688 8.859375 Z M 6.972656 8.859375 "/>
<path style=" stroke:none;fill-rule:evenodd;fill:url(#linear0);" d="M 5.257812 7.820312 C 4.527344 7.820312 3.941406 8.472656 3.941406 9.28125 L 3.941406 38.859375 C 3.941406 39.476562 4.390625 39.976562 4.949219 39.976562 L 43.050781 39.976562 C 43.609375 39.976562 44.058594 39.476562 44.058594 38.859375 L 44.058594 13.136719 C 44.058594 11.917969 43.175781 10.941406 42.074219 10.941406 L 21.652344 10.941406 C 21.109375 10.941406 20.894531 10.867188 20.546875 10.507812 L 18.496094 8.257812 C 18.492188 8.25 18.484375 8.242188 18.476562 8.234375 L 18.472656 8.230469 C 18.234375 7.976562 17.914062 7.820312 17.558594 7.820312 Z M 5.257812 7.820312 "/>
<use xlink:href="#surface5" mask="url(#mask0)"/>
<path style=" stroke:none;fill-rule:nonzero;fill:rgb(0%,0%,0%);fill-opacity:0.588235;" d="M 7.414062 10.597656 L 17.703125 10.597656 C 18.195312 10.597656 18.59375 10.996094 18.59375 11.488281 L 18.59375 13.832031 C 18.59375 14.324219 18.195312 14.722656 17.703125 14.722656 L 7.414062 14.722656 C 6.921875 14.722656 6.523438 14.324219 6.523438 13.832031 L 6.523438 11.488281 C 6.523438 10.996094 6.921875 10.597656 7.414062 10.597656 Z M 7.414062 10.597656 "/>
<path style=" stroke:none;fill-rule:nonzero;fill:rgb(100%,100%,100%);fill-opacity:1;" d="M 6.773438 9.878906 L 17.0625 9.878906 C 17.554688 9.878906 17.953125 10.277344 17.953125 10.769531 L 17.953125 13.113281 C 17.953125 13.605469 17.554688 14.003906 17.0625 14.003906 L 6.773438 14.003906 C 6.28125 14.003906 5.882812 13.605469 5.882812 13.113281 L 5.882812 10.769531 C 5.882812 10.277344 6.28125 9.878906 6.773438 9.878906 Z M 6.773438 9.878906 "/>
<path style=" stroke:none;fill-rule:nonzero;fill:rgb(100%,100%,100%);fill-opacity:1;" d="M 21.210938 28.441406 C 21.203125 28.367188 21.160156 28.300781 21.101562 28.253906 L 18.046875 25.972656 L 21.101562 23.6875 C 21.160156 23.644531 21.203125 23.574219 21.210938 23.5 C 21.222656 23.425781 21.203125 23.351562 21.160156 23.289062 L 20.671875 22.640625 C 20.578125 22.515625 20.402344 22.492188 20.277344 22.585938 L 16.050781 25.746094 C 15.980469 25.796875 15.9375 25.882812 15.9375 25.972656 C 15.9375 26.0625 15.980469 26.144531 16.050781 26.199219 L 20.277344 29.359375 C 20.328125 29.394531 20.386719 29.414062 20.445312 29.414062 C 20.53125 29.414062 20.617188 29.375 20.671875 29.300781 L 21.160156 28.652344 C 21.203125 28.59375 21.222656 28.515625 21.210938 28.441406 Z M 21.210938 28.441406 "/>
<path style=" stroke:none;fill-rule:nonzero;fill:rgb(100%,100%,100%);fill-opacity:1;" d="M 31.761719 25.746094 L 27.535156 22.585938 C 27.410156 22.492188 27.234375 22.515625 27.140625 22.640625 L 26.65625 23.289062 C 26.609375 23.351562 26.589844 23.425781 26.601562 23.5 C 26.613281 23.574219 26.652344 23.644531 26.710938 23.6875 L 29.765625 25.972656 L 26.710938 28.253906 C 26.652344 28.300781 26.613281 28.367188 26.601562 28.441406 C 26.589844 28.515625 26.609375 28.59375 26.65625 28.652344 L 27.140625 29.300781 C 27.195312 29.375 27.28125 29.414062 27.367188 29.414062 C 27.425781 29.414062 27.484375 29.394531 27.535156 29.359375 L 31.761719 26.199219 C 31.832031 26.144531 31.875 26.0625 31.875 25.972656 C 31.875 25.882812 31.832031 25.796875 31.761719 25.746094 Z M 31.761719 25.746094 "/>
<path style=" stroke:none;fill-rule:nonzero;fill:rgb(100%,100%,100%);fill-opacity:1;" d="M 26.617188 20.898438 L 25.871094 20.582031 C 25.800781 20.554688 25.722656 20.554688 25.65625 20.582031 C 25.585938 20.609375 25.527344 20.664062 25.5 20.734375 L 21.042969 31.269531 C 20.984375 31.414062 21.050781 31.582031 21.195312 31.644531 L 21.941406 31.957031 C 21.976562 31.972656 22.015625 31.980469 22.050781 31.980469 C 22.089844 31.980469 22.125 31.972656 22.160156 31.960938 C 22.226562 31.929688 22.285156 31.875 22.3125 31.808594 L 26.769531 21.269531 C 26.828125 21.125 26.761719 20.960938 26.617188 20.898438 Z M 26.617188 20.898438 "/>
</g>
</svg>
