
<svg xmlns="http://www.w3.org/2000/svg" xmlns:xlink="http://www.w3.org/1999/xlink" width="48px" height="48px" viewBox="0 0 48 48" version="1.1">
<defs>
<linearGradient id="linear0" gradientUnits="userSpaceOnUse" x1="198.300247" y1="66.203491" x2="196.276016" y2="320.847565" gradientTransform="matrix(0.125,0,0,0.125,0,0)">
<stop offset="0" style="stop-color:rgb(8.627451%,47.058824%,94.117647%);stop-opacity:1;"/>
<stop offset="1" style="stop-color:rgb(5.490196%,39.215687%,80.784315%);stop-opacity:1;"/>
</linearGradient>
<filter id="alpha" filterUnits="objectBoundingBox" x="0%" y="0%" width="100%" height="100%">
  <feColorMatrix type="matrix" in="SourceGraphic" values="0 0 0 0 1 0 0 0 0 1 0 0 0 0 1 0 0 0 1 0"/>
</filter>
<mask id="mask0">
  <g filter="url(#alpha)">
<rect x="0" y="0" width="48" height="48" style="fill:rgb(0%,0%,0%);fill-opacity:0.6;stroke:none;"/>
  </g>
</mask>
<linearGradient id="linear1" gradientUnits="userSpaceOnUse" x1="173.893509" y1="92.745766" x2="173.496323" y2="100.881363" >
<stop offset="0" style="stop-color:rgb(100%,100%,100%);stop-opacity:1;"/>
<stop offset="1" style="stop-color:rgb(100%,100%,100%);stop-opacity:0;"/>
</linearGradient>
<clipPath id="clip1">
  <rect x="0" y="0" width="48" height="48"/>
</clipPath>
<g id="surface5" clip-path="url(#clip1)">
<path style="fill:none;stroke-width:7.5;stroke-linecap:butt;stroke-linejoin:miter;stroke:url(#linear1);stroke-miterlimit:4;" d="M 44.0625 67.125 C 38.375 67.125 33.78125 72.1875 33.78125 78.46875 L 33.78125 308.1875 C 33.78125 313 37.28125 316.875 41.65625 316.875 L 339.34375 316.875 C 343.71875 316.875 347.21875 313 347.21875 308.1875 L 347.21875 108.40625 C 347.21875 98.96875 340.3125 91.34375 331.71875 91.34375 L 172.15625 91.34375 C 167.90625 91.34375 166.21875 90.8125 163.53125 88 L 147.5 70.53125 C 147.46875 70.46875 147.40625 70.40625 147.34375 70.34375 L 147.3125 70.3125 C 145.46875 68.34375 142.9375 67.125 140.15625 67.125 Z M 44.0625 67.125 " transform="matrix(0.125,0,0,0.125,0,0)"/>
</g>
</defs>
<g id="surface1">
<path style=" stroke:none;fill-rule:evenodd;fill:rgb(0%,0%,0%);fill-opacity:0.588235;" d="M 6.972656 8.859375 C 6.304688 8.859375 5.769531 9.511719 5.769531 10.320312 L 5.769531 39.898438 C 5.769531 40.515625 6.179688 41.015625 6.6875 41.015625 L 41.414062 41.015625 C 41.921875 41.015625 42.332031 40.515625 42.332031 39.898438 L 42.332031 14.175781 C 42.332031 12.957031 41.523438 11.980469 40.523438 11.980469 L 21.910156 11.980469 C 21.417969 11.980469 21.21875 11.90625 20.902344 11.546875 L 19.035156 9.296875 C 19.03125 9.289062 19.023438 9.28125 19.019531 9.273438 L 19.011719 9.269531 C 18.796875 9.015625 18.503906 8.859375 18.179688 8.859375 Z M 6.972656 8.859375 "/>
<path style=" stroke:none;fill-rule:evenodd;fill:url(#linear0);" d="M 5.257812 7.820312 C 4.527344 7.820312 3.941406 8.472656 3.941406 9.28125 L 3.941406 38.859375 C 3.941406 39.476562 4.390625 39.976562 4.949219 39.976562 L 43.050781 39.976562 C 43.609375 39.976562 44.058594 39.476562 44.058594 38.859375 L 44.058594 13.136719 C 44.058594 11.917969 43.175781 10.941406 42.074219 10.941406 L 21.652344 10.941406 C 21.109375 10.941406 20.894531 10.867188 20.546875 10.507812 L 18.496094 8.257812 C 18.492188 8.25 18.484375 8.242188 18.476562 8.234375 L 18.472656 8.230469 C 18.234375 7.976562 17.914062 7.820312 17.558594 7.820312 Z M 5.257812 7.820312 "/>
<use xlink:href="#surface5" mask="url(#mask0)"/>
<path style=" stroke:none;fill-rule:nonzero;fill:rgb(0%,0%,0%);fill-opacity:0.588235;" d="M 7.414062 10.597656 L 17.703125 10.597656 C 18.195312 10.597656 18.59375 10.996094 18.59375 11.488281 L 18.59375 13.832031 C 18.59375 14.324219 18.195312 14.722656 17.703125 14.722656 L 7.414062 14.722656 C 6.921875 14.722656 6.523438 14.324219 6.523438 13.832031 L 6.523438 11.488281 C 6.523438 10.996094 6.921875 10.597656 7.414062 10.597656 Z M 7.414062 10.597656 "/>
<path style=" stroke:none;fill-rule:nonzero;fill:rgb(100%,100%,100%);fill-opacity:1;" d="M 6.773438 9.878906 L 17.0625 9.878906 C 17.554688 9.878906 17.953125 10.277344 17.953125 10.769531 L 17.953125 13.113281 C 17.953125 13.605469 17.554688 14.003906 17.0625 14.003906 L 6.773438 14.003906 C 6.28125 14.003906 5.882812 13.605469 5.882812 13.113281 L 5.882812 10.769531 C 5.882812 10.277344 6.28125 9.878906 6.773438 9.878906 Z M 6.773438 9.878906 "/>
<path style=" stroke:none;fill-rule:nonzero;fill:rgb(100%,100%,100%);fill-opacity:1;" d="M 23.226562 22.324219 C 22.039062 22.328125 21.085938 23.289062 21.089844 24.472656 C 21.089844 24.960938 21.253906 25.410156 21.53125 25.773438 C 22.121094 25.082031 23 24.640625 23.980469 24.636719 C 24.460938 24.636719 24.917969 24.742188 25.328125 24.925781 C 25.359375 24.777344 25.378906 24.621094 25.375 24.460938 C 25.375 23.273438 24.410156 22.320312 23.226562 22.324219 Z M 20.429688 23.324219 C 19.8125 23.324219 19.316406 23.828125 19.316406 24.445312 C 19.320312 24.644531 19.371094 24.835938 19.460938 24.996094 C 19.835938 24.785156 20.265625 24.660156 20.722656 24.660156 C 20.765625 24.660156 20.808594 24.660156 20.851562 24.660156 C 20.847656 24.597656 20.84375 24.535156 20.84375 24.46875 C 20.84375 24.125 20.917969 23.800781 21.046875 23.503906 C 20.871094 23.382812 20.660156 23.320312 20.429688 23.320312 Z M 25.71875 24.078125 C 25.675781 24.078125 25.628906 24.078125 25.585938 24.09375 C 25.605469 24.214844 25.621094 24.339844 25.621094 24.464844 C 25.621094 24.664062 25.597656 24.859375 25.550781 25.042969 C 26.09375 25.339844 26.542969 25.785156 26.839844 26.328125 C 27.148438 26.167969 27.488281 26.066406 27.855469 26.039062 C 27.757812 24.941406 26.84375 24.082031 25.71875 24.082031 Z M 23.980469 24.882812 C 22.324219 24.886719 20.984375 26.234375 20.988281 27.890625 C 20.996094 29.550781 22.339844 30.890625 24 30.882812 C 25.660156 30.878906 27 29.53125 26.992188 27.875 C 26.988281 26.214844 25.640625 24.875 23.980469 24.882812 Z M 20.722656 24.90625 C 19.4375 24.910156 18.398438 25.953125 18.402344 27.242188 C 18.40625 28 18.765625 28.667969 19.328125 29.09375 C 19.5625 28.636719 20.035156 28.324219 20.582031 28.324219 C 20.648438 28.324219 20.710938 28.339844 20.777344 28.339844 C 20.753906 28.195312 20.746094 28.046875 20.746094 27.894531 C 20.746094 27.171875 20.976562 26.503906 21.375 25.964844 C 21.132812 25.664062 20.960938 25.304688 20.886719 24.914062 C 20.832031 24.914062 20.777344 24.898438 20.722656 24.898438 Z M 28.027344 26.269531 C 27.636719 26.273438 27.269531 26.375 26.945312 26.542969 C 27.132812 26.949219 27.234375 27.398438 27.238281 27.875 C 27.238281 28.765625 26.882812 29.574219 26.304688 30.160156 C 26.734375 30.632812 27.351562 30.925781 28.039062 30.925781 C 29.328125 30.921875 30.367188 29.875 30.363281 28.589844 C 30.359375 27.300781 29.3125 26.265625 28.027344 26.269531 Z M 18.171875 26.609375 C 16.988281 26.609375 16.027344 27.566406 16.03125 28.753906 C 16.035156 29.9375 17 30.898438 18.1875 30.894531 C 18.636719 30.894531 19.054688 30.753906 19.398438 30.511719 C 19.257812 30.292969 19.171875 30.027344 19.171875 29.746094 C 19.171875 29.597656 19.191406 29.457031 19.230469 29.324219 C 18.585938 28.859375 18.160156 28.101562 18.15625 27.242188 C 18.15625 27.023438 18.183594 26.8125 18.234375 26.613281 C 18.214844 26.609375 18.195312 26.613281 18.171875 26.613281 Z M 30.785156 28.410156 C 30.722656 28.410156 30.664062 28.425781 30.601562 28.429688 C 30.605469 28.480469 30.605469 28.53125 30.609375 28.589844 C 30.609375 29.269531 30.34375 29.894531 29.90625 30.355469 C 30.121094 30.605469 30.4375 30.761719 30.796875 30.761719 C 31.445312 30.757812 31.972656 30.234375 31.96875 29.585938 C 31.96875 28.933594 31.4375 28.410156 30.789062 28.410156 Z M 20.582031 28.566406 C 19.933594 28.570312 19.414062 29.09375 19.414062 29.746094 C 19.414062 30.394531 19.941406 30.917969 20.589844 30.917969 C 21.089844 30.917969 21.511719 30.605469 21.679688 30.167969 C 21.261719 29.742188 20.957031 29.195312 20.824219 28.59375 C 20.746094 28.578125 20.667969 28.566406 20.582031 28.566406 Z M 20.582031 28.566406 "/>
</g>
</svg>
