
<svg xmlns="http://www.w3.org/2000/svg" xmlns:xlink="http://www.w3.org/1999/xlink" width="64px" height="64px" viewBox="0 0 64 64" version="1.1">
<defs>
<linearGradient id="linear0" gradientUnits="userSpaceOnUse" x1="198.300247" y1="66.203491" x2="196.276016" y2="320.847565" gradientTransform="matrix(0.166667,0,0,0.166667,0,0)">
<stop offset="0" style="stop-color:rgb(8.627451%,47.058824%,94.117647%);stop-opacity:1;"/>
<stop offset="1" style="stop-color:rgb(5.490196%,39.215687%,80.784315%);stop-opacity:1;"/>
</linearGradient>
<filter id="alpha" filterUnits="objectBoundingBox" x="0%" y="0%" width="100%" height="100%">
  <feColorMatrix type="matrix" in="SourceGraphic" values="0 0 0 0 1 0 0 0 0 1 0 0 0 0 1 0 0 0 1 0"/>
</filter>
<mask id="mask0">
  <g filter="url(#alpha)">
<rect x="0" y="0" width="64" height="64" style="fill:rgb(0%,0%,0%);fill-opacity:0.6;stroke:none;"/>
  </g>
</mask>
<linearGradient id="linear1" gradientUnits="userSpaceOnUse" x1="173.893509" y1="92.745766" x2="173.496323" y2="100.881363" >
<stop offset="0" style="stop-color:rgb(100%,100%,100%);stop-opacity:1;"/>
<stop offset="1" style="stop-color:rgb(100%,100%,100%);stop-opacity:0;"/>
</linearGradient>
<clipPath id="clip1">
  <rect x="0" y="0" width="64" height="64"/>
</clipPath>
<g id="surface5" clip-path="url(#clip1)">
<path style="fill:none;stroke-width:7.5;stroke-linecap:butt;stroke-linejoin:miter;stroke:url(#linear1);stroke-miterlimit:4;" d="M 44.0625 67.125 C 38.367188 67.125 33.773438 72.1875 33.773438 78.46875 L 33.773438 308.203125 C 33.773438 312.984375 37.289062 316.875 41.648438 316.875 L 339.351562 316.875 C 343.710938 316.875 347.226562 312.984375 347.226562 308.203125 L 347.226562 108.421875 C 347.226562 98.953125 340.3125 91.359375 331.734375 91.359375 L 172.148438 91.359375 C 167.90625 91.359375 166.242188 90.796875 163.523438 87.984375 L 147.515625 70.523438 C 147.445312 70.453125 147.398438 70.40625 147.351562 70.335938 L 147.304688 70.3125 C 145.453125 68.34375 142.945312 67.125 140.15625 67.125 Z M 44.0625 67.125 " transform="matrix(0.166667,0,0,0.166667,0,0)"/>
</g>
</defs>
<g id="surface1">
<path style=" stroke:none;fill-rule:evenodd;fill:rgb(0%,0%,0%);fill-opacity:0.588235;" d="M 9.296875 11.8125 C 8.410156 11.8125 7.695312 12.679688 7.695312 13.761719 L 7.695312 53.195312 C 7.695312 54.023438 8.238281 54.6875 8.917969 54.6875 L 55.214844 54.6875 C 55.894531 54.6875 56.441406 54.023438 56.441406 53.195312 L 56.441406 18.902344 C 56.441406 17.277344 55.367188 15.972656 54.03125 15.972656 L 29.214844 15.972656 C 28.554688 15.972656 28.292969 15.875 27.871094 15.394531 L 25.382812 12.394531 C 25.375 12.386719 25.363281 12.375 25.355469 12.363281 L 25.351562 12.359375 C 25.0625 12.023438 24.671875 11.8125 24.238281 11.8125 Z M 9.296875 11.8125 "/>
<path style=" stroke:none;fill-rule:evenodd;fill:url(#linear0);" d="M 7.011719 10.429688 C 6.039062 10.429688 5.253906 11.296875 5.253906 12.375 L 5.253906 51.8125 C 5.253906 52.636719 5.851562 53.300781 6.597656 53.300781 L 57.402344 53.300781 C 58.148438 53.300781 58.746094 52.636719 58.746094 51.8125 L 58.746094 17.515625 C 58.746094 15.890625 57.566406 14.585938 56.101562 14.585938 L 28.867188 14.585938 C 28.144531 14.585938 27.859375 14.492188 27.394531 14.007812 L 24.664062 11.011719 C 24.65625 11 24.644531 10.988281 24.636719 10.980469 L 24.628906 10.972656 C 24.3125 10.636719 23.886719 10.429688 23.410156 10.429688 Z M 7.011719 10.429688 "/>
<use xlink:href="#surface5" mask="url(#mask0)"/>
<path style=" stroke:none;fill-rule:nonzero;fill:rgb(0%,0%,0%);fill-opacity:0.588235;" d="M 9.886719 14.128906 L 23.605469 14.128906 C 24.261719 14.128906 24.792969 14.664062 24.792969 15.320312 L 24.792969 18.445312 C 24.792969 19.101562 24.261719 19.632812 23.605469 19.632812 L 9.886719 19.632812 C 9.230469 19.632812 8.699219 19.101562 8.699219 18.445312 L 8.699219 15.320312 C 8.699219 14.664062 9.230469 14.128906 9.886719 14.128906 Z M 9.886719 14.128906 "/>
<path style=" stroke:none;fill-rule:nonzero;fill:rgb(100%,100%,100%);fill-opacity:1;" d="M 9.03125 13.171875 L 22.75 13.171875 C 23.40625 13.171875 23.9375 13.703125 23.9375 14.359375 L 23.9375 17.484375 C 23.9375 18.140625 23.40625 18.671875 22.75 18.671875 L 9.03125 18.671875 C 8.375 18.671875 7.839844 18.140625 7.839844 17.484375 L 7.839844 14.359375 C 7.839844 13.703125 8.375 13.171875 9.03125 13.171875 Z M 9.03125 13.171875 "/>
<path style=" stroke:none;fill-rule:nonzero;fill:rgb(100%,100%,100%);fill-opacity:1;" d="M 28.28125 37.921875 C 28.269531 37.824219 28.214844 37.734375 28.136719 37.671875 L 24.0625 34.628906 L 28.136719 31.582031 C 28.214844 31.523438 28.269531 31.433594 28.28125 31.335938 C 28.296875 31.234375 28.269531 31.136719 28.210938 31.054688 L 27.5625 30.191406 C 27.4375 30.023438 27.203125 29.988281 27.035156 30.113281 L 21.402344 34.324219 C 21.304688 34.398438 21.25 34.507812 21.25 34.628906 C 21.25 34.746094 21.304688 34.859375 21.402344 34.929688 L 27.035156 39.144531 C 27.101562 39.195312 27.183594 39.21875 27.261719 39.21875 C 27.375 39.21875 27.488281 39.167969 27.5625 39.066406 L 28.210938 38.203125 C 28.269531 38.121094 28.296875 38.023438 28.28125 37.921875 Z M 28.28125 37.921875 "/>
<path style=" stroke:none;fill-rule:nonzero;fill:rgb(100%,100%,100%);fill-opacity:1;" d="M 42.347656 34.324219 L 36.714844 30.113281 C 36.546875 29.988281 36.3125 30.023438 36.1875 30.191406 L 35.539062 31.054688 C 35.480469 31.136719 35.453125 31.234375 35.46875 31.335938 C 35.480469 31.433594 35.535156 31.523438 35.617188 31.582031 L 39.6875 34.628906 L 35.617188 37.671875 C 35.535156 37.734375 35.484375 37.824219 35.46875 37.921875 C 35.453125 38.023438 35.480469 38.121094 35.539062 38.203125 L 36.1875 39.066406 C 36.261719 39.167969 36.375 39.21875 36.488281 39.21875 C 36.570312 39.21875 36.648438 39.195312 36.714844 39.144531 L 42.347656 34.929688 C 42.445312 34.859375 42.5 34.746094 42.5 34.628906 C 42.5 34.507812 42.445312 34.398438 42.347656 34.324219 Z M 42.347656 34.324219 "/>
<path style=" stroke:none;fill-rule:nonzero;fill:rgb(100%,100%,100%);fill-opacity:1;" d="M 35.488281 27.863281 L 34.496094 27.445312 C 34.402344 27.40625 34.300781 27.40625 34.207031 27.441406 C 34.113281 27.480469 34.039062 27.550781 34 27.644531 L 28.058594 41.695312 C 27.976562 41.886719 28.066406 42.109375 28.261719 42.191406 L 29.253906 42.613281 C 29.300781 42.628906 29.351562 42.640625 29.402344 42.640625 C 29.449219 42.640625 29.5 42.632812 29.542969 42.613281 C 29.636719 42.574219 29.710938 42.503906 29.75 42.410156 L 35.691406 28.359375 C 35.773438 28.167969 35.683594 27.945312 35.488281 27.863281 Z M 35.488281 27.863281 "/>
</g>
</svg>
