
<svg xmlns="http://www.w3.org/2000/svg" xmlns:xlink="http://www.w3.org/1999/xlink" width="32px" height="32px" viewBox="0 0 32 32" version="1.1">
<defs>
<linearGradient id="linear0" gradientUnits="userSpaceOnUse" x1="198.300247" y1="66.203491" x2="196.276016" y2="320.847565" gradientTransform="matrix(0.0833333,0,0,0.0833333,0,0)">
<stop offset="0" style="stop-color:rgb(8.627451%,47.058824%,94.117647%);stop-opacity:1;"/>
<stop offset="1" style="stop-color:rgb(5.490196%,39.215687%,80.784315%);stop-opacity:1;"/>
</linearGradient>
<filter id="alpha" filterUnits="objectBoundingBox" x="0%" y="0%" width="100%" height="100%">
  <feColorMatrix type="matrix" in="SourceGraphic" values="0 0 0 0 1 0 0 0 0 1 0 0 0 0 1 0 0 0 1 0"/>
</filter>
<mask id="mask0">
  <g filter="url(#alpha)">
<rect x="0" y="0" width="32" height="32" style="fill:rgb(0%,0%,0%);fill-opacity:0.6;stroke:none;"/>
  </g>
</mask>
<linearGradient id="linear1" gradientUnits="userSpaceOnUse" x1="173.893509" y1="92.745766" x2="173.496323" y2="100.881363" >
<stop offset="0" style="stop-color:rgb(100%,100%,100%);stop-opacity:1;"/>
<stop offset="1" style="stop-color:rgb(100%,100%,100%);stop-opacity:0;"/>
</linearGradient>
<clipPath id="clip1">
  <rect x="0" y="0" width="32" height="32"/>
</clipPath>
<g id="surface5" clip-path="url(#clip1)">
<path style="fill:none;stroke-width:7.5;stroke-linecap:butt;stroke-linejoin:miter;stroke:url(#linear1);stroke-miterlimit:4;" d="M 44.0625 67.125 C 38.34375 67.125 33.75 72.1875 33.75 78.46875 L 33.75 308.203125 C 33.75 312.984375 37.265625 316.875 41.625 316.875 L 339.375 316.875 C 343.734375 316.875 347.25 312.984375 347.25 308.203125 L 347.25 108.421875 C 347.25 98.953125 340.3125 91.359375 331.734375 91.359375 L 172.125 91.359375 C 167.90625 91.359375 166.21875 90.796875 163.5 87.984375 L 147.515625 70.546875 C 147.46875 70.453125 147.421875 70.40625 147.328125 70.359375 L 147.328125 70.3125 C 145.453125 68.34375 142.96875 67.125 140.15625 67.125 Z M 44.0625 67.125 " transform="matrix(0.0833333,0,0,0.0833333,0,0)"/>
</g>
</defs>
<g id="surface1">
<path style=" stroke:none;fill-rule:evenodd;fill:rgb(0%,0%,0%);fill-opacity:0.588235;" d="M 4.648438 5.90625 C 4.203125 5.90625 3.847656 6.339844 3.847656 6.878906 L 3.847656 26.597656 C 3.847656 27.011719 4.121094 27.34375 4.460938 27.34375 L 27.609375 27.34375 C 27.949219 27.34375 28.222656 27.011719 28.222656 26.597656 L 28.222656 9.449219 C 28.222656 8.640625 27.683594 7.984375 27.015625 7.984375 L 14.605469 7.984375 C 14.277344 7.984375 14.148438 7.9375 13.9375 7.699219 L 12.691406 6.199219 C 12.6875 6.191406 12.683594 6.1875 12.679688 6.183594 L 12.675781 6.179688 C 12.53125 6.011719 12.335938 5.90625 12.121094 5.90625 Z M 4.648438 5.90625 "/>
<path style=" stroke:none;fill-rule:evenodd;fill:url(#linear0);" d="M 3.503906 5.214844 C 3.019531 5.214844 2.625 5.648438 2.625 6.1875 L 2.625 25.90625 C 2.625 26.316406 2.925781 26.648438 3.296875 26.648438 L 28.703125 26.648438 C 29.074219 26.648438 29.375 26.316406 29.375 25.90625 L 29.375 8.757812 C 29.375 7.945312 28.785156 7.292969 28.050781 7.292969 L 14.433594 7.292969 C 14.074219 7.292969 13.929688 7.246094 13.699219 7.003906 L 12.332031 5.503906 C 12.328125 5.5 12.324219 5.496094 12.316406 5.488281 C 12.15625 5.316406 11.941406 5.214844 11.703125 5.214844 Z M 3.503906 5.214844 "/>
<use xlink:href="#surface5" mask="url(#mask0)"/>
<path style=" stroke:none;fill-rule:nonzero;fill:rgb(0%,0%,0%);fill-opacity:0.588235;" d="M 4.941406 7.066406 L 11.800781 7.066406 C 12.128906 7.066406 12.398438 7.332031 12.398438 7.660156 L 12.398438 9.222656 C 12.398438 9.550781 12.128906 9.816406 11.800781 9.816406 L 4.941406 9.816406 C 4.613281 9.816406 4.347656 9.550781 4.347656 9.222656 L 4.347656 7.660156 C 4.347656 7.332031 4.613281 7.066406 4.941406 7.066406 Z M 4.941406 7.066406 "/>
<path style=" stroke:none;fill-rule:nonzero;fill:rgb(100%,100%,100%);fill-opacity:1;" d="M 4.515625 6.585938 L 11.375 6.585938 C 11.703125 6.585938 11.96875 6.851562 11.96875 7.179688 L 11.96875 8.742188 C 11.96875 9.070312 11.703125 9.335938 11.375 9.335938 L 4.515625 9.335938 C 4.1875 9.335938 3.921875 9.070312 3.921875 8.742188 L 3.921875 7.179688 C 3.921875 6.851562 4.1875 6.585938 4.515625 6.585938 Z M 4.515625 6.585938 "/>
<path style=" stroke:none;fill-rule:nonzero;fill:rgb(100%,100%,100%);fill-opacity:1;" d="M 20.640625 16.035156 L 17.597656 15.605469 L 16.234375 12.914062 C 16.15625 12.753906 16.058594 12.671875 15.9375 12.671875 C 15.816406 12.671875 15.71875 12.753906 15.640625 12.914062 L 14.277344 15.605469 L 11.234375 16.035156 C 11.007812 16.070312 10.894531 16.160156 10.894531 16.304688 C 10.894531 16.390625 10.945312 16.484375 11.046875 16.589844 L 13.253906 18.679688 L 12.730469 21.636719 C 12.722656 21.691406 12.71875 21.730469 12.71875 21.753906 C 12.71875 21.835938 12.738281 21.90625 12.78125 21.964844 C 12.824219 22.019531 12.886719 22.046875 12.972656 22.046875 C 13.046875 22.046875 13.125 22.023438 13.214844 21.976562 L 15.9375 20.582031 L 18.660156 21.976562 C 18.746094 22.023438 18.824219 22.046875 18.902344 22.046875 C 18.984375 22.046875 19.042969 22.019531 19.085938 21.964844 C 19.128906 21.90625 19.152344 21.835938 19.152344 21.753906 C 19.152344 21.703125 19.148438 21.664062 19.144531 21.636719 L 18.625 18.679688 L 20.824219 16.589844 C 20.929688 16.488281 20.980469 16.394531 20.980469 16.304688 C 20.980469 16.160156 20.867188 16.070312 20.640625 16.035156 Z M 20.640625 16.035156 "/>
</g>
</svg>
