
<svg xmlns="http://www.w3.org/2000/svg" xmlns:xlink="http://www.w3.org/1999/xlink" width="24px" height="24px" viewBox="0 0 24 24" version="1.1">
<defs>
<linearGradient id="linear0" gradientUnits="userSpaceOnUse" x1="198.300247" y1="66.203491" x2="196.276016" y2="320.847565" gradientTransform="matrix(0.0625,0,0,0.0625,0,0)">
<stop offset="0" style="stop-color:rgb(8.627451%,47.058824%,94.117647%);stop-opacity:1;"/>
<stop offset="1" style="stop-color:rgb(5.490196%,39.215687%,80.784315%);stop-opacity:1;"/>
</linearGradient>
<filter id="alpha" filterUnits="objectBoundingBox" x="0%" y="0%" width="100%" height="100%">
  <feColorMatrix type="matrix" in="SourceGraphic" values="0 0 0 0 1 0 0 0 0 1 0 0 0 0 1 0 0 0 1 0"/>
</filter>
<mask id="mask0">
  <g filter="url(#alpha)">
<rect x="0" y="0" width="24" height="24" style="fill:rgb(0%,0%,0%);fill-opacity:0.6;stroke:none;"/>
  </g>
</mask>
<linearGradient id="linear1" gradientUnits="userSpaceOnUse" x1="173.893509" y1="92.745766" x2="173.496323" y2="100.881363" >
<stop offset="0" style="stop-color:rgb(100%,100%,100%);stop-opacity:1;"/>
<stop offset="1" style="stop-color:rgb(100%,100%,100%);stop-opacity:0;"/>
</linearGradient>
<clipPath id="clip1">
  <rect x="0" y="0" width="24" height="24"/>
</clipPath>
<g id="surface5" clip-path="url(#clip1)">
<path style="fill:none;stroke-width:7.5;stroke-linecap:butt;stroke-linejoin:miter;stroke:url(#linear1);stroke-miterlimit:4;" d="M 44.0625 67.125 C 38.375 67.125 33.75 72.1875 33.75 78.4375 L 33.75 308.1875 C 33.75 313 37.3125 316.875 41.625 316.875 L 339.375 316.875 C 343.6875 316.875 347.25 313 347.25 308.1875 L 347.25 108.4375 C 347.25 98.9375 340.3125 91.375 331.75 91.375 L 172.125 91.375 C 167.9375 91.375 166.25 90.8125 163.5 88 L 147.5 70.5 C 147.4375 70.4375 147.375 70.375 147.375 70.375 L 147.3125 70.3125 C 145.4375 68.375 142.9375 67.125 140.1875 67.125 Z M 44.0625 67.125 " transform="matrix(0.0625,0,0,0.0625,0,0)"/>
</g>
</defs>
<g id="surface1">
<path style=" stroke:none;fill-rule:evenodd;fill:rgb(0%,0%,0%);fill-opacity:0.588235;" d="M 3.484375 4.429688 C 3.152344 4.429688 2.886719 4.753906 2.886719 5.160156 L 2.886719 19.949219 C 2.886719 20.257812 3.089844 20.507812 3.34375 20.507812 L 20.707031 20.507812 C 20.960938 20.507812 21.164062 20.257812 21.164062 19.949219 L 21.164062 7.089844 C 21.164062 6.480469 20.761719 5.988281 20.261719 5.988281 L 10.957031 5.988281 C 10.707031 5.988281 10.609375 5.953125 10.453125 5.773438 L 9.519531 4.648438 C 9.515625 4.644531 9.511719 4.640625 9.507812 4.636719 C 9.398438 4.507812 9.253906 4.429688 9.089844 4.429688 Z M 3.484375 4.429688 "/>
<path style=" stroke:none;fill-rule:evenodd;fill:url(#linear0);" d="M 2.628906 3.910156 C 2.265625 3.910156 1.96875 4.234375 1.96875 4.640625 L 1.96875 19.429688 C 1.96875 19.738281 2.195312 19.988281 2.472656 19.988281 L 21.527344 19.988281 C 21.804688 19.988281 22.03125 19.738281 22.03125 19.429688 L 22.03125 6.570312 C 22.03125 5.960938 21.585938 5.46875 21.039062 5.46875 L 10.824219 5.46875 C 10.554688 5.46875 10.445312 5.433594 10.273438 5.253906 L 9.25 4.128906 C 9.246094 4.125 9.242188 4.121094 9.238281 4.117188 L 9.234375 4.113281 C 9.117188 3.988281 8.957031 3.910156 8.777344 3.910156 Z M 2.628906 3.910156 "/>
<use xlink:href="#surface5" mask="url(#mask0)"/>
<path style=" stroke:none;fill-rule:nonzero;fill:rgb(0%,0%,0%);fill-opacity:0.588235;" d="M 3.707031 5.300781 L 8.851562 5.300781 C 9.097656 5.300781 9.296875 5.5 9.296875 5.746094 L 9.296875 6.917969 C 9.296875 7.164062 9.097656 7.363281 8.851562 7.363281 L 3.707031 7.363281 C 3.460938 7.363281 3.261719 7.164062 3.261719 6.917969 L 3.261719 5.746094 C 3.261719 5.5 3.460938 5.300781 3.707031 5.300781 Z M 3.707031 5.300781 "/>
<path style=" stroke:none;fill-rule:nonzero;fill:rgb(100%,100%,100%);fill-opacity:1;" d="M 3.386719 4.941406 L 8.53125 4.941406 C 8.777344 4.941406 8.976562 5.140625 8.976562 5.386719 L 8.976562 6.558594 C 8.976562 6.804688 8.777344 7.003906 8.53125 7.003906 L 3.386719 7.003906 C 3.140625 7.003906 2.941406 6.804688 2.941406 6.558594 L 2.941406 5.386719 C 2.941406 5.140625 3.140625 4.941406 3.386719 4.941406 Z M 3.386719 4.941406 "/>
<path style=" stroke:none;fill-rule:nonzero;fill:rgb(100%,100%,100%);fill-opacity:1;" d="M 12 10.078125 C 10.058594 10.078125 8.484375 11.652344 8.484375 13.59375 C 8.484375 15.535156 10.058594 17.109375 12 17.109375 C 13.941406 17.109375 15.515625 15.535156 15.515625 13.59375 C 15.515625 11.652344 13.941406 10.078125 12 10.078125 Z M 12 10.6875 C 12.8125 10.6875 13.480469 10.964844 14.054688 11.539062 C 14.628906 12.113281 14.90625 12.78125 14.90625 13.59375 C 14.90625 13.617188 14.90625 13.640625 14.902344 13.664062 L 13.597656 13.664062 L 12.945312 11.5 C 12.9375 11.480469 12.929688 11.457031 12.917969 11.441406 C 12.910156 11.433594 12.90625 11.425781 12.902344 11.421875 C 12.898438 11.417969 12.894531 11.410156 12.886719 11.40625 C 12.875 11.394531 12.863281 11.386719 12.851562 11.378906 C 12.832031 11.363281 12.8125 11.355469 12.792969 11.347656 C 12.769531 11.34375 12.746094 11.339844 12.726562 11.339844 C 12.71875 11.339844 12.710938 11.339844 12.703125 11.34375 C 12.6875 11.34375 12.671875 11.347656 12.660156 11.351562 C 12.644531 11.355469 12.632812 11.363281 12.617188 11.371094 C 12.613281 11.375 12.605469 11.378906 12.597656 11.382812 C 12.59375 11.386719 12.585938 11.390625 12.582031 11.398438 C 12.578125 11.402344 12.570312 11.40625 12.566406 11.414062 C 12.546875 11.433594 12.53125 11.460938 12.519531 11.488281 C 12.515625 11.496094 12.515625 11.503906 12.511719 11.511719 C 12.511719 11.515625 12.511719 11.519531 12.511719 11.523438 L 12.117188 13.554688 L 11.644531 11.515625 C 11.644531 11.507812 11.640625 11.5 11.640625 11.492188 C 11.636719 11.484375 11.632812 11.480469 11.632812 11.472656 C 11.628906 11.464844 11.625 11.457031 11.621094 11.453125 C 11.617188 11.445312 11.613281 11.441406 11.609375 11.433594 C 11.601562 11.421875 11.589844 11.410156 11.578125 11.398438 C 11.554688 11.378906 11.53125 11.363281 11.503906 11.355469 C 11.488281 11.347656 11.472656 11.34375 11.457031 11.34375 C 11.445312 11.339844 11.429688 11.339844 11.414062 11.339844 C 11.398438 11.34375 11.382812 11.34375 11.371094 11.347656 C 11.351562 11.351562 11.332031 11.359375 11.316406 11.371094 C 11.292969 11.382812 11.273438 11.398438 11.257812 11.417969 C 11.253906 11.421875 11.246094 11.429688 11.242188 11.4375 C 11.238281 11.441406 11.234375 11.449219 11.230469 11.453125 C 11.230469 11.457031 11.230469 11.460938 11.226562 11.460938 C 11.222656 11.472656 11.21875 11.484375 11.214844 11.496094 C 11.210938 11.5 11.210938 11.507812 11.210938 11.511719 C 11.207031 11.511719 11.207031 11.515625 11.207031 11.515625 C 11.207031 11.519531 11.207031 11.519531 11.207031 11.519531 L 10.53125 14.722656 L 10.265625 13.828125 C 10.261719 13.8125 10.257812 13.796875 10.25 13.785156 C 10.246094 13.777344 10.242188 13.773438 10.238281 13.765625 C 10.234375 13.757812 10.230469 13.753906 10.226562 13.746094 C 10.21875 13.742188 10.214844 13.734375 10.210938 13.730469 C 10.195312 13.714844 10.175781 13.703125 10.15625 13.691406 C 10.125 13.675781 10.085938 13.664062 10.050781 13.664062 L 9.097656 13.664062 C 9.09375 13.640625 9.09375 13.617188 9.09375 13.59375 C 9.09375 12.78125 9.371094 12.113281 9.945312 11.539062 C 10.519531 10.964844 11.1875 10.6875 12 10.6875 Z M 12.777344 12.5 L 13.214844 13.953125 C 13.226562 13.992188 13.246094 14.023438 13.273438 14.050781 C 13.300781 14.074219 13.332031 14.09375 13.367188 14.105469 C 13.375 14.105469 13.382812 14.109375 13.390625 14.109375 C 13.398438 14.113281 13.40625 14.113281 13.414062 14.113281 C 13.417969 14.113281 13.425781 14.113281 13.429688 14.113281 L 14.863281 14.113281 C 14.765625 14.699219 14.5 15.203125 14.054688 15.648438 C 13.480469 16.222656 12.8125 16.5 12 16.5 C 11.1875 16.5 10.519531 16.222656 9.945312 15.648438 C 9.5 15.203125 9.234375 14.699219 9.136719 14.113281 L 9.882812 14.113281 L 10.351562 15.699219 C 10.363281 15.734375 10.382812 15.765625 10.40625 15.792969 C 10.417969 15.804688 10.429688 15.8125 10.441406 15.824219 C 10.453125 15.832031 10.46875 15.835938 10.480469 15.84375 C 10.488281 15.847656 10.496094 15.847656 10.503906 15.851562 C 10.511719 15.851562 10.519531 15.855469 10.523438 15.855469 C 10.539062 15.859375 10.554688 15.859375 10.570312 15.859375 C 10.578125 15.859375 10.585938 15.859375 10.59375 15.855469 C 10.609375 15.855469 10.621094 15.851562 10.636719 15.847656 C 10.640625 15.847656 10.644531 15.84375 10.648438 15.84375 C 10.65625 15.839844 10.667969 15.835938 10.675781 15.832031 C 10.691406 15.824219 10.703125 15.8125 10.714844 15.804688 C 10.71875 15.800781 10.722656 15.792969 10.730469 15.789062 C 10.757812 15.757812 10.777344 15.722656 10.785156 15.683594 L 11.4375 12.605469 L 11.917969 14.683594 C 11.9375 14.769531 12.003906 14.835938 12.089844 14.851562 C 12.179688 14.871094 12.265625 14.835938 12.316406 14.761719 C 12.328125 14.75 12.332031 14.738281 12.339844 14.722656 C 12.34375 14.714844 12.34375 14.710938 12.347656 14.703125 C 12.351562 14.695312 12.351562 14.6875 12.355469 14.679688 C 12.355469 14.679688 12.355469 14.675781 12.355469 14.675781 Z M 12.777344 12.5 "/>
</g>
</svg>
