
<svg xmlns="http://www.w3.org/2000/svg" xmlns:xlink="http://www.w3.org/1999/xlink" width="24px" height="24px" viewBox="0 0 24 24" version="1.1">
<defs>
<linearGradient id="linear0" gradientUnits="userSpaceOnUse" x1="198.300247" y1="66.203491" x2="196.276016" y2="320.847565" gradientTransform="matrix(0.0625,0,0,0.0625,0,0)">
<stop offset="0" style="stop-color:rgb(8.627451%,47.058824%,94.117647%);stop-opacity:1;"/>
<stop offset="1" style="stop-color:rgb(5.490196%,39.215687%,80.784315%);stop-opacity:1;"/>
</linearGradient>
<filter id="alpha" filterUnits="objectBoundingBox" x="0%" y="0%" width="100%" height="100%">
  <feColorMatrix type="matrix" in="SourceGraphic" values="0 0 0 0 1 0 0 0 0 1 0 0 0 0 1 0 0 0 1 0"/>
</filter>
<mask id="mask0">
  <g filter="url(#alpha)">
<rect x="0" y="0" width="24" height="24" style="fill:rgb(0%,0%,0%);fill-opacity:0.6;stroke:none;"/>
  </g>
</mask>
<linearGradient id="linear1" gradientUnits="userSpaceOnUse" x1="173.893509" y1="92.745766" x2="173.496323" y2="100.881363" >
<stop offset="0" style="stop-color:rgb(100%,100%,100%);stop-opacity:1;"/>
<stop offset="1" style="stop-color:rgb(100%,100%,100%);stop-opacity:0;"/>
</linearGradient>
<clipPath id="clip1">
  <rect x="0" y="0" width="24" height="24"/>
</clipPath>
<g id="surface5" clip-path="url(#clip1)">
<path style="fill:none;stroke-width:7.5;stroke-linecap:butt;stroke-linejoin:miter;stroke:url(#linear1);stroke-miterlimit:4;" d="M 44.0625 67.125 C 38.375 67.125 33.75 72.1875 33.75 78.4375 L 33.75 308.1875 C 33.75 313 37.3125 316.875 41.625 316.875 L 339.375 316.875 C 343.6875 316.875 347.25 313 347.25 308.1875 L 347.25 108.4375 C 347.25 98.9375 340.3125 91.375 331.75 91.375 L 172.125 91.375 C 167.9375 91.375 166.25 90.8125 163.5 88 L 147.5 70.5 C 147.4375 70.4375 147.375 70.375 147.375 70.375 L 147.3125 70.3125 C 145.4375 68.375 142.9375 67.125 140.1875 67.125 Z M 44.0625 67.125 " transform="matrix(0.0625,0,0,0.0625,0,0)"/>
</g>
</defs>
<g id="surface1">
<path style=" stroke:none;fill-rule:evenodd;fill:rgb(0%,0%,0%);fill-opacity:0.588235;" d="M 3.484375 4.429688 C 3.152344 4.429688 2.886719 4.753906 2.886719 5.160156 L 2.886719 19.949219 C 2.886719 20.257812 3.089844 20.507812 3.34375 20.507812 L 20.707031 20.507812 C 20.960938 20.507812 21.164062 20.257812 21.164062 19.949219 L 21.164062 7.089844 C 21.164062 6.480469 20.761719 5.988281 20.261719 5.988281 L 10.957031 5.988281 C 10.707031 5.988281 10.609375 5.953125 10.453125 5.773438 L 9.519531 4.648438 C 9.515625 4.644531 9.511719 4.640625 9.507812 4.636719 C 9.398438 4.507812 9.253906 4.429688 9.089844 4.429688 Z M 3.484375 4.429688 "/>
<path style=" stroke:none;fill-rule:evenodd;fill:url(#linear0);" d="M 2.628906 3.910156 C 2.265625 3.910156 1.96875 4.234375 1.96875 4.640625 L 1.96875 19.429688 C 1.96875 19.738281 2.195312 19.988281 2.472656 19.988281 L 21.527344 19.988281 C 21.804688 19.988281 22.03125 19.738281 22.03125 19.429688 L 22.03125 6.570312 C 22.03125 5.960938 21.585938 5.46875 21.039062 5.46875 L 10.824219 5.46875 C 10.554688 5.46875 10.445312 5.433594 10.273438 5.253906 L 9.25 4.128906 C 9.246094 4.125 9.242188 4.121094 9.238281 4.117188 L 9.234375 4.113281 C 9.117188 3.988281 8.957031 3.910156 8.777344 3.910156 Z M 2.628906 3.910156 "/>
<use xlink:href="#surface5" mask="url(#mask0)"/>
<path style=" stroke:none;fill-rule:nonzero;fill:rgb(0%,0%,0%);fill-opacity:0.588235;" d="M 3.707031 5.300781 L 8.851562 5.300781 C 9.097656 5.300781 9.296875 5.5 9.296875 5.746094 L 9.296875 6.917969 C 9.296875 7.164062 9.097656 7.363281 8.851562 7.363281 L 3.707031 7.363281 C 3.460938 7.363281 3.261719 7.164062 3.261719 6.917969 L 3.261719 5.746094 C 3.261719 5.5 3.460938 5.300781 3.707031 5.300781 Z M 3.707031 5.300781 "/>
<path style=" stroke:none;fill-rule:nonzero;fill:rgb(100%,100%,100%);fill-opacity:1;" d="M 3.386719 4.941406 L 8.53125 4.941406 C 8.777344 4.941406 8.976562 5.140625 8.976562 5.386719 L 8.976562 6.558594 C 8.976562 6.804688 8.777344 7.003906 8.53125 7.003906 L 3.386719 7.003906 C 3.140625 7.003906 2.941406 6.804688 2.941406 6.558594 L 2.941406 5.386719 C 2.941406 5.140625 3.140625 4.941406 3.386719 4.941406 Z M 3.386719 4.941406 "/>
<path style="fill:none;stroke-width:3.19125;stroke-linecap:butt;stroke-linejoin:miter;stroke:rgb(100%,100%,100%);stroke-opacity:1;stroke-miterlimit:4;" d="M 190.25 252.875 C 184.5 251.3125 179.8125 247.625 177.1875 242.375 C 176 239.9375 174.4375 233.75 174.875 233.3125 C 175 233.25 177.1875 235.3125 178.4375 236.1875 C 179.6875 237 180.75 237.8125 180.75 237.8125 C 180.9375 237.9375 182.8125 239.3125 185.3125 241.125 C 190.6875 245.0625 192.1875 245.5 195.375 245.5625 C 199.75 245.5625 203.375 243.6875 205.6875 240.125 C 207.75 236.9375 208.375 232.9375 207.3125 229.5 C 206.1875 225.8125 204.5625 224 199.0625 220.5 C 196.9375 219.125 194.8125 217.875 194.25 217.625 C 193.8125 217.375 190.6875 215.875 189.5625 215.0625 C 188.875 214.625 187.9375 214 188.0625 213.9375 C 188.625 213.625 189.9375 213.625 191.8125 213 L 192.9375 212.6875 L 196 207.9375 C 197.625 205.4375 199.3125 202.6875 199.75 201.875 C 200.625 200.1875 201.6875 198.375 201.875 198.1875 C 202 198.1875 202.125 199.6875 202.25 200.6875 C 202.6875 205.25 205.125 211.125 208.3125 215.125 C 212.625 220.5625 219.8125 224.6875 226.375 225.4375 C 227.25 225.5625 228.0625 225.5625 228.0625 225.6875 C 228.0625 225.9375 225.8125 227.5 225.0625 227.9375 C 224.8125 228.0625 222.4375 229.5625 219.9375 231.3125 L 215.3125 234.5625 L 214.875 236.875 C 213.4375 244.3125 208.4375 250.125 201.5 252.5 C 198.4375 253.5625 193.25 253.75 190.25 252.875 Z M 190.25 252.875 " transform="matrix(0.0625,0,0,0.0625,0,0)"/>
<path style="fill:none;stroke-width:3.19125;stroke-linecap:butt;stroke-linejoin:miter;stroke:rgb(100%,100%,100%);stroke-opacity:1;stroke-miterlimit:4;" d="M 146 222.8125 C 136.75 221.1875 130.1875 213.625 129.1875 204.4375 C 128.0625 194.5 133.9375 185.625 143.625 182.625 C 146.25 181.75 151.4375 181.6875 154.1875 182.4375 C 157.75 183.4375 161.1875 185.5625 163.8125 188.25 C 165.3125 189.875 166.3125 191.75 167.5 193.5625 C 168.8125 195.5625 170 201.75 169.6875 202.0625 C 169.625 202.125 167.75 199.9375 166.625 199.0625 C 165.5625 198.25 164.5625 197.375 164.375 197.25 C 164.1875 197.1875 162.1875 195.625 159.75 193.9375 C 154.5625 190.3125 152.625 189.75 149.5 189.75 C 146.125 189.75 143.375 190.8125 141.0625 192.9375 C 136.5 197.3125 135.6875 204 139.125 209.25 C 140.125 210.8125 141.8125 212.375 143.125 213.125 C 145 214.0625 157 221.3125 157 221.625 C 157.0625 221.9375 155.125 222.625 152.875 222.875 C 150.375 223.125 147.4375 223.0625 146 222.8125 Z M 146 222.8125 " transform="matrix(0.0625,0,0,0.0625,0,0)"/>
<path style=" stroke:none;fill-rule:nonzero;fill:rgb(100%,100%,100%);fill-opacity:1;" d="M 14.351562 10.683594 C 14.082031 10.683594 13.917969 10.710938 13.699219 10.796875 C 13.101562 11.035156 12.671875 11.613281 12.632812 12.238281 C 12.628906 12.3125 12.625 12.351562 12.617188 12.386719 C 12.625 12.386719 12.632812 12.480469 12.640625 12.542969 C 12.667969 12.828125 12.820312 13.195312 13.019531 13.445312 C 13.289062 13.785156 13.738281 14.042969 14.148438 14.089844 C 14.199219 14.097656 14.246094 14.097656 14.253906 14.101562 C 14.285156 14.089844 14.335938 14.085938 14.445312 14.082031 C 14.851562 14.058594 15.230469 13.886719 15.53125 13.589844 C 16.042969 13.082031 16.179688 12.3125 15.875 11.660156 C 15.65625 11.199219 15.253906 10.863281 14.75 10.730469 C 14.609375 10.691406 14.546875 10.683594 14.351562 10.683594 Z M 14.351562 11.179688 C 14.578125 11.179688 14.597656 11.183594 14.730469 11.234375 C 15.023438 11.347656 15.238281 11.542969 15.371094 11.816406 C 15.46875 12.019531 15.503906 12.179688 15.492188 12.402344 C 15.464844 12.894531 15.15625 13.304688 14.691406 13.457031 C 14.519531 13.511719 14.269531 13.527344 14.097656 13.488281 C 13.847656 13.429688 13.585938 13.261719 13.433594 13.0625 C 13.257812 12.824219 13.183594 12.574219 13.195312 12.28125 C 13.214844 11.800781 13.523438 11.386719 13.972656 11.226562 C 14.105469 11.183594 14.132812 11.179688 14.351562 11.179688 Z M 9.34375 11.859375 C 9.132812 11.859375 8.960938 11.925781 8.816406 12.058594 C 8.53125 12.332031 8.480469 12.75 8.695312 13.078125 C 8.757812 13.175781 8.863281 13.273438 8.945312 13.320312 C 9.0625 13.378906 9.8125 13.832031 9.8125 13.851562 L 9.820312 13.851562 L 10.03125 13.988281 C 10.144531 14.0625 10.394531 14.226562 10.582031 14.351562 L 10.925781 14.582031 L 10.925781 14.589844 C 10.925781 14.585938 10.929688 14.585938 10.929688 14.582031 C 10.933594 14.578125 11.074219 14.707031 11.152344 14.761719 C 11.230469 14.8125 11.296875 14.863281 11.296875 14.863281 C 11.308594 14.871094 11.425781 14.957031 11.582031 15.070312 C 11.917969 15.316406 12.011719 15.34375 12.210938 15.347656 C 12.484375 15.347656 12.710938 15.230469 12.855469 15.007812 C 12.984375 14.808594 13.023438 14.558594 12.957031 14.34375 C 12.886719 14.113281 12.785156 14 12.441406 13.78125 C 12.308594 13.695312 12.175781 13.617188 12.140625 13.601562 C 12.113281 13.585938 11.917969 13.492188 11.847656 13.441406 C 11.804688 13.414062 11.75 13.378906 11.753906 13.371094 C 11.695312 13.351562 11.53125 13.246094 11.171875 13.007812 L 10.605469 12.628906 L 10.605469 12.625 C 10.605469 12.625 10.605469 12.628906 10.605469 12.628906 C 10.601562 12.632812 10.484375 12.496094 10.414062 12.441406 C 10.347656 12.390625 10.285156 12.335938 10.273438 12.328125 C 10.261719 12.324219 10.136719 12.226562 9.984375 12.121094 C 9.65625 11.894531 9.535156 11.859375 9.34375 11.859375 Z M 10.554688 12.320312 C 10.566406 12.359375 10.574219 12.398438 10.582031 12.4375 C 10.574219 12.398438 10.566406 12.359375 10.554688 12.320312 Z M 12.40625 12.75 C 12.386719 12.78125 12.371094 12.800781 12.351562 12.832031 C 12.371094 12.804688 12.390625 12.773438 12.40625 12.75 Z M 10.945312 14.738281 C 10.960938 14.839844 10.988281 14.941406 11.027344 15.035156 C 10.996094 14.941406 10.964844 14.828125 10.945312 14.738281 Z M 10.945312 14.738281 "/>
</g>
</svg>
