
<svg xmlns="http://www.w3.org/2000/svg" xmlns:xlink="http://www.w3.org/1999/xlink" width="64px" height="64px" viewBox="0 0 64 64" version="1.1">
<defs>
<linearGradient id="linear0" gradientUnits="userSpaceOnUse" x1="198.300247" y1="66.203491" x2="196.276016" y2="320.847565" gradientTransform="matrix(0.166667,0,0,0.166667,0,0)">
<stop offset="0" style="stop-color:rgb(8.627451%,47.058824%,94.117647%);stop-opacity:1;"/>
<stop offset="1" style="stop-color:rgb(5.490196%,39.215687%,80.784315%);stop-opacity:1;"/>
</linearGradient>
<filter id="alpha" filterUnits="objectBoundingBox" x="0%" y="0%" width="100%" height="100%">
  <feColorMatrix type="matrix" in="SourceGraphic" values="0 0 0 0 1 0 0 0 0 1 0 0 0 0 1 0 0 0 1 0"/>
</filter>
<mask id="mask0">
  <g filter="url(#alpha)">
<rect x="0" y="0" width="64" height="64" style="fill:rgb(0%,0%,0%);fill-opacity:0.6;stroke:none;"/>
  </g>
</mask>
<linearGradient id="linear1" gradientUnits="userSpaceOnUse" x1="173.893509" y1="92.745766" x2="173.496323" y2="100.881363" >
<stop offset="0" style="stop-color:rgb(100%,100%,100%);stop-opacity:1;"/>
<stop offset="1" style="stop-color:rgb(100%,100%,100%);stop-opacity:0;"/>
</linearGradient>
<clipPath id="clip1">
  <rect x="0" y="0" width="64" height="64"/>
</clipPath>
<g id="surface5" clip-path="url(#clip1)">
<path style="fill:none;stroke-width:7.5;stroke-linecap:butt;stroke-linejoin:miter;stroke:url(#linear1);stroke-miterlimit:4;" d="M 44.0625 67.125 C 38.367188 67.125 33.773438 72.1875 33.773438 78.46875 L 33.773438 308.203125 C 33.773438 312.984375 37.289062 316.875 41.648438 316.875 L 339.351562 316.875 C 343.710938 316.875 347.226562 312.984375 347.226562 308.203125 L 347.226562 108.421875 C 347.226562 98.953125 340.3125 91.359375 331.734375 91.359375 L 172.148438 91.359375 C 167.90625 91.359375 166.242188 90.796875 163.523438 87.984375 L 147.515625 70.523438 C 147.445312 70.453125 147.398438 70.40625 147.351562 70.335938 L 147.304688 70.3125 C 145.453125 68.34375 142.945312 67.125 140.15625 67.125 Z M 44.0625 67.125 " transform="matrix(0.166667,0,0,0.166667,0,0)"/>
</g>
</defs>
<g id="surface1">
<path style=" stroke:none;fill-rule:evenodd;fill:rgb(0%,0%,0%);fill-opacity:0.588235;" d="M 9.296875 11.8125 C 8.410156 11.8125 7.695312 12.679688 7.695312 13.761719 L 7.695312 53.195312 C 7.695312 54.023438 8.238281 54.6875 8.917969 54.6875 L 55.214844 54.6875 C 55.894531 54.6875 56.441406 54.023438 56.441406 53.195312 L 56.441406 18.902344 C 56.441406 17.277344 55.367188 15.972656 54.03125 15.972656 L 29.214844 15.972656 C 28.554688 15.972656 28.292969 15.875 27.871094 15.394531 L 25.382812 12.394531 C 25.375 12.386719 25.363281 12.375 25.355469 12.363281 L 25.351562 12.359375 C 25.0625 12.023438 24.671875 11.8125 24.238281 11.8125 Z M 9.296875 11.8125 "/>
<path style=" stroke:none;fill-rule:evenodd;fill:url(#linear0);" d="M 7.011719 10.429688 C 6.039062 10.429688 5.253906 11.296875 5.253906 12.375 L 5.253906 51.8125 C 5.253906 52.636719 5.851562 53.300781 6.597656 53.300781 L 57.402344 53.300781 C 58.148438 53.300781 58.746094 52.636719 58.746094 51.8125 L 58.746094 17.515625 C 58.746094 15.890625 57.566406 14.585938 56.101562 14.585938 L 28.867188 14.585938 C 28.144531 14.585938 27.859375 14.492188 27.394531 14.007812 L 24.664062 11.011719 C 24.65625 11 24.644531 10.988281 24.636719 10.980469 L 24.628906 10.972656 C 24.3125 10.636719 23.886719 10.429688 23.410156 10.429688 Z M 7.011719 10.429688 "/>
<use xlink:href="#surface5" mask="url(#mask0)"/>
<path style=" stroke:none;fill-rule:nonzero;fill:rgb(0%,0%,0%);fill-opacity:0.588235;" d="M 9.886719 14.128906 L 23.605469 14.128906 C 24.261719 14.128906 24.792969 14.664062 24.792969 15.320312 L 24.792969 18.445312 C 24.792969 19.101562 24.261719 19.632812 23.605469 19.632812 L 9.886719 19.632812 C 9.230469 19.632812 8.699219 19.101562 8.699219 18.445312 L 8.699219 15.320312 C 8.699219 14.664062 9.230469 14.128906 9.886719 14.128906 Z M 9.886719 14.128906 "/>
<path style=" stroke:none;fill-rule:nonzero;fill:rgb(100%,100%,100%);fill-opacity:1;" d="M 9.03125 13.171875 L 22.75 13.171875 C 23.40625 13.171875 23.9375 13.703125 23.9375 14.359375 L 23.9375 17.484375 C 23.9375 18.140625 23.40625 18.671875 22.75 18.671875 L 9.03125 18.671875 C 8.375 18.671875 7.839844 18.140625 7.839844 17.484375 L 7.839844 14.359375 C 7.839844 13.703125 8.375 13.171875 9.03125 13.171875 Z M 9.03125 13.171875 "/>
<path style=" stroke:none;fill-rule:nonzero;fill:rgb(100%,100%,100%);fill-opacity:1;" d="M 32 26.875 C 26.824219 26.875 22.625 31.074219 22.625 36.25 C 22.625 41.425781 26.824219 45.625 32 45.625 C 37.175781 45.625 41.375 41.425781 41.375 36.25 C 41.375 31.074219 37.175781 26.875 32 26.875 Z M 32 28.5 C 34.164062 28.5 35.949219 29.238281 37.480469 30.769531 C 39.011719 32.300781 39.75 34.085938 39.75 36.25 C 39.75 36.316406 39.746094 36.378906 39.746094 36.441406 L 36.257812 36.441406 L 34.519531 30.667969 C 34.503906 30.609375 34.476562 30.554688 34.441406 30.507812 C 34.433594 30.488281 34.417969 30.472656 34.40625 30.457031 C 34.394531 30.441406 34.378906 30.429688 34.367188 30.414062 C 34.339844 30.386719 34.308594 30.359375 34.273438 30.339844 C 34.222656 30.308594 34.167969 30.28125 34.109375 30.265625 C 34.054688 30.25 33.992188 30.242188 33.933594 30.242188 C 33.914062 30.242188 33.894531 30.246094 33.875 30.246094 C 33.835938 30.25 33.796875 30.261719 33.757812 30.273438 C 33.71875 30.285156 33.683594 30.300781 33.648438 30.320312 C 33.632812 30.332031 33.613281 30.34375 33.597656 30.355469 C 33.582031 30.367188 33.566406 30.378906 33.550781 30.390625 C 33.535156 30.40625 33.523438 30.417969 33.507812 30.433594 C 33.453125 30.492188 33.414062 30.5625 33.386719 30.636719 C 33.378906 30.65625 33.371094 30.671875 33.367188 30.691406 C 33.363281 30.703125 33.363281 30.714844 33.359375 30.726562 L 32.308594 36.144531 L 31.054688 30.707031 C 31.050781 30.6875 31.042969 30.667969 31.039062 30.648438 C 31.03125 30.628906 31.023438 30.609375 31.015625 30.59375 C 31.007812 30.574219 31 30.554688 30.988281 30.539062 C 30.976562 30.523438 30.96875 30.503906 30.957031 30.488281 C 30.933594 30.457031 30.90625 30.425781 30.875 30.398438 C 30.816406 30.347656 30.75 30.304688 30.671875 30.277344 C 30.636719 30.265625 30.597656 30.253906 30.558594 30.25 C 30.519531 30.242188 30.476562 30.242188 30.4375 30.242188 C 30.398438 30.246094 30.359375 30.25 30.320312 30.261719 C 30.269531 30.273438 30.21875 30.296875 30.175781 30.320312 C 30.117188 30.355469 30.0625 30.398438 30.019531 30.449219 C 30.007812 30.464844 29.996094 30.480469 29.984375 30.496094 C 29.972656 30.511719 29.960938 30.527344 29.949219 30.546875 C 29.949219 30.550781 29.945312 30.558594 29.941406 30.5625 C 29.925781 30.59375 29.914062 30.625 29.902344 30.65625 C 29.898438 30.667969 29.894531 30.683594 29.890625 30.699219 C 29.890625 30.703125 29.890625 30.707031 29.886719 30.710938 C 29.886719 30.714844 29.886719 30.714844 29.886719 30.714844 L 28.082031 39.257812 L 27.378906 36.871094 C 27.367188 36.832031 27.351562 36.792969 27.332031 36.757812 C 27.324219 36.742188 27.3125 36.726562 27.300781 36.707031 C 27.289062 36.691406 27.277344 36.675781 27.265625 36.660156 C 27.253906 36.644531 27.238281 36.628906 27.226562 36.617188 C 27.183594 36.574219 27.136719 36.539062 27.082031 36.511719 C 26.996094 36.464844 26.902344 36.441406 26.804688 36.441406 L 24.257812 36.441406 C 24.253906 36.375 24.246094 36.316406 24.246094 36.25 C 24.246094 34.085938 24.988281 32.300781 26.519531 30.769531 C 28.050781 29.238281 29.835938 28.5 32 28.5 Z M 34.074219 33.332031 L 35.242188 37.210938 C 35.269531 37.308594 35.320312 37.394531 35.394531 37.464844 C 35.464844 37.535156 35.550781 37.585938 35.648438 37.613281 C 35.667969 37.621094 35.6875 37.625 35.707031 37.628906 C 35.726562 37.632812 35.746094 37.632812 35.765625 37.636719 C 35.78125 37.636719 35.796875 37.636719 35.8125 37.636719 L 39.640625 37.636719 C 39.378906 39.195312 38.671875 40.542969 37.480469 41.730469 C 35.949219 43.261719 34.164062 44 32 44 C 29.835938 44 28.046875 43.261719 26.519531 41.730469 C 25.328125 40.542969 24.621094 39.199219 24.363281 37.636719 L 26.355469 37.636719 L 27.601562 41.863281 C 27.628906 41.960938 27.683594 42.046875 27.753906 42.117188 C 27.78125 42.144531 27.8125 42.171875 27.847656 42.191406 C 27.878906 42.214844 27.914062 42.234375 27.953125 42.25 C 27.96875 42.257812 27.988281 42.261719 28.007812 42.269531 C 28.027344 42.273438 28.046875 42.277344 28.066406 42.28125 C 28.105469 42.289062 28.144531 42.292969 28.183594 42.292969 C 28.207031 42.292969 28.230469 42.289062 28.253906 42.285156 C 28.292969 42.28125 28.328125 42.273438 28.363281 42.261719 C 28.375 42.257812 28.386719 42.253906 28.394531 42.25 C 28.421875 42.238281 28.445312 42.226562 28.472656 42.214844 C 28.503906 42.195312 28.539062 42.171875 28.570312 42.144531 C 28.582031 42.132812 28.597656 42.117188 28.613281 42.101562 C 28.6875 42.023438 28.738281 41.925781 28.761719 41.816406 L 30.496094 33.609375 L 31.777344 39.15625 C 31.828125 39.386719 32.011719 39.5625 32.242188 39.609375 C 32.476562 39.652344 32.710938 39.558594 32.847656 39.367188 C 32.871094 39.332031 32.890625 39.296875 32.90625 39.261719 C 32.914062 39.242188 32.921875 39.226562 32.925781 39.207031 C 32.933594 39.1875 32.9375 39.167969 32.941406 39.148438 C 32.945312 39.144531 32.945312 39.140625 32.945312 39.136719 Z M 34.074219 33.332031 "/>
</g>
</svg>
