
<svg xmlns="http://www.w3.org/2000/svg" xmlns:xlink="http://www.w3.org/1999/xlink" width="64px" height="64px" viewBox="0 0 64 64" version="1.1">
<defs>
<linearGradient id="linear0" gradientUnits="userSpaceOnUse" x1="198.300247" y1="66.203491" x2="196.276016" y2="320.847565" gradientTransform="matrix(0.166667,0,0,0.166667,0,0)">
<stop offset="0" style="stop-color:rgb(8.627451%,47.058824%,94.117647%);stop-opacity:1;"/>
<stop offset="1" style="stop-color:rgb(5.490196%,39.215687%,80.784315%);stop-opacity:1;"/>
</linearGradient>
<filter id="alpha" filterUnits="objectBoundingBox" x="0%" y="0%" width="100%" height="100%">
  <feColorMatrix type="matrix" in="SourceGraphic" values="0 0 0 0 1 0 0 0 0 1 0 0 0 0 1 0 0 0 1 0"/>
</filter>
<mask id="mask0">
  <g filter="url(#alpha)">
<rect x="0" y="0" width="64" height="64" style="fill:rgb(0%,0%,0%);fill-opacity:0.6;stroke:none;"/>
  </g>
</mask>
<linearGradient id="linear1" gradientUnits="userSpaceOnUse" x1="173.893509" y1="92.745766" x2="173.496323" y2="100.881363" >
<stop offset="0" style="stop-color:rgb(100%,100%,100%);stop-opacity:1;"/>
<stop offset="1" style="stop-color:rgb(100%,100%,100%);stop-opacity:0;"/>
</linearGradient>
<clipPath id="clip1">
  <rect x="0" y="0" width="64" height="64"/>
</clipPath>
<g id="surface5" clip-path="url(#clip1)">
<path style="fill:none;stroke-width:7.5;stroke-linecap:butt;stroke-linejoin:miter;stroke:url(#linear1);stroke-miterlimit:4;" d="M 44.0625 67.125 C 38.367188 67.125 33.773438 72.1875 33.773438 78.46875 L 33.773438 308.203125 C 33.773438 312.984375 37.289062 316.875 41.648438 316.875 L 339.351562 316.875 C 343.710938 316.875 347.226562 312.984375 347.226562 308.203125 L 347.226562 108.421875 C 347.226562 98.953125 340.3125 91.359375 331.734375 91.359375 L 172.148438 91.359375 C 167.90625 91.359375 166.242188 90.796875 163.523438 87.984375 L 147.515625 70.523438 C 147.445312 70.453125 147.398438 70.40625 147.351562 70.335938 L 147.304688 70.3125 C 145.453125 68.34375 142.945312 67.125 140.15625 67.125 Z M 44.0625 67.125 " transform="matrix(0.166667,0,0,0.166667,0,0)"/>
</g>
</defs>
<g id="surface1">
<path style=" stroke:none;fill-rule:evenodd;fill:rgb(0%,0%,0%);fill-opacity:0.588235;" d="M 9.296875 11.8125 C 8.410156 11.8125 7.695312 12.679688 7.695312 13.761719 L 7.695312 53.195312 C 7.695312 54.023438 8.238281 54.6875 8.917969 54.6875 L 55.214844 54.6875 C 55.894531 54.6875 56.441406 54.023438 56.441406 53.195312 L 56.441406 18.902344 C 56.441406 17.277344 55.367188 15.972656 54.03125 15.972656 L 29.214844 15.972656 C 28.554688 15.972656 28.292969 15.875 27.871094 15.394531 L 25.382812 12.394531 C 25.375 12.386719 25.363281 12.375 25.355469 12.363281 L 25.351562 12.359375 C 25.0625 12.023438 24.671875 11.8125 24.238281 11.8125 Z M 9.296875 11.8125 "/>
<path style=" stroke:none;fill-rule:evenodd;fill:url(#linear0);" d="M 7.011719 10.429688 C 6.039062 10.429688 5.253906 11.296875 5.253906 12.375 L 5.253906 51.8125 C 5.253906 52.636719 5.851562 53.300781 6.597656 53.300781 L 57.402344 53.300781 C 58.148438 53.300781 58.746094 52.636719 58.746094 51.8125 L 58.746094 17.515625 C 58.746094 15.890625 57.566406 14.585938 56.101562 14.585938 L 28.867188 14.585938 C 28.144531 14.585938 27.859375 14.492188 27.394531 14.007812 L 24.664062 11.011719 C 24.65625 11 24.644531 10.988281 24.636719 10.980469 L 24.628906 10.972656 C 24.3125 10.636719 23.886719 10.429688 23.410156 10.429688 Z M 7.011719 10.429688 "/>
<use xlink:href="#surface5" mask="url(#mask0)"/>
<path style=" stroke:none;fill-rule:nonzero;fill:rgb(0%,0%,0%);fill-opacity:0.588235;" d="M 9.886719 14.128906 L 23.605469 14.128906 C 24.261719 14.128906 24.792969 14.664062 24.792969 15.320312 L 24.792969 18.445312 C 24.792969 19.101562 24.261719 19.632812 23.605469 19.632812 L 9.886719 19.632812 C 9.230469 19.632812 8.699219 19.101562 8.699219 18.445312 L 8.699219 15.320312 C 8.699219 14.664062 9.230469 14.128906 9.886719 14.128906 Z M 9.886719 14.128906 "/>
<path style=" stroke:none;fill-rule:nonzero;fill:rgb(100%,100%,100%);fill-opacity:1;" d="M 9.03125 13.171875 L 22.75 13.171875 C 23.40625 13.171875 23.9375 13.703125 23.9375 14.359375 L 23.9375 17.484375 C 23.9375 18.140625 23.40625 18.671875 22.75 18.671875 L 9.03125 18.671875 C 8.375 18.671875 7.839844 18.140625 7.839844 17.484375 L 7.839844 14.359375 C 7.839844 13.703125 8.375 13.171875 9.03125 13.171875 Z M 9.03125 13.171875 "/>
<path style=" stroke:none;fill-rule:nonzero;fill:rgb(100%,100%,100%);fill-opacity:1;" d="M 32.015625 30.808594 C 29.808594 30.808594 27.941406 32.304688 27.367188 34.332031 C 26.863281 33.253906 25.777344 32.5 24.519531 32.5 C 22.792969 32.5 21.375 33.917969 21.375 35.644531 C 21.375 37.371094 22.792969 38.789062 24.519531 38.789062 C 25.777344 38.789062 26.863281 38.03125 27.367188 36.957031 C 27.941406 38.984375 29.808594 40.480469 32.015625 40.480469 C 34.207031 40.480469 36.066406 39.003906 36.65625 36.996094 C 37.164062 38.050781 38.238281 38.789062 39.480469 38.789062 C 41.207031 38.789062 42.625 37.371094 42.625 35.644531 C 42.625 33.917969 41.207031 32.5 39.480469 32.5 C 38.238281 32.5 37.164062 33.238281 36.65625 34.292969 C 36.066406 32.285156 34.207031 30.808594 32.015625 30.808594 Z M 32.015625 32.652344 C 33.679688 32.652344 35.007812 33.980469 35.007812 35.644531 C 35.007812 37.308594 33.679688 38.636719 32.015625 38.636719 C 30.351562 38.636719 29.023438 37.308594 29.023438 35.644531 C 29.023438 33.980469 30.351562 32.652344 32.015625 32.652344 Z M 24.519531 34.34375 C 25.25 34.34375 25.820312 34.914062 25.820312 35.644531 C 25.820312 36.371094 25.25 36.945312 24.519531 36.945312 C 23.792969 36.945312 23.222656 36.371094 23.222656 35.644531 C 23.222656 34.914062 23.792969 34.34375 24.519531 34.34375 Z M 39.480469 34.34375 C 40.207031 34.34375 40.777344 34.914062 40.777344 35.644531 C 40.777344 36.371094 40.207031 36.945312 39.480469 36.945312 C 38.75 36.945312 38.179688 36.371094 38.179688 35.644531 C 38.179688 34.914062 38.75 34.34375 39.480469 34.34375 Z M 39.480469 34.34375 "/>
</g>
</svg>
