
<svg xmlns="http://www.w3.org/2000/svg" xmlns:xlink="http://www.w3.org/1999/xlink" width="64px" height="64px" viewBox="0 0 64 64" version="1.1">
<defs>
<linearGradient id="linear0" gradientUnits="userSpaceOnUse" x1="198.300247" y1="66.203491" x2="196.276016" y2="320.847565" gradientTransform="matrix(0.166667,0,0,0.166667,0,-0.000000567159)">
<stop offset="0" style="stop-color:rgb(8.627451%,47.058824%,94.117647%);stop-opacity:1;"/>
<stop offset="1" style="stop-color:rgb(5.490196%,39.215687%,80.784315%);stop-opacity:1;"/>
</linearGradient>
<filter id="alpha" filterUnits="objectBoundingBox" x="0%" y="0%" width="100%" height="100%">
  <feColorMatrix type="matrix" in="SourceGraphic" values="0 0 0 0 1 0 0 0 0 1 0 0 0 0 1 0 0 0 1 0"/>
</filter>
<mask id="mask0">
  <g filter="url(#alpha)">
<rect x="0" y="0" width="64" height="64" style="fill:rgb(0%,0%,0%);fill-opacity:0.6;stroke:none;"/>
  </g>
</mask>
<linearGradient id="linear1" gradientUnits="userSpaceOnUse" x1="173.893509" y1="92.745766" x2="173.496323" y2="100.881363" gradientTransform="matrix(1,0,0,1,0,-0.00000359323)">
<stop offset="0" style="stop-color:rgb(100%,100%,100%);stop-opacity:1;"/>
<stop offset="1" style="stop-color:rgb(100%,100%,100%);stop-opacity:0;"/>
</linearGradient>
<clipPath id="clip1">
  <rect x="0" y="0" width="64" height="64"/>
</clipPath>
<g id="surface5" clip-path="url(#clip1)">
<path style="fill:none;stroke-width:7.5;stroke-linecap:butt;stroke-linejoin:miter;stroke:url(#linear1);stroke-miterlimit:4;" d="M 44.0625 183.984375 C 38.367188 183.984375 33.773438 186.703125 33.773438 190.078125 L 33.773438 313.570312 C 33.773438 316.148438 37.289062 318.234375 41.648438 318.234375 L 339.351562 318.234375 C 343.710938 318.234375 347.226562 316.148438 347.226562 313.570312 L 347.226562 206.179688 C 347.226562 201.09375 340.3125 196.992188 331.734375 196.992188 L 172.148438 196.992188 C 167.90625 196.992188 166.242188 196.710938 163.523438 195.1875 L 147.515625 185.8125 C 147.445312 185.765625 147.398438 185.742188 147.351562 185.695312 L 147.304688 185.695312 C 145.453125 184.640625 142.945312 183.984375 140.15625 183.984375 Z M 44.0625 183.984375 " transform="matrix(0.166667,0,0,0.166667,0,0)"/>
</g>
</defs>
<g id="surface1">
<path style=" stroke:none;fill-rule:evenodd;fill:rgb(0%,0%,0%);fill-opacity:0.588235;" d="M 9.296875 11.8125 C 8.410156 11.8125 7.695312 12.679688 7.695312 13.761719 L 7.695312 53.195312 C 7.695312 54.023438 8.238281 54.6875 8.917969 54.6875 L 55.214844 54.6875 C 55.894531 54.6875 56.441406 54.023438 56.441406 53.195312 L 56.441406 18.902344 C 56.441406 17.277344 55.367188 15.972656 54.03125 15.972656 L 29.214844 15.972656 C 28.554688 15.972656 28.292969 15.875 27.871094 15.394531 L 25.382812 12.394531 C 25.375 12.386719 25.363281 12.375 25.355469 12.363281 L 25.351562 12.359375 C 25.0625 12.023438 24.671875 11.8125 24.238281 11.8125 Z M 9.296875 11.8125 "/>
<path style=" stroke:none;fill-rule:nonzero;fill:rgb(100%,78.039217%,18.039216%);fill-opacity:1;" d="M 7.011719 30.253906 C 7.070312 30.457031 7.199219 30.636719 7.390625 30.761719 L 37.949219 51.074219 C 38.382812 51.363281 38.96875 51.25 39.261719 50.820312 L 50.230469 28.925781 C 50.523438 28.492188 50.410156 27.914062 49.976562 27.625 L 25.296875 4.539062 C 24.863281 4.25 24.277344 4.363281 23.980469 4.796875 L 7.136719 29.464844 C 6.96875 29.707031 6.933594 29.996094 7.011719 30.253906 Z M 7.011719 30.253906 "/>
<path style=" stroke:none;fill-rule:nonzero;fill:rgb(100%,100%,100%);fill-opacity:1;" d="M 44.027344 8.695312 C 43.816406 8.664062 43.597656 8.703125 43.402344 8.820312 L 11.992188 27.789062 C 11.546875 28.058594 11.398438 28.636719 11.664062 29.085938 L 26.785156 48.351562 C 27.046875 48.800781 27.621094 48.945312 28.066406 48.675781 L 59.476562 36.207031 C 59.921875 35.9375 60.070312 35.359375 59.804688 34.910156 L 44.6875 9.144531 C 44.539062 8.894531 44.292969 8.738281 44.027344 8.695312 Z M 44.027344 8.695312 "/>
<path style=" stroke:none;fill-rule:evenodd;fill:url(#linear0);" d="M 7.011719 24.964844 C 6.039062 24.964844 5.253906 25.539062 5.253906 26.253906 L 5.253906 52.316406 C 5.253906 52.859375 5.851562 53.300781 6.597656 53.300781 L 57.402344 53.300781 C 58.148438 53.300781 58.746094 52.859375 58.746094 52.316406 L 58.746094 29.652344 C 58.746094 28.578125 57.566406 27.714844 56.101562 27.714844 L 28.867188 27.714844 C 28.144531 27.714844 27.859375 27.652344 27.394531 27.332031 L 24.664062 25.351562 C 24.65625 25.34375 24.644531 25.335938 24.636719 25.332031 L 24.628906 25.328125 C 24.3125 25.105469 23.886719 24.964844 23.410156 24.964844 Z M 7.011719 24.964844 "/>
<use xlink:href="#surface5" mask="url(#mask0)"/>
<path style=" stroke:none;fill-rule:nonzero;fill:rgb(0%,0%,0%);fill-opacity:0.588235;" d="M 9.886719 27.246094 L 23.605469 27.246094 C 24.261719 27.246094 24.792969 27.777344 24.792969 28.433594 L 24.792969 29.011719 C 24.792969 29.671875 24.261719 30.203125 23.605469 30.203125 L 9.886719 30.203125 C 9.230469 30.203125 8.699219 29.671875 8.699219 29.011719 L 8.699219 28.433594 C 8.699219 27.777344 9.230469 27.246094 9.886719 27.246094 Z M 9.886719 27.246094 "/>
<path style=" stroke:none;fill-rule:nonzero;fill:rgb(100%,100%,100%);fill-opacity:1;" d="M 9.03125 26.730469 L 22.75 26.730469 C 23.40625 26.730469 23.9375 27.261719 23.9375 27.917969 L 23.9375 28.5 C 23.9375 29.15625 23.40625 29.6875 22.75 29.6875 L 9.03125 29.6875 C 8.375 29.6875 7.839844 29.15625 7.839844 28.5 L 7.839844 27.917969 C 7.839844 27.261719 8.375 26.730469 9.03125 26.730469 Z M 9.03125 26.730469 "/>
</g>
</svg>
