
<svg xmlns="http://www.w3.org/2000/svg" xmlns:xlink="http://www.w3.org/1999/xlink" width="32px" height="32px" viewBox="0 0 32 32" version="1.1">
<defs>
<linearGradient id="linear0" gradientUnits="userSpaceOnUse" x1="198.300247" y1="66.203491" x2="196.276016" y2="320.847565" gradientTransform="matrix(0.0833333,0,0,0.0833333,0,0)">
<stop offset="0" style="stop-color:rgb(8.627451%,47.058824%,94.117647%);stop-opacity:1;"/>
<stop offset="1" style="stop-color:rgb(5.490196%,39.215687%,80.784315%);stop-opacity:1;"/>
</linearGradient>
<filter id="alpha" filterUnits="objectBoundingBox" x="0%" y="0%" width="100%" height="100%">
  <feColorMatrix type="matrix" in="SourceGraphic" values="0 0 0 0 1 0 0 0 0 1 0 0 0 0 1 0 0 0 1 0"/>
</filter>
<mask id="mask0">
  <g filter="url(#alpha)">
<rect x="0" y="0" width="32" height="32" style="fill:rgb(0%,0%,0%);fill-opacity:0.6;stroke:none;"/>
  </g>
</mask>
<linearGradient id="linear1" gradientUnits="userSpaceOnUse" x1="173.893509" y1="92.745766" x2="173.496323" y2="100.881363" >
<stop offset="0" style="stop-color:rgb(100%,100%,100%);stop-opacity:1;"/>
<stop offset="1" style="stop-color:rgb(100%,100%,100%);stop-opacity:0;"/>
</linearGradient>
<clipPath id="clip1">
  <rect x="0" y="0" width="32" height="32"/>
</clipPath>
<g id="surface5" clip-path="url(#clip1)">
<path style="fill:none;stroke-width:7.5;stroke-linecap:butt;stroke-linejoin:miter;stroke:url(#linear1);stroke-miterlimit:4;" d="M 44.0625 67.125 C 38.34375 67.125 33.75 72.1875 33.75 78.46875 L 33.75 308.203125 C 33.75 312.984375 37.265625 316.875 41.625 316.875 L 339.375 316.875 C 343.734375 316.875 347.25 312.984375 347.25 308.203125 L 347.25 108.421875 C 347.25 98.953125 340.3125 91.359375 331.734375 91.359375 L 172.125 91.359375 C 167.90625 91.359375 166.21875 90.796875 163.5 87.984375 L 147.515625 70.546875 C 147.46875 70.453125 147.421875 70.40625 147.328125 70.359375 L 147.328125 70.3125 C 145.453125 68.34375 142.96875 67.125 140.15625 67.125 Z M 44.0625 67.125 " transform="matrix(0.0833333,0,0,0.0833333,0,0)"/>
</g>
</defs>
<g id="surface1">
<path style=" stroke:none;fill-rule:evenodd;fill:rgb(0%,0%,0%);fill-opacity:0.588235;" d="M 4.648438 5.90625 C 4.203125 5.90625 3.847656 6.339844 3.847656 6.878906 L 3.847656 26.597656 C 3.847656 27.011719 4.121094 27.34375 4.460938 27.34375 L 27.609375 27.34375 C 27.949219 27.34375 28.222656 27.011719 28.222656 26.597656 L 28.222656 9.449219 C 28.222656 8.640625 27.683594 7.984375 27.015625 7.984375 L 14.605469 7.984375 C 14.277344 7.984375 14.148438 7.9375 13.9375 7.699219 L 12.691406 6.199219 C 12.6875 6.191406 12.683594 6.1875 12.679688 6.183594 L 12.675781 6.179688 C 12.53125 6.011719 12.335938 5.90625 12.121094 5.90625 Z M 4.648438 5.90625 "/>
<path style=" stroke:none;fill-rule:evenodd;fill:url(#linear0);" d="M 3.503906 5.214844 C 3.019531 5.214844 2.625 5.648438 2.625 6.1875 L 2.625 25.90625 C 2.625 26.316406 2.925781 26.648438 3.296875 26.648438 L 28.703125 26.648438 C 29.074219 26.648438 29.375 26.316406 29.375 25.90625 L 29.375 8.757812 C 29.375 7.945312 28.785156 7.292969 28.050781 7.292969 L 14.433594 7.292969 C 14.074219 7.292969 13.929688 7.246094 13.699219 7.003906 L 12.332031 5.503906 C 12.328125 5.5 12.324219 5.496094 12.316406 5.488281 C 12.15625 5.316406 11.941406 5.214844 11.703125 5.214844 Z M 3.503906 5.214844 "/>
<use xlink:href="#surface5" mask="url(#mask0)"/>
<path style=" stroke:none;fill-rule:nonzero;fill:rgb(0%,0%,0%);fill-opacity:0.588235;" d="M 4.941406 7.066406 L 11.800781 7.066406 C 12.128906 7.066406 12.398438 7.332031 12.398438 7.660156 L 12.398438 9.222656 C 12.398438 9.550781 12.128906 9.816406 11.800781 9.816406 L 4.941406 9.816406 C 4.613281 9.816406 4.347656 9.550781 4.347656 9.222656 L 4.347656 7.660156 C 4.347656 7.332031 4.613281 7.066406 4.941406 7.066406 Z M 4.941406 7.066406 "/>
<path style=" stroke:none;fill-rule:nonzero;fill:rgb(100%,100%,100%);fill-opacity:1;" d="M 4.515625 6.585938 L 11.375 6.585938 C 11.703125 6.585938 11.96875 6.851562 11.96875 7.179688 L 11.96875 8.742188 C 11.96875 9.070312 11.703125 9.335938 11.375 9.335938 L 4.515625 9.335938 C 4.1875 9.335938 3.921875 9.070312 3.921875 8.742188 L 3.921875 7.179688 C 3.921875 6.851562 4.1875 6.585938 4.515625 6.585938 Z M 4.515625 6.585938 "/>
<path style=" stroke:none;fill-rule:nonzero;fill:rgb(100%,100%,100%);fill-opacity:1;" d="M 15.484375 14.882812 C 14.691406 14.882812 14.054688 15.527344 14.058594 16.316406 C 14.058594 16.640625 14.167969 16.941406 14.351562 17.179688 C 14.75 16.71875 15.332031 16.425781 15.988281 16.425781 C 16.308594 16.421875 16.609375 16.492188 16.886719 16.617188 C 16.90625 16.519531 16.917969 16.414062 16.917969 16.308594 C 16.914062 15.515625 16.273438 14.878906 15.484375 14.882812 Z M 13.621094 15.550781 C 13.207031 15.550781 12.878906 15.886719 12.878906 16.296875 C 12.878906 16.429688 12.914062 16.554688 12.976562 16.664062 C 13.222656 16.523438 13.511719 16.441406 13.816406 16.441406 C 13.84375 16.441406 13.875 16.441406 13.902344 16.441406 C 13.898438 16.398438 13.894531 16.355469 13.894531 16.3125 C 13.894531 16.085938 13.945312 15.867188 14.03125 15.667969 C 13.914062 15.589844 13.773438 15.546875 13.621094 15.546875 Z M 17.148438 16.050781 C 17.117188 16.050781 17.085938 16.050781 17.058594 16.0625 C 17.070312 16.144531 17.082031 16.226562 17.082031 16.3125 C 17.082031 16.445312 17.0625 16.570312 17.035156 16.695312 C 17.394531 16.894531 17.695312 17.191406 17.894531 17.554688 C 18.097656 17.445312 18.328125 17.378906 18.570312 17.359375 C 18.503906 16.628906 17.894531 16.054688 17.148438 16.054688 Z M 15.988281 16.585938 C 14.882812 16.589844 13.988281 17.488281 13.992188 18.59375 C 13.996094 19.699219 14.894531 20.59375 16 20.589844 C 17.105469 20.585938 18 19.6875 17.996094 18.582031 C 17.992188 17.476562 17.09375 16.585938 15.988281 16.585938 Z M 13.816406 16.605469 C 12.957031 16.605469 12.265625 17.304688 12.269531 18.160156 C 12.269531 18.667969 12.511719 19.113281 12.886719 19.394531 C 13.042969 19.089844 13.355469 18.882812 13.722656 18.882812 C 13.765625 18.882812 13.808594 18.890625 13.851562 18.894531 C 13.835938 18.796875 13.832031 18.699219 13.832031 18.597656 C 13.828125 18.117188 13.984375 17.667969 14.25 17.308594 C 14.089844 17.109375 13.976562 16.871094 13.925781 16.609375 C 13.890625 16.609375 13.851562 16.601562 13.816406 16.601562 Z M 18.683594 17.515625 C 18.421875 17.515625 18.179688 17.582031 17.964844 17.695312 C 18.085938 17.964844 18.15625 18.265625 18.15625 18.582031 C 18.160156 19.175781 17.921875 19.714844 17.539062 20.105469 C 17.824219 20.421875 18.234375 20.617188 18.695312 20.617188 C 19.550781 20.613281 20.246094 19.917969 20.242188 19.058594 C 20.238281 18.199219 19.542969 17.511719 18.683594 17.515625 Z M 12.113281 17.738281 C 11.324219 17.742188 10.683594 18.378906 10.6875 19.167969 C 10.691406 19.960938 11.332031 20.597656 12.125 20.597656 C 12.425781 20.597656 12.703125 20.5 12.933594 20.34375 C 12.835938 20.195312 12.78125 20.019531 12.78125 19.828125 C 12.78125 19.730469 12.792969 19.636719 12.820312 19.550781 C 12.390625 19.238281 12.105469 18.734375 12.105469 18.160156 C 12.105469 18.015625 12.125 17.875 12.15625 17.742188 C 12.144531 17.742188 12.128906 17.742188 12.117188 17.742188 Z M 20.523438 18.941406 C 20.484375 18.941406 20.441406 18.949219 20.402344 18.953125 C 20.402344 18.988281 20.40625 19.023438 20.40625 19.058594 C 20.40625 19.515625 20.226562 19.929688 19.9375 20.238281 C 20.082031 20.402344 20.292969 20.507812 20.53125 20.507812 C 20.964844 20.503906 21.3125 20.15625 21.3125 19.722656 C 21.3125 19.289062 20.957031 18.9375 20.527344 18.941406 Z M 13.722656 19.046875 C 13.289062 19.046875 12.941406 19.394531 12.941406 19.828125 C 12.945312 20.261719 13.292969 20.613281 13.726562 20.613281 C 14.058594 20.609375 14.339844 20.402344 14.453125 20.109375 C 14.175781 19.828125 13.972656 19.464844 13.882812 19.0625 C 13.832031 19.050781 13.777344 19.042969 13.722656 19.042969 Z M 13.722656 19.046875 "/>
</g>
</svg>
