
<svg xmlns="http://www.w3.org/2000/svg" xmlns:xlink="http://www.w3.org/1999/xlink" width="32px" height="32px" viewBox="0 0 32 32" version="1.1">
<defs>
<filter id="alpha" filterUnits="objectBoundingBox" x="0%" y="0%" width="100%" height="100%">
  <feColorMatrix type="matrix" in="SourceGraphic" values="0 0 0 0 1 0 0 0 0 1 0 0 0 0 1 0 0 0 1 0"/>
</filter>
<mask id="mask0">
  <g filter="url(#alpha)">
<rect x="0" y="0" width="32" height="32" style="fill:rgb(0%,0%,0%);fill-opacity:0.9;stroke:none;"/>
  </g>
</mask>
<linearGradient id="linear0" gradientUnits="userSpaceOnUse" x1="17.426399" y1="136" x2="238.573593" y2="136" gradientTransform="matrix(0.0127315,0,0,0.0133929,-0.12963,-0.321429)">
<stop offset="0" style="stop-color:rgb(83.92157%,83.92157%,83.92157%);stop-opacity:1;"/>
<stop offset="1" style="stop-color:rgb(91.764706%,91.764706%,91.764706%);stop-opacity:1;"/>
</linearGradient>
<clipPath id="clip1">
  <rect x="0" y="0" width="32" height="32"/>
</clipPath>
<g id="surface5" clip-path="url(#clip1)">
<path style=" stroke:none;fill-rule:evenodd;fill:url(#linear0);" d="M 5.199219 28.203125 C 5.3125 29.578125 6.417969 30.6875 7.671875 30.6875 L 24.328125 30.6875 C 25.574219 30.6875 26.6875 29.574219 26.800781 28.203125 L 28.78125 4.609375 C 29.683594 4.609375 30.378906 3.730469 30.378906 2.8125 C 30.378906 1.886719 29.621094 1.3125 28.78125 1.3125 L 3.21875 1.3125 C 2.382812 1.3125 1.621094 1.890625 1.621094 2.8125 C 1.621094 3.738281 2.378906 4.609375 3.21875 4.609375 Z M 5.199219 28.203125 "/>
</g>
<mask id="mask1">
  <g filter="url(#alpha)">
<rect x="0" y="0" width="32" height="32" style="fill:rgb(0%,0%,0%);fill-opacity:0.8;stroke:none;"/>
  </g>
</mask>
<linearGradient id="linear1" gradientUnits="userSpaceOnUse" x1="130.78624" y1="46.669899" x2="130.750259" y2="66.303192" >
<stop offset="0" style="stop-color:rgb(100%,100%,100%);stop-opacity:1;"/>
<stop offset="1" style="stop-color:rgb(100%,100%,100%);stop-opacity:0;"/>
</linearGradient>
<clipPath id="clip2">
  <rect x="0" y="0" width="32" height="32"/>
</clipPath>
<g id="surface8" clip-path="url(#clip2)">
<path style="fill:none;stroke-width:4.148185;stroke-linecap:round;stroke-linejoin:round;stroke:url(#linear1);stroke-miterlimit:4;" d="M 55.209006 214.941474 C 55.972456 223.750195 63.422673 230.848236 71.873271 230.848236 L 184.126709 230.848236 C 192.524656 230.848236 200.027525 223.724662 200.790974 214.941474 L 214.138182 64.069794 C 220.219454 64.069794 224.905456 58.452639 224.905456 52.580158 C 224.905456 46.656613 219.79824 42.979929 214.138182 42.979929 L 41.861799 42.979929 C 36.228066 42.979929 31.094525 46.682145 31.094525 52.580158 C 31.094525 58.478171 36.20174 64.069794 41.861799 64.069794 Z M 55.209006 214.941474 " transform="matrix(0.148381,0,0,0.152991,-2.992735,-4.946642)"/>
</g>
<mask id="mask2">
  <g filter="url(#alpha)">
<rect x="0" y="0" width="32" height="32" style="fill:rgb(0%,0%,0%);fill-opacity:0.4;stroke:none;"/>
  </g>
</mask>
<linearGradient id="linear2" gradientUnits="userSpaceOnUse" x1="124.486107" y1="231.858475" x2="124.729118" y2="211.177521" >
<stop offset="0" style="stop-color:rgb(0%,0%,0%);stop-opacity:1;"/>
<stop offset="1" style="stop-color:rgb(0%,0%,0%);stop-opacity:0;"/>
</linearGradient>
<clipPath id="clip3">
  <rect x="0" y="0" width="32" height="32"/>
</clipPath>
<g id="surface11" clip-path="url(#clip3)">
<path style="fill:none;stroke-width:4.148185;stroke-linecap:round;stroke-linejoin:round;stroke:url(#linear2);stroke-miterlimit:4;" d="M 55.209006 214.941474 C 55.972456 223.750195 63.422673 230.848236 71.873271 230.848236 L 184.126709 230.848236 C 192.524656 230.848236 200.027525 223.724662 200.790974 214.941474 L 214.138182 64.069794 C 220.219454 64.069794 224.905456 58.452639 224.905456 52.580158 C 224.905456 46.656613 219.79824 42.979929 214.138182 42.979929 L 41.861799 42.979929 C 36.228066 42.979929 31.094525 46.682145 31.094525 52.580158 C 31.094525 58.478171 36.20174 64.069794 41.861799 64.069794 Z M 55.209006 214.941474 " transform="matrix(0.148381,0,0,0.152991,-2.992735,-4.946642)"/>
</g>
</defs>
<g id="surface1">
<use xlink:href="#surface5" mask="url(#mask0)"/>
<path style=" stroke:none;fill-rule:evenodd;fill:rgb(100%,100%,100%);fill-opacity:1;" d="M 15.945312 13.203125 C 14.425781 9.753906 12.824219 12.53125 12.824219 12.53125 L 11.609375 14.890625 L 14.109375 16.496094 Z M 21.347656 12.144531 L 20.003906 12.984375 L 19.507812 12.027344 C 19.507812 12.027344 19.128906 11.03125 17.246094 11.132812 C 17.246094 11.132812 14.914062 11.207031 14.671875 11.15625 C 14.671875 11.15625 15.332031 11.300781 15.660156 11.863281 L 17.148438 14.753906 L 16.0625 15.425781 L 19.710938 15.515625 Z M 12.402344 20.480469 C 10.515625 23.699219 13.507812 23.761719 13.507812 23.761719 L 15.972656 23.671875 L 15.921875 20.496094 Z M 8.773438 15.964844 L 10.125 16.792969 L 9.636719 17.75 C 9.636719 17.75 9.0625 18.628906 10.121094 20.335938 C 10.121094 20.335938 11.390625 22.488281 11.476562 22.738281 C 11.476562 22.738281 11.242188 22.046875 11.507812 21.445312 L 12.984375 18.546875 L 14.078125 19.214844 L 12.246094 15.746094 Z M 20.164062 20 C 23.644531 20.242188 22.230469 17.34375 22.230469 17.34375 L 20.957031 15.023438 L 18.457031 16.621094 Z M 16.472656 22.460938 L 18.339844 19.015625 L 18.339844 20.390625 L 21.363281 20.390625 C 21.972656 20.351562 22.410156 19.789062 22.410156 19.789062 C 22.25 19.992188 21.160156 22.261719 21.160156 22.261719 C 20.316406 24.109375 19.339844 23.984375 19.339844 23.984375 L 18.339844 23.984375 L 18.339844 25.683594 Z M 16.472656 22.460938 "/>
<path style=" stroke:none;fill-rule:evenodd;fill:rgb(0%,49.019608%,79.607844%);fill-opacity:1;" d="M 15.945312 12.894531 C 14.425781 9.449219 12.824219 12.222656 12.824219 12.222656 L 11.609375 14.585938 L 14.109375 16.1875 Z M 21.347656 11.839844 L 20.003906 12.675781 L 19.507812 11.71875 C 19.507812 11.71875 19.128906 10.722656 17.246094 10.828125 C 17.246094 10.828125 14.914062 10.902344 14.671875 10.851562 C 14.671875 10.851562 15.332031 10.996094 15.660156 11.554688 L 17.148438 14.449219 L 16.0625 15.121094 L 19.710938 15.207031 Z M 12.402344 20.175781 C 10.515625 23.390625 13.507812 23.453125 13.507812 23.453125 L 15.972656 23.363281 L 15.921875 20.1875 Z M 8.773438 15.65625 L 10.125 16.484375 L 9.636719 17.445312 C 9.636719 17.445312 9.0625 18.320312 10.121094 20.027344 C 10.121094 20.027344 11.390625 22.179688 11.476562 22.433594 C 11.476562 22.433594 11.242188 21.738281 11.507812 21.140625 L 12.984375 18.238281 L 14.078125 18.90625 L 12.246094 15.441406 Z M 20.164062 19.695312 C 23.644531 19.9375 22.230469 17.039062 22.230469 17.039062 L 20.957031 14.71875 L 18.457031 16.316406 Z M 16.472656 22.15625 L 18.339844 18.707031 L 18.339844 20.082031 L 21.363281 20.082031 C 21.972656 20.046875 22.410156 19.484375 22.410156 19.484375 C 22.25 19.6875 21.160156 21.953125 21.160156 21.953125 C 20.316406 23.800781 19.339844 23.679688 19.339844 23.679688 L 18.339844 23.679688 L 18.339844 25.375 Z M 16.472656 22.15625 "/>
<path style=" stroke:none;fill-rule:evenodd;fill:rgb(0%,32.156864%,52.156866%);fill-opacity:1;" d="M 22.066406 20.109375 C 22.230469 19.792969 22.363281 19.542969 22.410156 19.484375 C 22.410156 19.484375 21.972656 20.046875 21.363281 20.082031 L 18.339844 20.082031 L 18.339844 18.707031 L 16.472656 22.15625 L 16.558594 22.300781 L 18.339844 19.015625 L 18.339844 20.390625 L 21.363281 20.390625 C 21.640625 20.371094 21.886719 20.242188 22.066406 20.109375 Z M 22.066406 20.109375 "/>
<path style=" stroke:none;fill-rule:evenodd;fill:rgb(0%,32.156864%,52.156866%);fill-opacity:1;" d="M 22.507812 18.390625 C 22.5625 17.71875 22.230469 17.039062 22.230469 17.039062 L 20.957031 14.71875 L 18.457031 16.316406 L 18.574219 16.546875 L 20.957031 15.023438 L 22.230469 17.34375 C 22.230469 17.34375 22.46875 17.832031 22.507812 18.390625 Z M 22.507812 18.390625 "/>
<path style=" stroke:none;fill-rule:evenodd;fill:rgb(0%,32.156864%,52.156866%);fill-opacity:1;" d="M 11.785156 22.136719 C 11.742188 21.667969 11.898438 21.035156 12.402344 20.175781 L 15.921875 20.1875 L 15.972656 23.363281 L 15.96875 23.363281 L 15.921875 20.496094 L 12.402344 20.480469 C 12 21.167969 11.820312 21.707031 11.785156 22.136719 Z M 11.785156 22.136719 "/>
<path style=" stroke:none;fill-rule:evenodd;fill:rgb(0%,32.156864%,52.156866%);fill-opacity:1;" d="M 16.539062 15.132812 L 17.148438 14.753906 L 17.03125 14.523438 L 16.0625 15.121094 Z M 16.539062 15.132812 "/>
<path style=" stroke:none;fill-rule:evenodd;fill:rgb(0%,32.156864%,52.156866%);fill-opacity:1;" d="M 9.636719 17.445312 C 9.636719 17.445312 9.445312 17.734375 9.484375 18.304688 C 9.515625 17.9375 9.636719 17.75 9.636719 17.75 L 10.125 16.792969 L 10.140625 16.472656 Z M 9.636719 17.445312 "/>
<path style=" stroke:none;fill-rule:evenodd;fill:rgb(0%,32.156864%,52.156866%);fill-opacity:1;" d="M 11.726562 14.660156 L 11.609375 14.585938 L 12.824219 12.222656 C 12.824219 12.222656 14.425781 9.449219 15.945312 12.894531 L 15.867188 13.03125 C 14.371094 9.847656 12.824219 12.53125 12.824219 12.53125 Z M 11.726562 14.660156 "/>
<path style=" stroke:none;fill-rule:evenodd;fill:rgb(0%,32.156864%,52.156866%);fill-opacity:1;" d="M 12.246094 15.441406 L 14.078125 18.90625 L 13.839844 18.761719 L 12.246094 15.746094 L 9.230469 15.9375 L 8.773438 15.65625 Z M 12.246094 15.441406 "/>
<path style=" stroke:none;fill-rule:evenodd;fill:rgb(0%,33.333334%,53.725493%);fill-opacity:1;" d="M 15.324219 11.175781 C 15.011719 10.925781 14.671875 10.851562 14.671875 10.851562 C 14.914062 10.902344 17.246094 10.828125 17.246094 10.828125 C 19.128906 10.722656 19.507812 11.71875 19.507812 11.71875 L 20.003906 12.675781 L 21.347656 11.839844 L 21.136719 12.277344 L 20.003906 12.984375 L 19.507812 12.027344 C 19.507812 12.027344 19.128906 11.03125 17.246094 11.132812 C 17.246094 11.132812 16.09375 11.171875 15.324219 11.175781 Z M 15.324219 11.175781 "/>
<use xlink:href="#surface8" mask="url(#mask1)"/>
<use xlink:href="#surface11" mask="url(#mask2)"/>
</g>
</svg>
