
<svg xmlns="http://www.w3.org/2000/svg" xmlns:xlink="http://www.w3.org/1999/xlink" width="48px" height="48px" viewBox="0 0 48 48" version="1.1">
<defs>
<filter id="alpha" filterUnits="objectBoundingBox" x="0%" y="0%" width="100%" height="100%">
  <feColorMatrix type="matrix" in="SourceGraphic" values="0 0 0 0 1 0 0 0 0 1 0 0 0 0 1 0 0 0 1 0"/>
</filter>
<mask id="mask0">
  <g filter="url(#alpha)">
<rect x="0" y="0" width="48" height="48" style="fill:rgb(0%,0%,0%);fill-opacity:0.9;stroke:none;"/>
  </g>
</mask>
<linearGradient id="linear0" gradientUnits="userSpaceOnUse" x1="17.426399" y1="136" x2="238.573593" y2="136" gradientTransform="matrix(0.0190972,0,0,0.0200893,-0.194444,-0.482143)">
<stop offset="0" style="stop-color:rgb(83.92157%,83.92157%,83.92157%);stop-opacity:1;"/>
<stop offset="1" style="stop-color:rgb(91.764706%,91.764706%,91.764706%);stop-opacity:1;"/>
</linearGradient>
<clipPath id="clip1">
  <rect x="0" y="0" width="48" height="48"/>
</clipPath>
<g id="surface5" clip-path="url(#clip1)">
<path style=" stroke:none;fill-rule:evenodd;fill:url(#linear0);" d="M 7.796875 42.304688 C 7.96875 44.367188 9.628906 46.03125 11.507812 46.03125 L 36.492188 46.03125 C 38.359375 46.03125 40.03125 44.363281 40.203125 42.304688 L 43.171875 6.914062 C 44.523438 6.914062 45.570312 5.59375 45.570312 4.21875 C 45.570312 2.828125 44.429688 1.96875 43.171875 1.96875 L 4.828125 1.96875 C 3.578125 1.96875 2.429688 2.839844 2.429688 4.21875 C 2.429688 5.605469 3.570312 6.914062 4.828125 6.914062 Z M 7.796875 42.304688 "/>
</g>
<mask id="mask1">
  <g filter="url(#alpha)">
<rect x="0" y="0" width="48" height="48" style="fill:rgb(0%,0%,0%);fill-opacity:0.4;stroke:none;"/>
  </g>
</mask>
<clipPath id="clip2">
  <rect x="0" y="0" width="48" height="48"/>
</clipPath>
<g id="surface8" clip-path="url(#clip2)">
<path style=" stroke:none;fill-rule:evenodd;fill:rgb(65.490198%,37.64706%,18.431373%);fill-opacity:1;" d="M 8.9375 31.628906 L 9.339844 37.152344 L 9.34375 37.152344 L 9.5625 40.375 C 9.5625 40.375 9.5625 43.136719 11.882812 43.136719 C 12.398438 43.136719 14.144531 43.136719 16.296875 43.136719 L 17.0625 43.148438 L 17.070312 43.136719 C 19.929688 43.136719 23.308594 43.136719 25.5 43.136719 C 25.5 43.136719 33.324219 43.136719 35.640625 43.136719 C 37.960938 43.136719 38.191406 40.375 38.191406 40.375 L 39.953125 19.875 L 38.597656 19.585938 L 40.023438 18.195312 L 34.972656 9.613281 L 26.007812 17.332031 L 27.375 13.355469 L 15.402344 7.476562 L 12.105469 16.628906 L 9.84375 15.191406 L 7.976562 19.347656 L 8.53125 26.46875 L 8.5625 26.488281 L 8.734375 28.839844 L 8.734375 28.84375 L 8.914062 31.613281 Z M 8.9375 31.628906 "/>
</g>
<mask id="mask2">
  <g filter="url(#alpha)">
<rect x="0" y="0" width="48" height="48" style="fill:rgb(0%,0%,0%);fill-opacity:0.8;stroke:none;"/>
  </g>
</mask>
<linearGradient id="linear1" gradientUnits="userSpaceOnUse" x1="130.78624" y1="46.669899" x2="130.750259" y2="66.303192" >
<stop offset="0" style="stop-color:rgb(100%,100%,100%);stop-opacity:1;"/>
<stop offset="1" style="stop-color:rgb(100%,100%,100%);stop-opacity:0;"/>
</linearGradient>
<clipPath id="clip3">
  <rect x="0" y="0" width="48" height="48"/>
</clipPath>
<g id="surface11" clip-path="url(#clip3)">
<path style="fill:none;stroke-width:4.148185;stroke-linecap:round;stroke-linejoin:round;stroke:url(#linear1);stroke-miterlimit:4;" d="M 55.200231 214.958496 C 55.972456 223.741684 63.431448 230.839725 71.873271 230.839725 L 184.126709 230.839725 C 192.515881 230.839725 200.027525 223.724662 200.79975 214.958496 L 214.138182 64.078305 C 220.210679 64.078305 224.914231 58.444128 224.914231 52.571647 C 224.914231 46.648102 219.789465 42.98844 214.138182 42.98844 L 41.861799 42.98844 C 36.245617 42.98844 31.08575 46.699167 31.08575 52.571647 C 31.08575 58.495193 36.210516 64.078305 41.861799 64.078305 Z M 55.200231 214.958496 " transform="matrix(0.222571,0,0,0.229487,-4.489103,-7.419964)"/>
</g>
<mask id="mask3">
  <g filter="url(#alpha)">
<rect x="0" y="0" width="48" height="48" style="fill:rgb(0%,0%,0%);fill-opacity:0.4;stroke:none;"/>
  </g>
</mask>
<linearGradient id="linear2" gradientUnits="userSpaceOnUse" x1="124.486107" y1="231.858475" x2="124.729118" y2="211.177521" >
<stop offset="0" style="stop-color:rgb(0%,0%,0%);stop-opacity:1;"/>
<stop offset="1" style="stop-color:rgb(0%,0%,0%);stop-opacity:0;"/>
</linearGradient>
<clipPath id="clip4">
  <rect x="0" y="0" width="48" height="48"/>
</clipPath>
<g id="surface14" clip-path="url(#clip4)">
<path style="fill:none;stroke-width:4.148185;stroke-linecap:round;stroke-linejoin:round;stroke:url(#linear2);stroke-miterlimit:4;" d="M 55.200231 214.958496 C 55.972456 223.741684 63.431448 230.839725 71.873271 230.839725 L 184.126709 230.839725 C 192.515881 230.839725 200.027525 223.724662 200.79975 214.958496 L 214.138182 64.078305 C 220.210679 64.078305 224.914231 58.444128 224.914231 52.571647 C 224.914231 46.648102 219.789465 42.98844 214.138182 42.98844 L 41.861799 42.98844 C 36.245617 42.98844 31.08575 46.699167 31.08575 52.571647 C 31.08575 58.495193 36.210516 64.078305 41.861799 64.078305 Z M 55.200231 214.958496 " transform="matrix(0.222571,0,0,0.229487,-4.489103,-7.419964)"/>
</g>
</defs>
<g id="surface1">
<use xlink:href="#surface5" mask="url(#mask0)"/>
<use xlink:href="#surface8" mask="url(#mask1)"/>
<path style=" stroke:none;fill-rule:evenodd;fill:rgb(100%,100%,100%);fill-opacity:1;" d="M 23.917969 19.800781 C 21.636719 14.632812 19.234375 18.796875 19.234375 18.796875 L 17.414062 22.339844 L 21.164062 24.742188 Z M 32.023438 18.21875 L 30.003906 19.472656 L 29.261719 18.039062 C 29.261719 18.039062 28.691406 16.546875 25.871094 16.703125 C 25.871094 16.703125 22.371094 16.808594 22.007812 16.734375 C 22.007812 16.734375 23 16.949219 23.492188 17.792969 L 25.726562 22.128906 L 24.09375 23.140625 L 29.570312 23.269531 Z M 18.601562 30.722656 C 15.769531 35.546875 20.261719 35.640625 20.261719 35.640625 L 23.957031 35.507812 L 23.882812 30.742188 Z M 13.164062 23.945312 L 15.1875 25.1875 L 14.453125 26.625 C 14.453125 26.625 13.59375 27.941406 15.179688 30.503906 C 15.179688 30.503906 17.085938 33.730469 17.210938 34.109375 C 17.210938 34.109375 16.863281 33.066406 17.265625 32.167969 L 19.480469 27.820312 L 21.117188 28.820312 L 18.371094 23.621094 Z M 30.246094 30 C 35.464844 30.363281 33.347656 26.019531 33.347656 26.019531 L 31.433594 22.535156 L 27.683594 24.933594 Z M 24.710938 33.691406 L 27.507812 28.523438 L 27.507812 30.582031 L 32.046875 30.582031 C 32.957031 30.527344 33.613281 29.683594 33.613281 29.683594 C 33.375 29.988281 31.738281 33.390625 31.738281 33.390625 C 30.476562 36.164062 29.011719 35.976562 29.011719 35.976562 L 27.507812 35.976562 L 27.507812 38.523438 Z M 24.710938 33.691406 "/>
<path style=" stroke:none;fill-rule:evenodd;fill:rgb(79.607844%,0%,0%);fill-opacity:1;" d="M 23.917969 19.34375 C 21.636719 14.171875 19.234375 18.335938 19.234375 18.335938 L 17.414062 21.878906 L 21.164062 24.28125 Z M 32.023438 17.757812 L 30.003906 19.015625 L 29.261719 17.578125 C 29.261719 17.578125 28.691406 16.085938 25.871094 16.242188 C 25.871094 16.242188 22.371094 16.351562 22.007812 16.277344 C 22.007812 16.277344 23 16.492188 23.492188 17.335938 L 25.726562 21.671875 L 24.09375 22.683594 L 29.570312 22.8125 Z M 18.601562 30.265625 C 15.769531 35.089844 20.261719 35.179688 20.261719 35.179688 L 23.957031 35.046875 L 23.882812 30.28125 Z M 13.164062 23.488281 L 15.1875 24.726562 L 14.453125 26.167969 C 14.453125 26.167969 13.59375 27.484375 15.179688 30.042969 C 15.179688 30.042969 17.085938 33.269531 17.210938 33.648438 C 17.210938 33.648438 16.863281 32.609375 17.265625 31.707031 L 19.480469 27.359375 L 21.117188 28.359375 L 18.371094 23.160156 Z M 30.246094 29.542969 C 35.464844 29.902344 33.347656 25.558594 33.347656 25.558594 L 31.433594 22.078125 L 27.683594 24.476562 Z M 24.710938 33.230469 L 27.507812 28.0625 L 27.507812 30.125 L 32.046875 30.125 C 32.957031 30.066406 33.613281 29.226562 33.613281 29.226562 C 33.375 29.53125 31.738281 32.933594 31.738281 32.933594 C 30.476562 35.703125 29.011719 35.519531 29.011719 35.519531 L 27.507812 35.519531 L 27.507812 38.0625 Z M 24.710938 33.230469 "/>
<path style=" stroke:none;fill-rule:evenodd;fill:rgb(47.058824%,0%,0%);fill-opacity:1;" d="M 33.101562 30.164062 C 33.34375 29.691406 33.542969 29.316406 33.613281 29.226562 C 33.613281 29.226562 32.957031 30.066406 32.046875 30.125 L 27.507812 30.125 L 27.507812 28.0625 L 24.710938 33.230469 L 24.839844 33.453125 L 27.507812 28.523438 L 27.507812 30.582031 L 32.046875 30.582031 C 32.464844 30.558594 32.828125 30.367188 33.101562 30.164062 Z M 33.101562 30.164062 "/>
<path style=" stroke:none;fill-rule:evenodd;fill:rgb(47.058824%,0%,0%);fill-opacity:1;" d="M 33.761719 27.585938 C 33.84375 26.578125 33.347656 25.558594 33.347656 25.558594 L 31.433594 22.078125 L 27.683594 24.476562 L 27.859375 24.820312 L 31.433594 22.535156 L 33.347656 26.019531 C 33.347656 26.019531 33.703125 26.75 33.761719 27.585938 Z M 33.761719 27.585938 "/>
<path style=" stroke:none;fill-rule:evenodd;fill:rgb(47.058824%,0%,0%);fill-opacity:1;" d="M 17.675781 33.207031 C 17.613281 32.503906 17.847656 31.554688 18.601562 30.265625 L 23.882812 30.28125 L 23.957031 35.046875 L 23.949219 35.046875 L 23.882812 30.742188 L 18.601562 30.722656 C 18 31.75 17.730469 32.5625 17.675781 33.207031 Z M 17.675781 33.207031 "/>
<path style=" stroke:none;fill-rule:evenodd;fill:rgb(47.058824%,0%,0%);fill-opacity:1;" d="M 24.808594 22.699219 L 25.726562 22.128906 L 25.546875 21.78125 L 24.09375 22.683594 Z M 24.808594 22.699219 "/>
<path style=" stroke:none;fill-rule:evenodd;fill:rgb(47.058824%,0%,0%);fill-opacity:1;" d="M 14.453125 26.167969 C 14.453125 26.167969 14.167969 26.601562 14.230469 27.460938 C 14.269531 26.90625 14.453125 26.625 14.453125 26.625 L 15.1875 25.1875 L 15.210938 24.707031 Z M 14.453125 26.167969 "/>
<path style=" stroke:none;fill-rule:evenodd;fill:rgb(47.058824%,0%,0%);fill-opacity:1;" d="M 17.59375 21.992188 L 17.414062 21.878906 L 19.234375 18.335938 C 19.234375 18.335938 21.636719 14.171875 23.917969 19.34375 L 23.804688 19.550781 C 21.554688 14.769531 19.234375 18.796875 19.234375 18.796875 Z M 17.59375 21.992188 "/>
<path style=" stroke:none;fill-rule:evenodd;fill:rgb(47.058824%,0%,0%);fill-opacity:1;" d="M 18.371094 23.160156 L 21.117188 28.359375 L 20.757812 28.140625 L 18.371094 23.621094 L 13.84375 23.902344 L 13.164062 23.488281 Z M 18.371094 23.160156 "/>
<path style=" stroke:none;fill-rule:evenodd;fill:rgb(47.058824%,0%,0%);fill-opacity:1;" d="M 22.988281 16.761719 C 22.519531 16.386719 22.007812 16.277344 22.007812 16.277344 C 22.371094 16.351562 25.871094 16.242188 25.871094 16.242188 C 28.691406 16.085938 29.261719 17.578125 29.261719 17.578125 L 30.003906 19.015625 L 32.023438 17.757812 L 31.703125 18.417969 L 30.003906 19.472656 L 29.261719 18.039062 C 29.261719 18.039062 28.691406 16.546875 25.871094 16.703125 C 25.871094 16.703125 24.140625 16.753906 22.988281 16.761719 Z M 22.988281 16.761719 "/>
<use xlink:href="#surface11" mask="url(#mask2)"/>
<use xlink:href="#surface14" mask="url(#mask3)"/>
</g>
</svg>
