
<svg xmlns="http://www.w3.org/2000/svg" xmlns:xlink="http://www.w3.org/1999/xlink" width="64px" height="64px" viewBox="0 0 64 64" version="1.1">
<defs>
<linearGradient id="linear0" gradientUnits="userSpaceOnUse" x1="198.300247" y1="66.203491" x2="196.276016" y2="320.847565" gradientTransform="matrix(0.166667,0,0,0.166667,0,0)">
<stop offset="0" style="stop-color:rgb(8.627451%,47.058824%,94.117647%);stop-opacity:1;"/>
<stop offset="1" style="stop-color:rgb(5.490196%,39.215687%,80.784315%);stop-opacity:1;"/>
</linearGradient>
<filter id="alpha" filterUnits="objectBoundingBox" x="0%" y="0%" width="100%" height="100%">
  <feColorMatrix type="matrix" in="SourceGraphic" values="0 0 0 0 1 0 0 0 0 1 0 0 0 0 1 0 0 0 1 0"/>
</filter>
<mask id="mask0">
  <g filter="url(#alpha)">
<rect x="0" y="0" width="64" height="64" style="fill:rgb(0%,0%,0%);fill-opacity:0.6;stroke:none;"/>
  </g>
</mask>
<linearGradient id="linear1" gradientUnits="userSpaceOnUse" x1="173.893509" y1="92.745766" x2="173.496323" y2="100.881363" >
<stop offset="0" style="stop-color:rgb(100%,100%,100%);stop-opacity:1;"/>
<stop offset="1" style="stop-color:rgb(100%,100%,100%);stop-opacity:0;"/>
</linearGradient>
<clipPath id="clip1">
  <rect x="0" y="0" width="64" height="64"/>
</clipPath>
<g id="surface5" clip-path="url(#clip1)">
<path style="fill:none;stroke-width:7.5;stroke-linecap:butt;stroke-linejoin:miter;stroke:url(#linear1);stroke-miterlimit:4;" d="M 44.0625 67.125 C 38.367188 67.125 33.773438 72.1875 33.773438 78.46875 L 33.773438 308.203125 C 33.773438 312.984375 37.289062 316.875 41.648438 316.875 L 339.351562 316.875 C 343.710938 316.875 347.226562 312.984375 347.226562 308.203125 L 347.226562 108.421875 C 347.226562 98.953125 340.3125 91.359375 331.734375 91.359375 L 172.148438 91.359375 C 167.90625 91.359375 166.242188 90.796875 163.523438 87.984375 L 147.515625 70.523438 C 147.445312 70.453125 147.398438 70.40625 147.351562 70.335938 L 147.304688 70.3125 C 145.453125 68.34375 142.945312 67.125 140.15625 67.125 Z M 44.0625 67.125 " transform="matrix(0.166667,0,0,0.166667,0,0)"/>
</g>
</defs>
<g id="surface1">
<path style=" stroke:none;fill-rule:evenodd;fill:rgb(0%,0%,0%);fill-opacity:0.588235;" d="M 9.296875 11.8125 C 8.410156 11.8125 7.695312 12.679688 7.695312 13.761719 L 7.695312 53.195312 C 7.695312 54.023438 8.238281 54.6875 8.917969 54.6875 L 55.214844 54.6875 C 55.894531 54.6875 56.441406 54.023438 56.441406 53.195312 L 56.441406 18.902344 C 56.441406 17.277344 55.367188 15.972656 54.03125 15.972656 L 29.214844 15.972656 C 28.554688 15.972656 28.292969 15.875 27.871094 15.394531 L 25.382812 12.394531 C 25.375 12.386719 25.363281 12.375 25.355469 12.363281 L 25.351562 12.359375 C 25.0625 12.023438 24.671875 11.8125 24.238281 11.8125 Z M 9.296875 11.8125 "/>
<path style=" stroke:none;fill-rule:evenodd;fill:url(#linear0);" d="M 7.011719 10.429688 C 6.039062 10.429688 5.253906 11.296875 5.253906 12.375 L 5.253906 51.8125 C 5.253906 52.636719 5.851562 53.300781 6.597656 53.300781 L 57.402344 53.300781 C 58.148438 53.300781 58.746094 52.636719 58.746094 51.8125 L 58.746094 17.515625 C 58.746094 15.890625 57.566406 14.585938 56.101562 14.585938 L 28.867188 14.585938 C 28.144531 14.585938 27.859375 14.492188 27.394531 14.007812 L 24.664062 11.011719 C 24.65625 11 24.644531 10.988281 24.636719 10.980469 L 24.628906 10.972656 C 24.3125 10.636719 23.886719 10.429688 23.410156 10.429688 Z M 7.011719 10.429688 "/>
<use xlink:href="#surface5" mask="url(#mask0)"/>
<path style=" stroke:none;fill-rule:nonzero;fill:rgb(0%,0%,0%);fill-opacity:0.588235;" d="M 9.886719 14.128906 L 23.605469 14.128906 C 24.261719 14.128906 24.792969 14.664062 24.792969 15.320312 L 24.792969 18.445312 C 24.792969 19.101562 24.261719 19.632812 23.605469 19.632812 L 9.886719 19.632812 C 9.230469 19.632812 8.699219 19.101562 8.699219 18.445312 L 8.699219 15.320312 C 8.699219 14.664062 9.230469 14.128906 9.886719 14.128906 Z M 9.886719 14.128906 "/>
<path style=" stroke:none;fill-rule:nonzero;fill:rgb(100%,100%,100%);fill-opacity:1;" d="M 9.03125 13.171875 L 22.75 13.171875 C 23.40625 13.171875 23.9375 13.703125 23.9375 14.359375 L 23.9375 17.484375 C 23.9375 18.140625 23.40625 18.671875 22.75 18.671875 L 9.03125 18.671875 C 8.375 18.671875 7.839844 18.140625 7.839844 17.484375 L 7.839844 14.359375 C 7.839844 13.703125 8.375 13.171875 9.03125 13.171875 Z M 9.03125 13.171875 "/>
<path style="fill:none;stroke-width:3.19125;stroke-linecap:butt;stroke-linejoin:miter;stroke:rgb(100%,100%,100%);stroke-opacity:1;stroke-miterlimit:4;" d="M 190.242188 252.890625 C 184.5 251.320312 179.8125 247.640625 177.1875 242.367188 C 175.992188 239.953125 174.46875 233.742188 174.867188 233.320312 C 174.960938 233.226562 177.1875 235.335938 178.429688 236.179688 C 179.671875 237.023438 180.773438 237.820312 180.773438 237.820312 C 180.9375 237.9375 182.8125 239.296875 185.320312 241.148438 C 190.664062 245.085938 192.1875 245.507812 195.375 245.53125 C 199.734375 245.578125 203.367188 243.65625 205.6875 240.117188 C 207.773438 236.976562 208.382812 232.921875 207.351562 229.476562 C 206.203125 225.796875 204.585938 224.015625 199.03125 220.476562 C 196.945312 219.140625 194.789062 217.898438 194.25 217.617188 C 193.78125 217.335938 190.710938 215.882812 189.539062 215.085938 C 188.859375 214.59375 187.945312 214.007812 188.039062 213.960938 C 188.648438 213.632812 189.914062 213.609375 191.8125 213.023438 L 192.960938 212.671875 L 195.984375 207.960938 C 197.601562 205.40625 199.289062 202.6875 199.734375 201.867188 C 200.601562 200.203125 201.679688 198.398438 201.867188 198.1875 C 201.984375 198.164062 202.148438 199.664062 202.242188 200.695312 C 202.664062 205.242188 205.125 211.101562 208.3125 215.109375 C 212.625 220.546875 219.820312 224.671875 226.359375 225.46875 C 227.226562 225.5625 228.046875 225.539062 228.046875 225.65625 C 228.046875 225.9375 225.820312 227.484375 225.070312 227.90625 C 224.8125 228.070312 222.46875 229.546875 219.9375 231.328125 L 215.34375 234.5625 L 214.875 236.90625 C 213.445312 244.289062 208.476562 250.101562 201.46875 252.515625 C 198.46875 253.546875 193.242188 253.734375 190.242188 252.890625 Z M 190.242188 252.890625 " transform="matrix(0.166667,0,0,0.166667,0,0)"/>
<path style="fill:none;stroke-width:3.19125;stroke-linecap:butt;stroke-linejoin:miter;stroke:rgb(100%,100%,100%);stroke-opacity:1;stroke-miterlimit:4;" d="M 145.992188 222.796875 C 136.78125 221.203125 130.21875 213.609375 129.1875 204.421875 C 128.0625 194.484375 133.945312 185.648438 143.601562 182.601562 C 146.25 181.757812 151.453125 181.6875 154.171875 182.460938 C 157.757812 183.445312 161.179688 185.554688 163.78125 188.273438 C 165.304688 189.867188 166.335938 191.742188 167.507812 193.570312 C 168.796875 195.5625 169.992188 201.726562 169.6875 202.03125 C 169.617188 202.125 167.742188 199.945312 166.640625 199.078125 C 165.585938 198.257812 164.554688 197.367188 164.367188 197.25 C 164.203125 197.15625 162.1875 195.609375 159.726562 193.921875 C 154.523438 190.335938 152.601562 189.75 149.507812 189.75 C 146.132812 189.726562 143.367188 190.78125 141.09375 192.960938 C 136.523438 197.296875 135.703125 204 139.125 209.226562 C 140.132812 210.796875 141.796875 212.390625 143.132812 213.09375 C 144.984375 214.078125 156.984375 221.296875 157.007812 221.601562 C 157.03125 221.953125 155.132812 222.609375 152.859375 222.867188 C 150.375 223.148438 147.421875 223.054688 145.992188 222.796875 Z M 145.992188 222.796875 " transform="matrix(0.166667,0,0,0.166667,0,0)"/>
<path style=" stroke:none;fill-rule:nonzero;fill:rgb(100%,100%,100%);fill-opacity:1;" d="M 38.265625 28.492188 C 37.550781 28.484375 37.113281 28.5625 36.53125 28.792969 C 34.9375 29.425781 33.792969 30.972656 33.691406 32.632812 C 33.679688 32.828125 33.667969 32.9375 33.640625 33.03125 C 33.640625 33.03125 33.644531 33.03125 33.644531 33.03125 C 33.664062 33.027344 33.691406 33.277344 33.707031 33.449219 C 33.777344 34.207031 34.1875 35.183594 34.71875 35.851562 C 35.4375 36.757812 36.636719 37.445312 37.726562 37.578125 C 37.863281 37.59375 37.988281 37.589844 38.003906 37.609375 C 38.09375 37.574219 38.230469 37.5625 38.515625 37.546875 C 39.601562 37.492188 40.621094 37.03125 41.414062 36.242188 C 42.777344 34.886719 43.144531 32.835938 42.328125 31.097656 C 41.75 29.859375 40.671875 28.96875 39.332031 28.613281 C 38.960938 28.515625 38.789062 28.496094 38.265625 28.492188 Z M 38.273438 29.8125 C 38.871094 29.8125 38.929688 29.820312 39.28125 29.957031 C 40.0625 30.257812 40.636719 30.78125 40.992188 31.507812 C 41.253906 32.050781 41.339844 32.476562 41.3125 33.074219 C 41.242188 34.386719 40.410156 35.480469 39.179688 35.882812 C 38.714844 36.035156 38.050781 36.066406 37.59375 35.964844 C 36.925781 35.816406 36.226562 35.367188 35.828125 34.828125 C 35.355469 34.195312 35.152344 33.535156 35.1875 32.75 C 35.246094 31.464844 36.0625 30.359375 37.265625 29.941406 C 37.609375 29.820312 37.691406 29.808594 38.273438 29.8125 Z M 24.917969 31.625 C 24.355469 31.621094 23.894531 31.796875 23.515625 32.160156 C 22.753906 32.882812 22.617188 34 23.1875 34.871094 C 23.355469 35.132812 23.632812 35.398438 23.855469 35.515625 C 24.164062 35.679688 26.164062 36.882812 26.167969 36.933594 C 26.167969 36.9375 26.167969 36.9375 26.167969 36.941406 L 26.1875 36.933594 L 26.746094 37.300781 C 27.054688 37.5 27.71875 37.941406 28.222656 38.273438 L 29.136719 38.882812 L 29.136719 38.902344 C 29.140625 38.898438 29.140625 38.890625 29.144531 38.890625 C 29.160156 38.871094 29.53125 39.222656 29.738281 39.363281 C 29.945312 39.503906 30.128906 39.636719 30.128906 39.636719 C 30.15625 39.65625 30.46875 39.882812 30.886719 40.191406 C 31.777344 40.847656 32.03125 40.917969 32.5625 40.921875 C 33.289062 40.929688 33.894531 40.609375 34.28125 40.019531 C 34.628906 39.496094 34.730469 38.820312 34.558594 38.246094 C 34.367188 37.632812 34.097656 37.335938 33.171875 36.746094 C 32.824219 36.523438 32.464844 36.316406 32.375 36.269531 C 32.296875 36.222656 31.785156 35.980469 31.589844 35.847656 C 31.476562 35.769531 31.328125 35.671875 31.339844 35.660156 C 31.191406 35.605469 30.746094 35.324219 29.792969 34.6875 L 28.285156 33.675781 L 28.28125 33.667969 C 28.28125 33.671875 28.28125 33.671875 28.28125 33.671875 C 28.265625 33.6875 27.957031 33.324219 27.769531 33.179688 C 27.597656 33.042969 27.425781 32.894531 27.394531 32.875 C 27.367188 32.859375 27.027344 32.601562 26.621094 32.320312 C 25.753906 31.722656 25.433594 31.625 24.917969 31.625 Z M 28.144531 32.851562 C 28.171875 32.960938 28.199219 33.066406 28.21875 33.167969 C 28.199219 33.0625 28.175781 32.957031 28.144531 32.851562 Z M 33.078125 33.996094 C 33.027344 34.078125 32.996094 34.132812 32.941406 34.222656 C 32.988281 34.144531 33.035156 34.066406 33.078125 33.996094 Z M 29.1875 39.296875 C 29.230469 39.574219 29.304688 39.84375 29.410156 40.09375 C 29.324219 39.84375 29.238281 39.539062 29.1875 39.296875 Z M 29.1875 39.296875 "/>
</g>
</svg>
