
<svg xmlns="http://www.w3.org/2000/svg" xmlns:xlink="http://www.w3.org/1999/xlink" width="24px" height="24px" viewBox="0 0 24 24" version="1.1">
<defs>
<linearGradient id="linear0" gradientUnits="userSpaceOnUse" x1="198.300247" y1="66.203491" x2="196.276016" y2="320.847565" gradientTransform="matrix(0.0625,0,0,0.0625,0,0)">
<stop offset="0" style="stop-color:rgb(8.627451%,47.058824%,94.117647%);stop-opacity:1;"/>
<stop offset="1" style="stop-color:rgb(5.490196%,39.215687%,80.784315%);stop-opacity:1;"/>
</linearGradient>
<filter id="alpha" filterUnits="objectBoundingBox" x="0%" y="0%" width="100%" height="100%">
  <feColorMatrix type="matrix" in="SourceGraphic" values="0 0 0 0 1 0 0 0 0 1 0 0 0 0 1 0 0 0 1 0"/>
</filter>
<mask id="mask0">
  <g filter="url(#alpha)">
<rect x="0" y="0" width="24" height="24" style="fill:rgb(0%,0%,0%);fill-opacity:0.6;stroke:none;"/>
  </g>
</mask>
<linearGradient id="linear1" gradientUnits="userSpaceOnUse" x1="173.893509" y1="92.745766" x2="173.496323" y2="100.881363" >
<stop offset="0" style="stop-color:rgb(100%,100%,100%);stop-opacity:1;"/>
<stop offset="1" style="stop-color:rgb(100%,100%,100%);stop-opacity:0;"/>
</linearGradient>
<clipPath id="clip1">
  <rect x="0" y="0" width="24" height="24"/>
</clipPath>
<g id="surface5" clip-path="url(#clip1)">
<path style="fill:none;stroke-width:7.5;stroke-linecap:butt;stroke-linejoin:miter;stroke:url(#linear1);stroke-miterlimit:4;" d="M 44.0625 67.125 C 38.375 67.125 33.75 72.1875 33.75 78.4375 L 33.75 308.1875 C 33.75 313 37.3125 316.875 41.625 316.875 L 339.375 316.875 C 343.6875 316.875 347.25 313 347.25 308.1875 L 347.25 108.4375 C 347.25 98.9375 340.3125 91.375 331.75 91.375 L 172.125 91.375 C 167.9375 91.375 166.25 90.8125 163.5 88 L 147.5 70.5 C 147.4375 70.4375 147.375 70.375 147.375 70.375 L 147.3125 70.3125 C 145.4375 68.375 142.9375 67.125 140.1875 67.125 Z M 44.0625 67.125 " transform="matrix(0.0625,0,0,0.0625,0,0)"/>
</g>
</defs>
<g id="surface1">
<path style=" stroke:none;fill-rule:evenodd;fill:rgb(0%,0%,0%);fill-opacity:0.588235;" d="M 3.484375 4.429688 C 3.152344 4.429688 2.886719 4.753906 2.886719 5.160156 L 2.886719 19.949219 C 2.886719 20.257812 3.089844 20.507812 3.34375 20.507812 L 20.707031 20.507812 C 20.960938 20.507812 21.164062 20.257812 21.164062 19.949219 L 21.164062 7.089844 C 21.164062 6.480469 20.761719 5.988281 20.261719 5.988281 L 10.957031 5.988281 C 10.707031 5.988281 10.609375 5.953125 10.453125 5.773438 L 9.519531 4.648438 C 9.515625 4.644531 9.511719 4.640625 9.507812 4.636719 C 9.398438 4.507812 9.253906 4.429688 9.089844 4.429688 Z M 3.484375 4.429688 "/>
<path style=" stroke:none;fill-rule:evenodd;fill:url(#linear0);" d="M 2.628906 3.910156 C 2.265625 3.910156 1.96875 4.234375 1.96875 4.640625 L 1.96875 19.429688 C 1.96875 19.738281 2.195312 19.988281 2.472656 19.988281 L 21.527344 19.988281 C 21.804688 19.988281 22.03125 19.738281 22.03125 19.429688 L 22.03125 6.570312 C 22.03125 5.960938 21.585938 5.46875 21.039062 5.46875 L 10.824219 5.46875 C 10.554688 5.46875 10.445312 5.433594 10.273438 5.253906 L 9.25 4.128906 C 9.246094 4.125 9.242188 4.121094 9.238281 4.117188 L 9.234375 4.113281 C 9.117188 3.988281 8.957031 3.910156 8.777344 3.910156 Z M 2.628906 3.910156 "/>
<use xlink:href="#surface5" mask="url(#mask0)"/>
<path style=" stroke:none;fill-rule:nonzero;fill:rgb(0%,0%,0%);fill-opacity:0.588235;" d="M 3.707031 5.300781 L 8.851562 5.300781 C 9.097656 5.300781 9.296875 5.5 9.296875 5.746094 L 9.296875 6.917969 C 9.296875 7.164062 9.097656 7.363281 8.851562 7.363281 L 3.707031 7.363281 C 3.460938 7.363281 3.261719 7.164062 3.261719 6.917969 L 3.261719 5.746094 C 3.261719 5.5 3.460938 5.300781 3.707031 5.300781 Z M 3.707031 5.300781 "/>
<path style=" stroke:none;fill-rule:nonzero;fill:rgb(100%,100%,100%);fill-opacity:1;" d="M 3.386719 4.941406 L 8.53125 4.941406 C 8.777344 4.941406 8.976562 5.140625 8.976562 5.386719 L 8.976562 6.558594 C 8.976562 6.804688 8.777344 7.003906 8.53125 7.003906 L 3.386719 7.003906 C 3.140625 7.003906 2.941406 6.804688 2.941406 6.558594 L 2.941406 5.386719 C 2.941406 5.140625 3.140625 4.941406 3.386719 4.941406 Z M 3.386719 4.941406 "/>
<path style=" stroke:none;fill-rule:nonzero;fill:rgb(100%,100%,100%);fill-opacity:1;" d="M 11.613281 11.160156 C 11.019531 11.164062 10.542969 11.644531 10.542969 12.238281 C 10.546875 12.480469 10.628906 12.707031 10.765625 12.886719 C 11.0625 12.539062 11.5 12.320312 11.992188 12.320312 C 12.230469 12.316406 12.457031 12.371094 12.664062 12.464844 C 12.679688 12.390625 12.6875 12.3125 12.6875 12.230469 C 12.6875 11.636719 12.207031 11.160156 11.613281 11.160156 Z M 10.214844 11.660156 C 9.90625 11.664062 9.65625 11.914062 9.660156 12.222656 C 9.660156 12.324219 9.683594 12.417969 9.730469 12.496094 C 9.917969 12.390625 10.132812 12.332031 10.363281 12.328125 C 10.382812 12.328125 10.40625 12.328125 10.425781 12.328125 C 10.425781 12.296875 10.421875 12.265625 10.421875 12.234375 C 10.421875 12.0625 10.457031 11.898438 10.523438 11.75 C 10.433594 11.691406 10.328125 11.660156 10.214844 11.660156 Z M 12.859375 12.039062 C 12.835938 12.039062 12.816406 12.039062 12.792969 12.046875 C 12.800781 12.105469 12.808594 12.167969 12.808594 12.234375 C 12.8125 12.332031 12.796875 12.429688 12.777344 12.519531 C 13.046875 12.671875 13.273438 12.894531 13.421875 13.164062 C 13.574219 13.085938 13.746094 13.03125 13.925781 13.019531 C 13.878906 12.472656 13.421875 12.039062 12.859375 12.042969 Z M 11.992188 12.441406 C 11.160156 12.441406 10.492188 13.117188 10.496094 13.945312 C 10.496094 14.777344 11.171875 15.445312 12 15.441406 C 12.828125 15.441406 13.5 14.765625 13.496094 13.9375 C 13.492188 13.105469 12.820312 12.4375 11.992188 12.441406 Z M 10.363281 12.453125 C 9.71875 12.453125 9.199219 12.976562 9.199219 13.621094 C 9.203125 14 9.382812 14.335938 9.664062 14.546875 C 9.78125 14.320312 10.019531 14.164062 10.292969 14.164062 C 10.324219 14.164062 10.355469 14.167969 10.386719 14.171875 C 10.378906 14.097656 10.371094 14.023438 10.371094 13.949219 C 10.371094 13.585938 10.488281 13.253906 10.6875 12.980469 C 10.566406 12.832031 10.480469 12.652344 10.445312 12.457031 C 10.417969 12.457031 10.390625 12.449219 10.363281 12.449219 Z M 14.011719 13.136719 C 13.816406 13.136719 13.636719 13.1875 13.472656 13.273438 C 13.566406 13.476562 13.617188 13.699219 13.617188 13.9375 C 13.621094 14.382812 13.441406 14.785156 13.152344 15.082031 C 13.367188 15.316406 13.675781 15.464844 14.019531 15.460938 C 14.664062 15.460938 15.183594 14.9375 15.179688 14.292969 C 15.179688 13.652344 14.65625 13.132812 14.011719 13.136719 Z M 9.085938 13.304688 C 8.492188 13.304688 8.015625 13.785156 8.015625 14.375 C 8.015625 14.96875 8.5 15.449219 9.09375 15.449219 C 9.320312 15.445312 9.527344 15.375 9.699219 15.257812 C 9.628906 15.144531 9.585938 15.011719 9.585938 14.871094 C 9.585938 14.800781 9.59375 14.730469 9.617188 14.660156 C 9.292969 14.429688 9.082031 14.050781 9.078125 13.621094 C 9.078125 13.511719 9.09375 13.40625 9.117188 13.304688 C 9.109375 13.304688 9.097656 13.304688 9.085938 13.304688 Z M 15.394531 14.207031 C 15.363281 14.207031 15.332031 14.214844 15.300781 14.214844 C 15.304688 14.242188 15.304688 14.265625 15.304688 14.292969 C 15.304688 14.636719 15.171875 14.945312 14.953125 15.175781 C 15.0625 15.300781 15.21875 15.378906 15.398438 15.378906 C 15.722656 15.378906 15.984375 15.117188 15.984375 14.792969 C 15.984375 14.46875 15.71875 14.203125 15.394531 14.207031 Z M 10.292969 14.285156 C 9.964844 14.285156 9.707031 14.546875 9.707031 14.871094 C 9.707031 15.195312 9.96875 15.460938 10.296875 15.457031 C 10.542969 15.457031 10.753906 15.300781 10.839844 15.082031 C 10.628906 14.871094 10.480469 14.597656 10.410156 14.296875 C 10.371094 14.289062 10.332031 14.285156 10.292969 14.285156 Z M 10.292969 14.285156 "/>
</g>
</svg>
