
<svg xmlns="http://www.w3.org/2000/svg" xmlns:xlink="http://www.w3.org/1999/xlink" width="48px" height="48px" viewBox="0 0 48 48" version="1.1">
<defs>
<linearGradient id="linear0" gradientUnits="userSpaceOnUse" x1="198.300247" y1="66.203491" x2="196.276016" y2="320.847565" gradientTransform="matrix(0.125,0,0,0.125,0,0)">
<stop offset="0" style="stop-color:rgb(8.627451%,47.058824%,94.117647%);stop-opacity:1;"/>
<stop offset="1" style="stop-color:rgb(5.490196%,39.215687%,80.784315%);stop-opacity:1;"/>
</linearGradient>
<filter id="alpha" filterUnits="objectBoundingBox" x="0%" y="0%" width="100%" height="100%">
  <feColorMatrix type="matrix" in="SourceGraphic" values="0 0 0 0 1 0 0 0 0 1 0 0 0 0 1 0 0 0 1 0"/>
</filter>
<mask id="mask0">
  <g filter="url(#alpha)">
<rect x="0" y="0" width="48" height="48" style="fill:rgb(0%,0%,0%);fill-opacity:0.6;stroke:none;"/>
  </g>
</mask>
<linearGradient id="linear1" gradientUnits="userSpaceOnUse" x1="173.893509" y1="92.745766" x2="173.496323" y2="100.881363" >
<stop offset="0" style="stop-color:rgb(100%,100%,100%);stop-opacity:1;"/>
<stop offset="1" style="stop-color:rgb(100%,100%,100%);stop-opacity:0;"/>
</linearGradient>
<clipPath id="clip1">
  <rect x="0" y="0" width="48" height="48"/>
</clipPath>
<g id="surface5" clip-path="url(#clip1)">
<path style="fill:none;stroke-width:7.5;stroke-linecap:butt;stroke-linejoin:miter;stroke:url(#linear1);stroke-miterlimit:4;" d="M 44.0625 67.125 C 38.375 67.125 33.78125 72.1875 33.78125 78.46875 L 33.78125 308.1875 C 33.78125 313 37.28125 316.875 41.65625 316.875 L 339.34375 316.875 C 343.71875 316.875 347.21875 313 347.21875 308.1875 L 347.21875 108.40625 C 347.21875 98.96875 340.3125 91.34375 331.71875 91.34375 L 172.15625 91.34375 C 167.90625 91.34375 166.21875 90.8125 163.53125 88 L 147.5 70.53125 C 147.46875 70.46875 147.40625 70.40625 147.34375 70.34375 L 147.3125 70.3125 C 145.46875 68.34375 142.9375 67.125 140.15625 67.125 Z M 44.0625 67.125 " transform="matrix(0.125,0,0,0.125,0,0)"/>
</g>
</defs>
<g id="surface1">
<path style=" stroke:none;fill-rule:evenodd;fill:rgb(0%,0%,0%);fill-opacity:0.588235;" d="M 6.972656 8.859375 C 6.304688 8.859375 5.769531 9.511719 5.769531 10.320312 L 5.769531 39.898438 C 5.769531 40.515625 6.179688 41.015625 6.6875 41.015625 L 41.414062 41.015625 C 41.921875 41.015625 42.332031 40.515625 42.332031 39.898438 L 42.332031 14.175781 C 42.332031 12.957031 41.523438 11.980469 40.523438 11.980469 L 21.910156 11.980469 C 21.417969 11.980469 21.21875 11.90625 20.902344 11.546875 L 19.035156 9.296875 C 19.03125 9.289062 19.023438 9.28125 19.019531 9.273438 L 19.011719 9.269531 C 18.796875 9.015625 18.503906 8.859375 18.179688 8.859375 Z M 6.972656 8.859375 "/>
<path style=" stroke:none;fill-rule:evenodd;fill:url(#linear0);" d="M 5.257812 7.820312 C 4.527344 7.820312 3.941406 8.472656 3.941406 9.28125 L 3.941406 38.859375 C 3.941406 39.476562 4.390625 39.976562 4.949219 39.976562 L 43.050781 39.976562 C 43.609375 39.976562 44.058594 39.476562 44.058594 38.859375 L 44.058594 13.136719 C 44.058594 11.917969 43.175781 10.941406 42.074219 10.941406 L 21.652344 10.941406 C 21.109375 10.941406 20.894531 10.867188 20.546875 10.507812 L 18.496094 8.257812 C 18.492188 8.25 18.484375 8.242188 18.476562 8.234375 L 18.472656 8.230469 C 18.234375 7.976562 17.914062 7.820312 17.558594 7.820312 Z M 5.257812 7.820312 "/>
<use xlink:href="#surface5" mask="url(#mask0)"/>
<path style=" stroke:none;fill-rule:nonzero;fill:rgb(0%,0%,0%);fill-opacity:0.588235;" d="M 7.414062 10.597656 L 17.703125 10.597656 C 18.195312 10.597656 18.59375 10.996094 18.59375 11.488281 L 18.59375 13.832031 C 18.59375 14.324219 18.195312 14.722656 17.703125 14.722656 L 7.414062 14.722656 C 6.921875 14.722656 6.523438 14.324219 6.523438 13.832031 L 6.523438 11.488281 C 6.523438 10.996094 6.921875 10.597656 7.414062 10.597656 Z M 7.414062 10.597656 "/>
<path style=" stroke:none;fill-rule:nonzero;fill:rgb(100%,100%,100%);fill-opacity:1;" d="M 6.773438 9.878906 L 17.0625 9.878906 C 17.554688 9.878906 17.953125 10.277344 17.953125 10.769531 L 17.953125 13.113281 C 17.953125 13.605469 17.554688 14.003906 17.0625 14.003906 L 6.773438 14.003906 C 6.28125 14.003906 5.882812 13.605469 5.882812 13.113281 L 5.882812 10.769531 C 5.882812 10.277344 6.28125 9.878906 6.773438 9.878906 Z M 6.773438 9.878906 "/>
<path style=" stroke:none;fill-rule:nonzero;fill:rgb(100%,100%,100%);fill-opacity:1;" d="M 23.90625 19.261719 C 21.300781 19.261719 19.03125 20.675781 17.816406 22.777344 L 19.636719 22.777344 C 20.652344 21.550781 22.191406 20.769531 23.90625 20.769531 C 26.957031 20.769531 29.429688 23.242188 29.429688 26.292969 C 29.429688 29.34375 26.957031 31.816406 23.90625 31.816406 C 20.855469 31.816406 18.382812 29.34375 18.382812 26.292969 C 18.382812 26.125 18.398438 25.957031 18.414062 25.789062 L 16.894531 25.789062 C 16.882812 25.957031 16.878906 26.125 16.878906 26.292969 C 16.878906 30.175781 20.023438 33.324219 23.910156 33.324219 C 27.792969 33.324219 30.9375 30.175781 30.9375 26.292969 C 30.9375 22.410156 27.792969 19.261719 23.910156 19.261719 Z M 23.90625 19.261719 "/>
<path style=" stroke:none;fill-rule:nonzero;fill:rgb(100%,100%,100%);fill-opacity:1;" d="M 16.875 19.261719 L 16.875 24.285156 L 21.894531 24.285156 Z M 16.875 19.261719 "/>
<path style=" stroke:none;fill-rule:nonzero;fill:rgb(100%,100%,100%);fill-opacity:1;" d="M 23.8125 21.742188 C 23.769531 21.75 23.726562 21.761719 23.683594 21.773438 C 23.21875 21.878906 22.890625 22.296875 22.898438 22.777344 L 22.898438 26.480469 C 22.898438 26.511719 22.898438 26.542969 22.898438 26.574219 C 22.839844 26.832031 22.886719 27.105469 23.027344 27.328125 C 23.035156 27.339844 23.046875 27.351562 23.058594 27.359375 C 23.066406 27.382812 23.078125 27.402344 23.089844 27.421875 C 23.097656 27.433594 23.109375 27.445312 23.121094 27.453125 C 23.128906 27.464844 23.140625 27.472656 23.152344 27.484375 C 23.164062 27.496094 23.171875 27.503906 23.183594 27.515625 C 23.195312 27.527344 23.203125 27.535156 23.214844 27.546875 C 23.234375 27.558594 23.257812 27.570312 23.277344 27.578125 C 23.289062 27.589844 23.300781 27.597656 23.308594 27.609375 C 23.320312 27.621094 23.332031 27.628906 23.339844 27.640625 C 23.363281 27.652344 23.382812 27.660156 23.40625 27.671875 C 23.445312 27.695312 23.488281 27.714844 23.53125 27.734375 L 26.007812 29.175781 C 26.324219 29.386719 26.730469 29.402344 27.0625 29.21875 C 27.394531 29.035156 27.59375 28.683594 27.585938 28.304688 C 27.574219 27.925781 27.355469 27.585938 27.015625 27.417969 L 24.910156 26.195312 L 24.910156 22.773438 C 24.921875 22.484375 24.808594 22.207031 24.597656 22.007812 C 24.386719 21.808594 24.101562 21.710938 23.8125 21.738281 Z M 23.8125 21.742188 "/>
</g>
</svg>
