
<svg xmlns="http://www.w3.org/2000/svg" xmlns:xlink="http://www.w3.org/1999/xlink" width="48px" height="48px" viewBox="0 0 48 48" version="1.1">
<defs>
<linearGradient id="linear0" gradientUnits="userSpaceOnUse" x1="198.300247" y1="66.203491" x2="196.276016" y2="320.847565" gradientTransform="matrix(0.125,0,0,0.125,0,-0.000000425369)">
<stop offset="0" style="stop-color:rgb(8.627451%,47.058824%,94.117647%);stop-opacity:1;"/>
<stop offset="1" style="stop-color:rgb(5.490196%,39.215687%,80.784315%);stop-opacity:1;"/>
</linearGradient>
<filter id="alpha" filterUnits="objectBoundingBox" x="0%" y="0%" width="100%" height="100%">
  <feColorMatrix type="matrix" in="SourceGraphic" values="0 0 0 0 1 0 0 0 0 1 0 0 0 0 1 0 0 0 1 0"/>
</filter>
<mask id="mask0">
  <g filter="url(#alpha)">
<rect x="0" y="0" width="48" height="48" style="fill:rgb(0%,0%,0%);fill-opacity:0.6;stroke:none;"/>
  </g>
</mask>
<linearGradient id="linear1" gradientUnits="userSpaceOnUse" x1="173.893509" y1="92.745766" x2="173.496323" y2="100.881363" gradientTransform="matrix(1,0,0,1,0,-0.00000359323)">
<stop offset="0" style="stop-color:rgb(100%,100%,100%);stop-opacity:1;"/>
<stop offset="1" style="stop-color:rgb(100%,100%,100%);stop-opacity:0;"/>
</linearGradient>
<clipPath id="clip1">
  <rect x="0" y="0" width="48" height="48"/>
</clipPath>
<g id="surface5" clip-path="url(#clip1)">
<path style="fill:none;stroke-width:7.5;stroke-linecap:butt;stroke-linejoin:miter;stroke:url(#linear1);stroke-miterlimit:4;" d="M 44.0625 183.96875 C 38.375 183.96875 33.78125 186.6875 33.78125 190.0625 L 33.78125 313.5625 C 33.78125 316.15625 37.28125 318.21875 41.65625 318.21875 L 339.34375 318.21875 C 343.71875 318.21875 347.21875 316.15625 347.21875 313.5625 L 347.21875 206.1875 C 347.21875 201.09375 340.3125 197 331.71875 197 L 172.15625 197 C 167.90625 197 166.21875 196.6875 163.53125 195.1875 L 147.5 185.8125 C 147.46875 185.78125 147.40625 185.75 147.34375 185.71875 L 147.3125 185.6875 C 145.46875 184.625 142.9375 183.96875 140.15625 183.96875 Z M 44.0625 183.96875 " transform="matrix(0.125,0,0,0.125,0,0)"/>
</g>
</defs>
<g id="surface1">
<path style=" stroke:none;fill-rule:evenodd;fill:rgb(0%,0%,0%);fill-opacity:0.588235;" d="M 6.972656 8.859375 C 6.304688 8.859375 5.769531 9.511719 5.769531 10.320312 L 5.769531 39.898438 C 5.769531 40.515625 6.179688 41.015625 6.6875 41.015625 L 41.414062 41.015625 C 41.921875 41.015625 42.332031 40.515625 42.332031 39.898438 L 42.332031 14.175781 C 42.332031 12.957031 41.523438 11.980469 40.523438 11.980469 L 21.910156 11.980469 C 21.417969 11.980469 21.21875 11.90625 20.902344 11.546875 L 19.035156 9.296875 C 19.03125 9.289062 19.023438 9.28125 19.019531 9.273438 L 19.011719 9.269531 C 18.796875 9.015625 18.503906 8.859375 18.179688 8.859375 Z M 6.972656 8.859375 "/>
<path style=" stroke:none;fill-rule:nonzero;fill:rgb(100%,78.039217%,18.039216%);fill-opacity:1;" d="M 5.257812 22.691406 C 5.304688 22.84375 5.398438 22.976562 5.542969 23.074219 L 28.460938 38.308594 C 28.785156 38.523438 29.226562 38.4375 29.445312 38.113281 L 37.671875 21.691406 C 37.894531 21.371094 37.808594 20.933594 37.484375 20.71875 L 18.972656 3.40625 C 18.648438 3.1875 18.207031 3.273438 17.988281 3.597656 L 5.351562 22.097656 C 5.226562 22.28125 5.199219 22.496094 5.257812 22.691406 Z M 5.257812 22.691406 "/>
<path style=" stroke:none;fill-rule:nonzero;fill:rgb(100%,100%,100%);fill-opacity:1;" d="M 33.019531 6.523438 C 32.863281 6.5 32.699219 6.527344 32.554688 6.617188 L 8.996094 20.839844 C 8.660156 21.042969 8.550781 21.476562 8.746094 21.816406 L 20.085938 36.261719 C 20.285156 36.601562 20.714844 36.707031 21.050781 36.507812 L 44.609375 27.15625 C 44.941406 26.953125 45.054688 26.519531 44.855469 26.183594 L 33.515625 6.859375 C 33.402344 6.671875 33.21875 6.550781 33.019531 6.523438 Z M 33.019531 6.523438 "/>
<path style=" stroke:none;fill-rule:evenodd;fill:url(#linear0);" d="M 5.257812 18.726562 C 4.527344 18.726562 3.941406 19.15625 3.941406 19.6875 L 3.941406 39.238281 C 3.941406 39.644531 4.390625 39.976562 4.949219 39.976562 L 43.050781 39.976562 C 43.609375 39.976562 44.058594 39.644531 44.058594 39.238281 L 44.058594 22.238281 C 44.058594 21.433594 43.175781 20.785156 42.074219 20.785156 L 21.652344 20.785156 C 21.109375 20.785156 20.894531 20.738281 20.546875 20.5 L 18.496094 19.011719 C 18.492188 19.007812 18.484375 19.003906 18.476562 19 L 18.472656 18.996094 C 18.234375 18.828125 17.914062 18.726562 17.558594 18.726562 Z M 5.257812 18.726562 "/>
<use xlink:href="#surface5" mask="url(#mask0)"/>
<path style=" stroke:none;fill-rule:nonzero;fill:rgb(0%,0%,0%);fill-opacity:0.588235;" d="M 7.414062 20.433594 L 17.703125 20.433594 C 18.195312 20.433594 18.59375 20.832031 18.59375 21.324219 L 18.59375 21.761719 C 18.59375 22.253906 18.195312 22.652344 17.703125 22.652344 L 7.414062 22.652344 C 6.921875 22.652344 6.523438 22.253906 6.523438 21.761719 L 6.523438 21.324219 C 6.523438 20.832031 6.921875 20.433594 7.414062 20.433594 Z M 7.414062 20.433594 "/>
<path style=" stroke:none;fill-rule:nonzero;fill:rgb(100%,100%,100%);fill-opacity:1;" d="M 6.773438 20.046875 L 17.0625 20.046875 C 17.554688 20.046875 17.953125 20.445312 17.953125 20.9375 L 17.953125 21.375 C 17.953125 21.867188 17.554688 22.265625 17.0625 22.265625 L 6.773438 22.265625 C 6.28125 22.265625 5.882812 21.867188 5.882812 21.375 L 5.882812 20.9375 C 5.882812 20.445312 6.28125 20.046875 6.773438 20.046875 Z M 6.773438 20.046875 "/>
</g>
</svg>
