
<svg xmlns="http://www.w3.org/2000/svg" xmlns:xlink="http://www.w3.org/1999/xlink" width="48px" height="48px" viewBox="0 0 48 48" version="1.1">
<defs>
<linearGradient id="linear0" gradientUnits="userSpaceOnUse" x1="198.300247" y1="66.203491" x2="196.276016" y2="320.847565" gradientTransform="matrix(0.125,0,0,0.125,0,0)">
<stop offset="0" style="stop-color:rgb(8.627451%,47.058824%,94.117647%);stop-opacity:1;"/>
<stop offset="1" style="stop-color:rgb(5.490196%,39.215687%,80.784315%);stop-opacity:1;"/>
</linearGradient>
<filter id="alpha" filterUnits="objectBoundingBox" x="0%" y="0%" width="100%" height="100%">
  <feColorMatrix type="matrix" in="SourceGraphic" values="0 0 0 0 1 0 0 0 0 1 0 0 0 0 1 0 0 0 1 0"/>
</filter>
<mask id="mask0">
  <g filter="url(#alpha)">
<rect x="0" y="0" width="48" height="48" style="fill:rgb(0%,0%,0%);fill-opacity:0.6;stroke:none;"/>
  </g>
</mask>
<linearGradient id="linear1" gradientUnits="userSpaceOnUse" x1="173.893509" y1="92.745766" x2="173.496323" y2="100.881363" >
<stop offset="0" style="stop-color:rgb(100%,100%,100%);stop-opacity:1;"/>
<stop offset="1" style="stop-color:rgb(100%,100%,100%);stop-opacity:0;"/>
</linearGradient>
<clipPath id="clip1">
  <rect x="0" y="0" width="48" height="48"/>
</clipPath>
<g id="surface5" clip-path="url(#clip1)">
<path style="fill:none;stroke-width:7.5;stroke-linecap:butt;stroke-linejoin:miter;stroke:url(#linear1);stroke-miterlimit:4;" d="M 44.0625 67.125 C 38.375 67.125 33.78125 72.1875 33.78125 78.46875 L 33.78125 308.1875 C 33.78125 313 37.28125 316.875 41.65625 316.875 L 339.34375 316.875 C 343.71875 316.875 347.21875 313 347.21875 308.1875 L 347.21875 108.40625 C 347.21875 98.96875 340.3125 91.34375 331.71875 91.34375 L 172.15625 91.34375 C 167.90625 91.34375 166.21875 90.8125 163.53125 88 L 147.5 70.53125 C 147.46875 70.46875 147.40625 70.40625 147.34375 70.34375 L 147.3125 70.3125 C 145.46875 68.34375 142.9375 67.125 140.15625 67.125 Z M 44.0625 67.125 " transform="matrix(0.125,0,0,0.125,0,0)"/>
</g>
</defs>
<g id="surface1">
<path style=" stroke:none;fill-rule:evenodd;fill:rgb(0%,0%,0%);fill-opacity:0.588235;" d="M 6.972656 8.859375 C 6.304688 8.859375 5.769531 9.511719 5.769531 10.320312 L 5.769531 39.898438 C 5.769531 40.515625 6.179688 41.015625 6.6875 41.015625 L 41.414062 41.015625 C 41.921875 41.015625 42.332031 40.515625 42.332031 39.898438 L 42.332031 14.175781 C 42.332031 12.957031 41.523438 11.980469 40.523438 11.980469 L 21.910156 11.980469 C 21.417969 11.980469 21.21875 11.90625 20.902344 11.546875 L 19.035156 9.296875 C 19.03125 9.289062 19.023438 9.28125 19.019531 9.273438 L 19.011719 9.269531 C 18.796875 9.015625 18.503906 8.859375 18.179688 8.859375 Z M 6.972656 8.859375 "/>
<path style=" stroke:none;fill-rule:evenodd;fill:url(#linear0);" d="M 5.257812 7.820312 C 4.527344 7.820312 3.941406 8.472656 3.941406 9.28125 L 3.941406 38.859375 C 3.941406 39.476562 4.390625 39.976562 4.949219 39.976562 L 43.050781 39.976562 C 43.609375 39.976562 44.058594 39.476562 44.058594 38.859375 L 44.058594 13.136719 C 44.058594 11.917969 43.175781 10.941406 42.074219 10.941406 L 21.652344 10.941406 C 21.109375 10.941406 20.894531 10.867188 20.546875 10.507812 L 18.496094 8.257812 C 18.492188 8.25 18.484375 8.242188 18.476562 8.234375 L 18.472656 8.230469 C 18.234375 7.976562 17.914062 7.820312 17.558594 7.820312 Z M 5.257812 7.820312 "/>
<use xlink:href="#surface5" mask="url(#mask0)"/>
<path style=" stroke:none;fill-rule:nonzero;fill:rgb(0%,0%,0%);fill-opacity:0.588235;" d="M 7.414062 10.597656 L 17.703125 10.597656 C 18.195312 10.597656 18.59375 10.996094 18.59375 11.488281 L 18.59375 13.832031 C 18.59375 14.324219 18.195312 14.722656 17.703125 14.722656 L 7.414062 14.722656 C 6.921875 14.722656 6.523438 14.324219 6.523438 13.832031 L 6.523438 11.488281 C 6.523438 10.996094 6.921875 10.597656 7.414062 10.597656 Z M 7.414062 10.597656 "/>
<path style=" stroke:none;fill-rule:nonzero;fill:rgb(100%,100%,100%);fill-opacity:1;" d="M 6.773438 9.878906 L 17.0625 9.878906 C 17.554688 9.878906 17.953125 10.277344 17.953125 10.769531 L 17.953125 13.113281 C 17.953125 13.605469 17.554688 14.003906 17.0625 14.003906 L 6.773438 14.003906 C 6.28125 14.003906 5.882812 13.605469 5.882812 13.113281 L 5.882812 10.769531 C 5.882812 10.277344 6.28125 9.878906 6.773438 9.878906 Z M 6.773438 9.878906 "/>
<path style=" stroke:none;fill-rule:nonzero;fill:rgb(100%,100%,100%);fill-opacity:1;" d="M 24.011719 23.105469 C 22.359375 23.105469 20.957031 24.226562 20.523438 25.75 C 20.148438 24.941406 19.332031 24.375 18.390625 24.375 C 17.09375 24.375 16.03125 25.4375 16.03125 26.734375 C 16.03125 28.027344 17.09375 29.09375 18.390625 29.09375 C 19.332031 29.09375 20.148438 28.523438 20.523438 27.71875 C 20.957031 29.238281 22.359375 30.359375 24.011719 30.359375 C 25.65625 30.359375 27.050781 29.253906 27.492188 27.746094 C 27.875 28.539062 28.679688 29.09375 29.609375 29.09375 C 30.90625 29.09375 31.96875 28.027344 31.96875 26.734375 C 31.96875 25.4375 30.90625 24.375 29.609375 24.375 C 28.679688 24.375 27.875 24.929688 27.492188 25.71875 C 27.050781 24.214844 25.65625 23.105469 24.011719 23.105469 Z M 24.011719 24.488281 C 25.257812 24.488281 26.253906 25.484375 26.253906 26.734375 C 26.253906 27.980469 25.257812 28.976562 24.011719 28.976562 C 22.765625 28.976562 21.769531 27.980469 21.769531 26.734375 C 21.769531 25.484375 22.765625 24.488281 24.011719 24.488281 Z M 18.390625 25.757812 C 18.9375 25.757812 19.363281 26.1875 19.363281 26.734375 C 19.363281 27.28125 18.9375 27.707031 18.390625 27.707031 C 17.84375 27.707031 17.414062 27.28125 17.414062 26.734375 C 17.414062 26.1875 17.84375 25.757812 18.390625 25.757812 Z M 29.609375 25.757812 C 30.15625 25.757812 30.582031 26.1875 30.582031 26.734375 C 30.582031 27.28125 30.15625 27.707031 29.609375 27.707031 C 29.0625 27.707031 28.632812 27.28125 28.632812 26.734375 C 28.632812 26.1875 29.0625 25.757812 29.609375 25.757812 Z M 29.609375 25.757812 "/>
</g>
</svg>
